GeoramaExtraExtended-ExtraBoldItalic.ufo
<glyph name="exclam" format="2">
  <advance width="380.90000000000003"/>
  <unicode hex="0021"/>
  <outline>
    <contour>
      <point x="87.36" y="259.7" type="line"/>
      <point x="287.68" y="259.7" type="line"/>
      <point x="380.74" y="740.0" type="line"/>
      <point x="148.60000000000002" y="740.0" type="line"/>
    </contour>
    <contour>
      <point x="29.18" y="69.34" type="curve" smooth="yes"/>
      <point x="29.04" y="17.34"/>
      <point x="62.28" y="-8.6"/>
      <point x="146.23999999999998" y="-8.6" type="curve" smooth="yes"/>
      <point x="235.62" y="-8.6"/>
      <point x="295.1" y="22.499999999999993"/>
      <point x="295.52" y="115.15999999999998" type="curve" smooth="yes"/>
      <point x="295.65999999999997" y="167.16"/>
      <point x="262.41999999999996" y="193.1"/>
      <point x="179.32" y="193.1" type="curve" smooth="yes"/>
      <point x="85.64" y="193.1"/>
      <point x="29.6" y="157.7"/>
    </contour>
  </outline>
</glyph>
<glyph name="numbersign" format="2">
  <advance width="1047.76"/>
  <unicode hex="0023"/>
  <outline>
    <contour>
      <point x="174.04" y="426.12" type="line"/>
      <point x="264.48" y="426.12" type="line"/>
      <point x="208.8" y="279.38" type="line"/>
      <point x="122.34" y="279.38" type="line"/>
      <point x="98.84" y="137.67999999999998" type="line"/>
      <point x="157.93999999999997" y="137.67999999999998" type="line"/>
      <point x="106.74000000000001" y="0.0" type="line"/>
      <point x="351.2" y="0.0" type="line"/>
      <point x="402.26" y="137.67999999999998" type="line"/>
      <point x="507.6600000000001" y="137.67999999999998" type="line"/>
      <point x="456.6000000000001" y="0.0" type="line"/>
      <point x="701.06" y="0.0" type="line"/>
      <point x="752.12" y="137.67999999999998" type="line"/>
      <point x="875.52" y="137.67999999999998" type="line"/>
      <point x="898.16" y="279.38" type="line"/>
      <point x="804.84" y="279.38" type="line"/>
      <point x="858.66" y="426.12" type="line"/>
      <point x="949.86" y="426.12" type="line"/>
      <point x="973.5" y="566.0999999999999" type="line"/>
      <point x="909.66" y="566.0999999999999" type="line"/>
      <point x="960.12" y="700.0" type="line"/>
      <point x="715.66" y="700.0" type="line"/>
      <point x="665.1999999999999" y="566.0999999999999" type="line"/>
      <point x="559.8" y="566.0999999999999" type="line"/>
      <point x="610.26" y="700.0" type="line"/>
      <point x="365.79999999999995" y="700.0" type="line"/>
      <point x="315.34000000000003" y="566.0999999999999" type="line"/>
      <point x="196.82" y="566.0999999999999" type="line"/>
    </contour>
    <contour>
      <point x="508.94" y="426.12" type="line"/>
      <point x="614.3399999999999" y="426.12" type="line"/>
      <point x="558.66" y="279.38" type="line"/>
      <point x="453.26" y="279.38" type="line"/>
    </contour>
  </outline>
</glyph>
<glyph name="dollar" format="2">
  <advance width="1047.76"/>
  <unicode hex="0024"/>
  <outline>
    <contour>
      <point x="953.1600000000001" y="666.16" type="line"/>
      <point x="888.2199999999999" y="681.88"/>
      <point x="805.7199999999999" y="702.84"/>
      <point x="694.4" y="708.4200000000001" type="curve"/>
      <point x="710.4" y="805.0" type="line"/>
      <point x="548.6400000000001" y="805.0" type="line"/>
      <point x="532.78" y="707.42" type="line"/>
      <point x="336.34000000000003" y="699.54"/>
      <point x="155.84" y="641.7199999999999"/>
      <point x="155.84" y="449.40000000000003" type="curve" smooth="yes"/>
      <point x="155.84" y="185.2"/>
      <point x="675.6400000000001" y="280.40000000000003"/>
      <point x="675.6400000000001" y="203.73999999999998" type="curve" smooth="yes"/>
      <point x="675.6400000000001" y="166.60000000000002"/>
      <point x="614.04" y="157.06"/>
      <point x="526.86" y="157.06" type="curve" smooth="yes"/>
      <point x="389.34" y="157.06"/>
      <point x="237.01999999999998" y="187.7"/>
      <point x="133.24" y="225.20000000000002" type="curve"/>
      <point x="64.75999999999999" y="50.260000000000005" type="line"/>
      <point x="155.98" y="21.8"/>
      <point x="282.59999999999997" y="-4.699999999999999"/>
      <point x="417.5" y="-9.14" type="curve"/>
      <point x="402.5" y="-105.0" type="line"/>
      <point x="563.4" y="-105.0" type="line"/>
      <point x="578.4" y="-4.84" type="line"/>
      <point x="754.76" y="14.219999999999997"/>
      <point x="944.32" y="52.400000000000006"/>
      <point x="944.32" y="251.32" type="curve" smooth="yes"/>
      <point x="944.32" y="509.94000000000005"/>
      <point x="420.79999999999995" y="412.29999999999995"/>
      <point x="420.79999999999995" y="492.96" type="curve" smooth="yes"/>
      <point x="420.79999999999995" y="531.96"/>
      <point x="483.55999999999995" y="538.78"/>
      <point x="556.1399999999999" y="538.78" type="curve" smooth="yes"/>
      <point x="676.92" y="538.78"/>
      <point x="790.7" y="526.1199999999999"/>
      <point x="887.6800000000001" y="492.36" type="curve"/>
    </contour>
  </outline>
</glyph>
<glyph name="ampersand" format="2">
  <advance width="1096.56"/>
  <unicode hex="0026"/>
  <outline>
    <contour>
      <point x="454.71999999999997" y="-10.0" type="curve" smooth="yes"/>
      <point x="730.28" y="-10.0"/>
      <point x="897.6" y="88.56"/>
      <point x="980.7599999999999" y="317.84" type="curve"/>
      <point x="802.44" y="319.68" type="line"/>
      <point x="770.7199999999999" y="201.88"/>
      <point x="644.8800000000001" y="143.72"/>
      <point x="482.4" y="143.72" type="curve" smooth="yes"/>
      <point x="358.52000000000004" y="143.72"/>
      <point x="285.76" y="175.87999999999997"/>
      <point x="285.76" y="225.32" type="curve" smooth="yes"/>
      <point x="285.76" y="279.0"/>
      <point x="341.68" y="298.0"/>
      <point x="418.48" y="298.0" type="curve" smooth="yes"/>
      <point x="501.88000000000005" y="298.0" type="line"/>
      <point x="529.4000000000001" y="402.67999999999995" type="line"/>
      <point x="506.35999999999996" y="405.4" type="line" smooth="yes"/>
      <point x="428.76" y="414.52"/>
      <point x="385.56000000000006" y="439.32"/>
      <point x="385.56000000000006" y="484.84000000000003" type="curve" smooth="yes"/>
      <point x="385.56000000000006" y="526.44"/>
      <point x="431.04" y="560.84"/>
      <point x="502.88" y="560.84" type="curve" smooth="yes"/>
      <point x="553.88" y="560.84"/>
      <point x="603.2800000000001" y="543.64"/>
      <point x="652.56" y="511.0" type="curve"/>
      <point x="781.36" y="615.5600000000001" type="line"/>
      <point x="698.4" y="679.16"/>
      <point x="597.72" y="710.0"/>
      <point x="475.08000000000004" y="710.0" type="curve" smooth="yes"/>
      <point x="268.12" y="710.0"/>
      <point x="133.36" y="631.48"/>
      <point x="133.36" y="523.6800000000001" type="curve" smooth="yes"/>
      <point x="133.36" y="462.52"/>
      <point x="188.71999999999997" y="406.32"/>
      <point x="268.16" y="389.0" type="curve"/>
      <point x="123.44000000000001" y="380.84"/>
      <point x="28.400000000000006" y="320.47999999999996"/>
      <point x="28.400000000000006" y="213.28" type="curve" smooth="yes"/>
      <point x="28.400000000000006" y="70.56"/>
      <point x="170.96" y="-10.0"/>
    </contour>
    <contour>
      <point x="682.44" y="228.04" type="line"/>
      <point x="694.04" y="266.8"/>
      <point x="723.6800000000001" y="283.12"/>
      <point x="756.76" y="283.12" type="curve" smooth="yes"/>
      <point x="829.52" y="283.12"/>
      <point x="909.6800000000001" y="265.16"/>
      <point x="967.24" y="265.16" type="curve" smooth="yes"/>
      <point x="1060.9999999999998" y="265.16"/>
      <point x="1125.0399999999997" y="343.35999999999996"/>
      <point x="1125.0399999999997" y="462.79999999999995" type="curve"/>
      <point x="987.36" y="462.8" type="line"/>
      <point x="986.64" y="416.0"/>
      <point x="958.84" y="397.04"/>
      <point x="907.04" y="397.04" type="curve" smooth="yes"/>
      <point x="847.88" y="397.04"/>
      <point x="799.84" y="418.12"/>
      <point x="739.5600000000001" y="418.12" type="curve" smooth="yes"/>
      <point x="641.0" y="418.12"/>
      <point x="572.4" y="361.36"/>
      <point x="560.8000000000001" y="266.0" type="curve"/>
    </contour>
  </outline>
</glyph>
<glyph name="quotesingle" format="2">
  <advance width="274.74"/>
  <unicode hex="0027"/>
  <outline>
    <contour>
      <point x="68.44" y="427.0" type="line"/>
      <point x="252.57999999999998" y="427.0" type="line"/>
      <point x="304.74" y="700.0" type="line"/>
      <point x="104.0" y="700.0" type="line"/>
    </contour>
  </outline>
</glyph>
<glyph name="parenleft" format="2">
  <advance width="494.40000000000003"/>
  <unicode hex="0028"/>
  <outline>
    <contour>
      <point x="78.36" y="157.4" type="curve" smooth="yes"/>
      <point x="78.36" y="-31.960000000000004"/>
      <point x="161.88" y="-195.74"/>
      <point x="377.98" y="-220.0" type="curve"/>
      <point x="400.76" y="-79.88" type="line"/>
      <point x="304.98" y="-49.58"/>
      <point x="267.64" y="27.82"/>
      <point x="267.64" y="137.74" type="curve" smooth="yes"/>
      <point x="267.64" y="333.56000000000006"/>
      <point x="332.4" y="568.8599999999999"/>
      <point x="506.4800000000001" y="603.0" type="curve"/>
      <point x="529.26" y="750.0" type="line"/>
      <point x="221.54000000000002" y="744.16"/>
      <point x="78.36" y="452.90000000000003"/>
    </contour>
  </outline>
</glyph>
<glyph name="parenright" format="2">
  <advance width="494.40000000000003"/>
  <unicode hex="0029"/>
  <outline>
    <contour>
      <point x="412.17999999999995" y="372.32" type="curve" smooth="yes"/>
      <point x="412.17999999999995" y="566.8199999999999"/>
      <point x="328.38" y="725.74"/>
      <point x="112.14" y="750.0" type="curve"/>
      <point x="89.36" y="605.3000000000001" type="line"/>
      <point x="186.54000000000002" y="574.72"/>
      <point x="222.90000000000003" y="496.34000000000003"/>
      <point x="222.90000000000003" y="387.68" type="curve" smooth="yes"/>
      <point x="222.90000000000003" y="195.36"/>
      <point x="159.12" y="-37.74"/>
      <point x="-16.22" y="-72.72000000000001" type="curve"/>
      <point x="-38.99999999999999" y="-220.0" type="line"/>
      <point x="263.54" y="-208.26"/>
      <point x="412.17999999999995" y="78.56000000000002"/>
    </contour>
  </outline>
</glyph>
<glyph name="asterisk" format="2">
  <advance width="485.80000000000007"/>
  <unicode hex="002A"/>
  <outline>
    <contour>
      <point x="158.84" y="286.06" type="line"/>
      <point x="259.7" y="389.82" type="line"/>
      <point x="326.64" y="286.06" type="line"/>
      <point x="415.32" y="343.94" type="line"/>
      <point x="370.88" y="466.32000000000005" type="line"/>
      <point x="494.3599999999999" y="523.44" type="line"/>
      <point x="481.03999999999996" y="618.4200000000001" type="line"/>
      <point x="354.54" y="592.54" type="line"/>
      <point x="364.46" y="730.0" type="line"/>
      <point x="266.48" y="730.0" type="line"/>
      <point x="232.48000000000002" y="592.54" type="line"/>
      <point x="113.52000000000001" y="618.4200000000001" type="line"/>
      <point x="70.53999999999999" y="523.4399999999999" type="line"/>
      <point x="175.59999999999997" y="466.32000000000005" type="line"/>
      <point x="91.80000000000001" y="344.21999999999997" type="line"/>
    </contour>
  </outline>
</glyph>
<glyph name="plus" format="2">
  <advance width="709.8000000000001"/>
  <unicode hex="002B"/>
  <outline>
    <contour>
      <point x="222.88" y="84.89999999999999" type="line"/>
      <point x="424.06" y="84.89999999999999" type="line"/>
      <point x="445.73999999999995" y="224.96" type="line"/>
      <point x="640.0600000000001" y="224.96" type="line"/>
      <point x="669.72" y="403.78000000000003" type="line"/>
      <point x="475.4" y="403.78000000000003" type="line"/>
      <point x="498.08000000000004" y="542.98" type="line"/>
      <point x="298.62" y="542.98" type="line"/>
      <point x="274.22" y="403.78000000000003" type="line"/>
      <point x="82.48" y="403.78000000000003" type="line"/>
      <point x="52.82" y="224.96" type="line"/>
      <point x="246.28" y="224.96" type="line"/>
    </contour>
  </outline>
</glyph>
<glyph name="comma" format="2">
  <advance width="349.15999999999997"/>
  <unicode hex="002C"/>
  <outline>
    <contour>
      <point x="43.660000000000004" y="99.38" type="line"/>
      <point x="43.36" y="78.5"/>
      <point x="40.2" y="56.62"/>
      <point x="36.760000000000005" y="35.6" type="curve" smooth="yes"/>
      <point x="24.720000000000002" y="-37.58"/>
      <point x="-5.079999999999999" y="-113.28"/>
      <point x="-67.47999999999999" y="-177.83999999999997" type="curve"/>
      <point x="113.96" y="-200.0" type="line"/>
      <point x="197.96" y="-130.0"/>
      <point x="265.02" y="-36.72"/>
      <point x="265.02" y="67.54" type="curve" smooth="yes"/>
      <point x="265.02" y="79.38"/>
      <point x="263.74" y="91.08"/>
      <point x="260.46" y="101.5" type="curve"/>
    </contour>
  </outline>
</glyph>
<glyph name="hyphen" format="2">
  <advance width="453.9200000000001"/>
  <unicode hex="002D"/>
  <outline>
    <contour>
      <point x="45.459999999999994" y="219.74" type="line"/>
      <point x="389.55999999999995" y="219.74" type="line"/>
      <point x="419.21999999999997" y="401.28" type="line"/>
      <point x="75.11999999999999" y="401.28" type="line"/>
    </contour>
  </outline>
</glyph>
<glyph name="period" format="2">
  <advance width="360.34"/>
  <unicode hex="002E"/>
  <outline>
    <contour>
      <point x="17.18" y="69.34" type="curve" smooth="yes"/>
      <point x="17.04" y="17.34"/>
      <point x="50.28" y="-8.6"/>
      <point x="134.24" y="-8.6" type="curve" smooth="yes"/>
      <point x="223.62" y="-8.6"/>
      <point x="283.1" y="22.499999999999993"/>
      <point x="283.52" y="115.16" type="curve" smooth="yes"/>
      <point x="283.65999999999997" y="167.16"/>
      <point x="250.42000000000002" y="193.1"/>
      <point x="167.32" y="193.1" type="curve" smooth="yes"/>
      <point x="73.64" y="193.1"/>
      <point x="17.6" y="157.7"/>
    </contour>
  </outline>
</glyph>
<glyph name="slash" format="2">
  <advance width="582.78"/>
  <unicode hex="002F"/>
  <outline>
    <contour>
      <point x="-67.0" y="-210.0" type="line"/>
      <point x="122.7" y="-210.0" type="line"/>
      <point x="646.78" y="740.0" type="line"/>
      <point x="456.22" y="740.0" type="line"/>
    </contour>
  </outline>
</glyph>
<glyph name="zero" format="2">
  <advance width="1047.7600000000002"/>
  <unicode hex="0030"/>
  <outline>
    <contour>
      <point x="524.04" y="-10.0" type="curve" smooth="yes"/>
      <point x="784.52" y="-10.0"/>
      <point x="992.1999999999998" y="102.48000000000002"/>
      <point x="992.1999999999998" y="373.4" type="curve" smooth="yes"/>
      <point x="992.1999999999998" y="597.88"/>
      <point x="819.1600000000001" y="710.0"/>
      <point x="546.7199999999999" y="710.0" type="curve" smooth="yes"/>
      <point x="285.24" y="710.0"/>
      <point x="78.84" y="600.52"/>
      <point x="78.84" y="328.88" type="curve" smooth="yes"/>
      <point x="78.84" y="105.12000000000002"/>
      <point x="252.16000000000003" y="-10.0"/>
    </contour>
    <contour>
      <point x="528.4799999999999" y="152.48000000000002" type="curve" smooth="yes"/>
      <point x="425.55999999999995" y="152.48000000000002"/>
      <point x="344.8" y="199.35999999999999"/>
      <point x="344.79999999999995" y="323.5199999999999" type="curve" smooth="yes"/>
      <point x="344.79999999999995" y="456.44000000000005"/>
      <point x="411.2" y="549.68"/>
      <point x="542.5600000000001" y="549.68" type="curve" smooth="yes"/>
      <point x="644.76" y="549.68"/>
      <point x="726.24" y="503.07999999999987"/>
      <point x="726.24" y="379.64" type="curve" smooth="yes"/>
      <point x="726.24" y="246.27999999999997"/>
      <point x="660.28" y="152.48000000000002"/>
    </contour>
  </outline>
</glyph>
<glyph name="one" format="2">
  <advance width="1047.76"/>
  <unicode hex="0031"/>
  <outline>
    <contour>
      <point x="157.92000000000002" y="0.0" type="line"/>
      <point x="889.0600000000001" y="0.0" type="line"/>
      <point x="917.86" y="174.65999999999997" type="line"/>
      <point x="690.5799999999999" y="174.65999999999997" type="line"/>
      <point x="776.5" y="701.4" type="line"/>
      <point x="651.98" y="701.4" type="line"/>
      <point x="202.68" y="535.12" type="line"/>
      <point x="237.64000000000001" y="358.02" type="line"/>
      <point x="477.58000000000004" y="448.5" type="line"/>
      <point x="436.0799999999999" y="174.65999999999997" type="line"/>
      <point x="186.72" y="174.65999999999997" type="line"/>
    </contour>
  </outline>
</glyph>
<glyph name="two" format="2">
  <advance width="1047.7600000000002"/>
  <unicode hex="0032"/>
  <outline>
    <contour>
      <point x="89.75999999999999" y="129.79999999999998" type="curve"/>
      <point x="71.84" y="0.0" type="line"/>
      <point x="904.1999999999999" y="0.0" type="line"/>
      <point x="934.44" y="174.79999999999998" type="line"/>
      <point x="552.48" y="174.79999999999998" type="line"/>
      <point x="756.4" y="270.84000000000003"/>
      <point x="880.5200000000001" y="355.84"/>
      <point x="880.5200000000001" y="497.84" type="curve" smooth="yes"/>
      <point x="880.5200000000001" y="637.84"/>
      <point x="735.28" y="710.0"/>
      <point x="551.76" y="710.0" type="curve" smooth="yes"/>
      <point x="424.6" y="710.0"/>
      <point x="263.8" y="673.68"/>
      <point x="161.56" y="623.6400000000001" type="curve"/>
      <point x="195.08" y="446.40000000000003" type="line"/>
      <point x="294.72" y="484.12"/>
      <point x="390.75999999999993" y="513.4"/>
      <point x="481.64000000000004" y="513.4" type="curve" smooth="yes"/>
      <point x="568.96" y="513.4"/>
      <point x="607.36" y="482.19999999999993"/>
      <point x="607.36" y="432.2000000000001" type="curve" smooth="yes"/>
      <point x="607.36" y="323.76"/>
      <point x="411.64000000000004" y="241.32"/>
    </contour>
  </outline>
</glyph>
<glyph name="three" format="2">
  <advance width="1047.76"/>
  <unicode hex="0033"/>
  <outline>
    <contour>
      <point x="49.08" y="49.16" type="line"/>
      <point x="161.48000000000002" y="5.079999999999997"/>
      <point x="298.04" y="-9.280000000000001"/>
      <point x="439.88" y="-9.280000000000001" type="curve" smooth="yes"/>
      <point x="630.96" y="-9.280000000000001"/>
      <point x="925.3599999999999" y="26.680000000000007"/>
      <point x="925.3599999999999" y="239.79999999999998" type="curve" smooth="yes"/>
      <point x="925.3599999999999" y="307.71999999999997"/>
      <point x="883.6400000000001" y="355.88000000000005"/>
      <point x="788.64" y="377.47999999999996" type="curve"/>
      <point x="878.88" y="395.64000000000004"/>
      <point x="949.08" y="457.48"/>
      <point x="949.08" y="548.0" type="curve" smooth="yes"/>
      <point x="949.08" y="647.12"/>
      <point x="832.24" y="710.0"/>
      <point x="562.96" y="710.0" type="curve" smooth="yes"/>
      <point x="404.32" y="710.0"/>
      <point x="247.56" y="690.16"/>
      <point x="172.44" y="665.92" type="curve"/>
      <point x="178.32000000000002" y="494.2800000000001" type="line"/>
      <point x="280.8" y="517.9599999999999"/>
      <point x="398.16" y="532.36"/>
      <point x="494.6" y="532.36" type="curve" smooth="yes"/>
      <point x="614.72" y="532.36"/>
      <point x="693.1999999999999" y="518.32"/>
      <point x="693.1999999999999" y="484.52" type="curve" smooth="yes"/>
      <point x="693.1999999999999" y="446.44000000000005"/>
      <point x="641.1999999999999" y="432.59999999999997"/>
      <point x="498.9599999999999" y="432.59999999999997" type="curve" smooth="yes"/>
      <point x="302.24000000000007" y="432.59999999999997" type="line"/>
      <point x="275.88000000000005" y="274.6" type="line"/>
      <point x="523.9200000000001" y="274.6" type="line" smooth="yes"/>
      <point x="637.16" y="274.6"/>
      <point x="671.92" y="258.72"/>
      <point x="671.92" y="228.52" type="curve" smooth="yes"/>
      <point x="671.92" y="185.64000000000001"/>
      <point x="607.16" y="167.36"/>
      <point x="459.2" y="167.36" type="curve" smooth="yes"/>
      <point x="330.56" y="167.36"/>
      <point x="195.83999999999997" y="188.91999999999996"/>
      <point x="116.12" y="215.35999999999999" type="curve"/>
    </contour>
  </outline>
</glyph>
<glyph name="four" format="2">
  <advance width="1047.76"/>
  <unicode hex="0034"/>
  <outline>
    <contour>
      <point x="34.32000000000001" y="104.52000000000001" type="line"/>
      <point x="543.8" y="104.52000000000001" type="line"/>
      <point x="527.0000000000001" y="-1.1200000000000006" type="line"/>
      <point x="783.0799999999999" y="-1.1200000000000006" type="line"/>
      <point x="799.88" y="104.52000000000001" type="line"/>
      <point x="943.52" y="104.52000000000001" type="line"/>
      <point x="968.88" y="261.12" type="line"/>
      <point x="825.24" y="261.12" type="line"/>
      <point x="897.52" y="699.16" type="line"/>
      <point x="748.1999999999999" y="700.56" type="line"/>
      <point x="53.239999999999995" y="228.16" type="line"/>
    </contour>
    <contour>
      <point x="341.0799999999999" y="261.12" type="line"/>
      <point x="597.1600000000001" y="429.0400000000001" type="line"/>
      <point x="569.8799999999999" y="261.12" type="line"/>
    </contour>
  </outline>
</glyph>
<glyph name="five" format="2">
  <advance width="1047.76"/>
  <unicode hex="0035"/>
  <outline>
    <contour>
      <point x="58.44" y="48.43999999999999" type="line"/>
      <point x="171.68" y="4.640000000000001"/>
      <point x="301.88" y="-10.0"/>
      <point x="449.36" y="-10.0" type="curve" smooth="yes"/>
      <point x="796.64" y="-10.0"/>
      <point x="931.2400000000001" y="87.56"/>
      <point x="931.2400000000001" y="255.44" type="curve" smooth="yes"/>
      <point x="931.2400000000001" y="384.96"/>
      <point x="838.4" y="438.79999999999995"/>
      <point x="605.04" y="438.8" type="curve" smooth="yes"/>
      <point x="388.12" y="438.79999999999995" type="line"/>
      <point x="411.76" y="516.8800000000001" type="line"/>
      <point x="913.6000000000003" y="516.8800000000001" type="line"/>
      <point x="945.1199999999999" y="700.0" type="line"/>
      <point x="282.12" y="700.0" type="line"/>
      <point x="151.16" y="291.64" type="line"/>
      <point x="159.88" y="284.35999999999996" type="line"/>
      <point x="520.5200000000001" y="284.35999999999996" type="line" smooth="yes"/>
      <point x="661.0" y="284.35999999999996"/>
      <point x="686.0400000000001" y="264.08000000000004"/>
      <point x="686.0400000000001" y="233.24" type="curve" smooth="yes"/>
      <point x="686.0400000000001" y="188.31999999999996"/>
      <point x="615.6400000000001" y="167.24"/>
      <point x="468.84" y="167.24" type="curve" smooth="yes"/>
      <point x="337.40000000000003" y="167.24"/>
      <point x="205.32" y="185.6"/>
      <point x="126.92" y="210.92" type="curve"/>
    </contour>
  </outline>
</glyph>
<glyph name="six" format="2">
  <advance width="1047.7600000000002"/>
  <unicode hex="0036"/>
  <note>
14
</note>
  <outline>
    <contour>
      <point x="499.0000000000001" y="-10.0" type="curve" smooth="yes"/>
      <point x="721.76" y="-10.0"/>
      <point x="966.32" y="22.679999999999986"/>
      <point x="966.32" y="247.19999999999993" type="curve" smooth="yes"/>
      <point x="966.32" y="368.28000000000003"/>
      <point x="853.48" y="445.68"/>
      <point x="630.9200000000001" y="445.68" type="curve" smooth="yes"/>
      <point x="520.52" y="445.68"/>
      <point x="396.88" y="429.48"/>
      <point x="307.28000000000003" y="391.0" type="curve"/>
      <point x="295.96" y="251.68" type="line"/>
      <point x="356.2" y="274.52"/>
      <point x="451.04" y="290.55999999999995"/>
      <point x="539.4000000000001" y="290.55999999999995" type="curve" smooth="yes"/>
      <point x="673.0799999999999" y="290.55999999999995"/>
      <point x="710.4000000000001" y="271.0"/>
      <point x="710.4000000000001" y="233.28" type="curve" smooth="yes"/>
      <point x="710.4000000000001" y="187.04000000000002"/>
      <point x="655.72" y="162.07999999999998"/>
      <point x="538.5199999999999" y="162.07999999999998" type="curve" smooth="yes"/>
      <point x="404.96" y="162.07999999999998"/>
      <point x="315.44" y="198.64000000000001"/>
      <point x="315.44" y="304.79999999999995" type="curve" smooth="yes"/>
      <point x="315.44" y="391.76"/>
      <point x="358.96" y="453.88"/>
      <point x="431.56" y="491.48" type="curve" smooth="yes"/>
      <point x="488.76000000000005" y="520.68"/>
      <point x="571.12" y="534.9199999999998"/>
      <point x="657.24" y="534.9199999999998" type="curve" smooth="yes"/>
      <point x="766.48" y="534.9199999999998"/>
      <point x="843.24" y="524.3599999999999"/>
      <point x="932.6" y="503.40000000000003" type="curve"/>
      <point x="993.9200000000001" y="668.44" type="line"/>
      <point x="922.04" y="691.5600000000001"/>
      <point x="802.3199999999999" y="710.0"/>
      <point x="661.24" y="710.0" type="curve" smooth="yes"/>
      <point x="328.52" y="710.0"/>
      <point x="76.32" y="567.92"/>
      <point x="76.32" y="290.59999999999997" type="curve" smooth="yes"/>
      <point x="76.32" y="74.52"/>
      <point x="240.15999999999994" y="-10.0"/>
    </contour>
  </outline>
</glyph>
<glyph name="seven" format="2">
  <advance width="1047.76"/>
  <unicode hex="0037"/>
  <note>
9
</note>
  <outline>
    <contour>
      <point x="233.52" y="0.0" type="curve"/>
      <point x="495.6" y="0.0" type="line"/>
      <point x="519.88" y="108.52000000000001"/>
      <point x="590.4" y="202.55999999999997"/>
      <point x="751.12" y="352.71999999999997" type="curve" smooth="yes"/>
      <point x="961.52" y="547.8399999999999" type="line"/>
      <point x="986.1600000000001" y="700.0" type="line"/>
      <point x="182.35999999999999" y="700.0" type="line"/>
      <point x="152.84" y="515.76" type="line"/>
      <point x="654.3199999999999" y="515.76" type="line"/>
      <point x="469.52" y="349.96" type="line" smooth="yes"/>
      <point x="321.56000000000006" y="216.28"/>
      <point x="254.64000000000001" y="125.39999999999999"/>
    </contour>
  </outline>
</glyph>
<glyph name="eight" format="2">
  <advance width="1047.7600000000002"/>
  <unicode hex="0038"/>
  <outline>
    <contour>
      <point x="492.4800000000001" y="-10.0" type="curve" smooth="yes"/>
      <point x="753.9599999999999" y="-10.0"/>
      <point x="976.1199999999999" y="26.999999999999996"/>
      <point x="976.1199999999999" y="231.36" type="curve" smooth="yes"/>
      <point x="976.1199999999999" y="480.9599999999999"/>
      <point x="384.8" y="400.12"/>
      <point x="384.8" y="495.04" type="curve" smooth="yes"/>
      <point x="384.8" y="526.84"/>
      <point x="422.04" y="551.68"/>
      <point x="554.52" y="551.68" type="curve" smooth="yes"/>
      <point x="669.08" y="551.68"/>
      <point x="725.8" y="532.36"/>
      <point x="725.8" y="494.84" type="curve" smooth="yes"/>
      <point x="725.8" y="460.92"/>
      <point x="703.52" y="437.84000000000003"/>
      <point x="630.4399999999999" y="411.04" type="curve"/>
      <point x="811.24" y="364.04" type="line"/>
      <point x="891.4000000000001" y="390.72"/>
      <point x="951.2" y="449.04"/>
      <point x="951.2" y="530.24" type="curve" smooth="yes"/>
      <point x="951.2" y="642.4000000000001"/>
      <point x="831.72" y="710.0"/>
      <point x="569.2800000000001" y="710.0" type="curve" smooth="yes"/>
      <point x="338.8" y="710.0"/>
      <point x="149.8" y="658.08"/>
      <point x="149.8" y="469.96000000000004" type="curve" smooth="yes"/>
      <point x="149.8" y="192.8"/>
      <point x="705.2800000000001" y="295.84"/>
      <point x="705.2800000000001" y="195.23999999999998" type="curve" smooth="yes"/>
      <point x="705.2800000000001" y="148.64000000000001"/>
      <point x="628.0" y="136.28"/>
      <point x="511.4" y="136.28" type="curve" smooth="yes"/>
      <point x="361.08000000000004" y="136.28"/>
      <point x="305.12" y="162.6"/>
      <point x="305.12" y="207.79999999999998" type="curve" smooth="yes"/>
      <point x="305.12" y="246.4"/>
      <point x="333.47999999999996" y="275.0"/>
      <point x="417.72" y="292.08000000000004" type="curve"/>
      <point x="240.68000000000004" y="359.99999999999994" type="line"/>
      <point x="126.71999999999997" y="345.35999999999996"/>
      <point x="51.19999999999999" y="276.47999999999996"/>
      <point x="51.19999999999999" y="190.04" type="curve" smooth="yes"/>
      <point x="51.19999999999999" y="60.88"/>
      <point x="182.68" y="-10.0"/>
    </contour>
  </outline>
</glyph>
<glyph name="nine" format="2">
  <advance width="1047.7600000000002"/>
  <unicode hex="0039"/>
  <outline>
    <contour>
      <point x="563.32" y="710.0" type="curve" smooth="yes"/>
      <point x="252.68" y="710.0"/>
      <point x="103.2" y="626.04"/>
      <point x="103.2" y="450.84000000000003" type="curve" smooth="yes"/>
      <point x="103.2" y="329.75999999999993"/>
      <point x="216.03999999999996" y="254.32"/>
      <point x="438.6" y="254.32" type="curve" smooth="yes"/>
      <point x="549.0" y="254.32"/>
      <point x="672.64" y="270.52"/>
      <point x="762.24" y="309.0" type="curve"/>
      <point x="773.56" y="448.32" type="line"/>
      <point x="713.32" y="425.48"/>
      <point x="618.48" y="409.44000000000005"/>
      <point x="530.12" y="409.44000000000005" type="curve" smooth="yes"/>
      <point x="396.44" y="409.44000000000005"/>
      <point x="359.12" y="429.0"/>
      <point x="359.12" y="466.72" type="curve" smooth="yes"/>
      <point x="359.12" y="512.96"/>
      <point x="413.79999999999995" y="537.92"/>
      <point x="531.0" y="537.92" type="curve" smooth="yes"/>
      <point x="664.56" y="537.92"/>
      <point x="754.0799999999999" y="501.36"/>
      <point x="754.0799999999999" y="395.2" type="curve" smooth="yes"/>
      <point x="754.0799999999999" y="308.24"/>
      <point x="710.56" y="246.12"/>
      <point x="637.9599999999999" y="208.51999999999998" type="curve" smooth="yes"/>
      <point x="580.7600000000001" y="179.32"/>
      <point x="498.4" y="165.07999999999998"/>
      <point x="412.28000000000003" y="165.07999999999998" type="curve" smooth="yes"/>
      <point x="303.03999999999996" y="165.07999999999998"/>
      <point x="226.27999999999997" y="175.64"/>
      <point x="136.92000000000002" y="196.6" type="curve"/>
      <point x="75.60000000000001" y="31.559999999999995" type="line"/>
      <point x="147.48" y="8.440000000000003"/>
      <point x="267.2" y="-10.0"/>
      <point x="408.28000000000003" y="-10.0" type="curve" smooth="yes"/>
      <point x="741.0" y="-10.0"/>
      <point x="993.2" y="132.07999999999998"/>
      <point x="993.2" y="402.2" type="curve" smooth="yes"/>
      <point x="993.2" y="603.08"/>
      <point x="843.24" y="710.0"/>
    </contour>
  </outline>
</glyph>
<glyph name="less" format="2">
  <advance width="709.94"/>
  <unicode hex="003C"/>
  <outline>
    <contour>
      <point x="607.9200000000001" y="27.720000000000006" type="line"/>
      <point x="637.5799999999999" y="213.84" type="line"/>
      <point x="268.18" y="313.94" type="line"/>
      <point x="671.34" y="413.18" type="line"/>
      <point x="701.0" y="601.16" type="line"/>
      <point x="82.48" y="415.1" type="line"/>
      <point x="51.96" y="223.1" type="line"/>
    </contour>
  </outline>
</glyph>
<glyph name="equal" format="2">
  <advance width="710.6600000000001"/>
  <unicode hex="003D"/>
  <outline>
    <contour>
      <point x="650.28" y="281.28000000000003" type="line"/>
      <point x="63.040000000000006" y="281.28000000000003" type="line"/>
      <point x="33.38" y="102.46000000000001" type="line"/>
      <point x="620.62" y="102.46000000000001" type="line"/>
    </contour>
    <contour>
      <point x="690.02" y="526.7" type="line"/>
      <point x="101.92" y="526.7" type="line"/>
      <point x="73.12" y="347.88" type="line"/>
      <point x="660.36" y="347.88" type="line"/>
    </contour>
  </outline>
</glyph>
<glyph name="greater" format="2">
  <advance width="709.94"/>
  <unicode hex="003E"/>
  <outline>
    <contour>
      <point x="640.9200000000001" y="223.10000000000002" type="line"/>
      <point x="669.72" y="402.2" type="line"/>
      <point x="115.47999999999999" y="592.5600000000001" type="line"/>
      <point x="84.10000000000001" y="413.32" type="line"/>
      <point x="454.36" y="313.94" type="line"/>
      <point x="52.06" y="213.98000000000002" type="line"/>
      <point x="21.540000000000003" y="27.720000000000006" type="line"/>
    </contour>
  </outline>
</glyph>
<glyph name="question" format="2">
  <advance width="682.7800000000001"/>
  <unicode hex="003F"/>
  <outline>
    <contour>
      <point x="212.74000000000004" y="259.41999999999996" type="line"/>
      <point x="412.92" y="259.41999999999996" type="line"/>
      <point x="423.06" y="306.36" type="line"/>
      <point x="580.7199999999999" y="346.44"/>
      <point x="704.5799999999999" y="403.74"/>
      <point x="704.5799999999999" y="558.6400000000001" type="curve" smooth="yes"/>
      <point x="704.5799999999999" y="697.14"/>
      <point x="566.5600000000001" y="750.0"/>
      <point x="419.06" y="750.0" type="curve" smooth="yes"/>
      <point x="305.58" y="750.0"/>
      <point x="165.68" y="720.14"/>
      <point x="75.0" y="669.5799999999999" type="curve"/>
      <point x="100.92" y="501.64000000000004" type="line"/>
      <point x="190.45999999999998" y="541.04"/>
      <point x="272.76000000000005" y="562.86"/>
      <point x="357.94" y="562.86" type="curve" smooth="yes"/>
      <point x="414.62" y="562.86"/>
      <point x="452.34000000000003" y="553.44"/>
      <point x="452.34000000000003" y="516.3600000000001" type="curve" smooth="yes"/>
      <point x="452.34000000000003" y="479.16"/>
      <point x="428.62000000000006" y="457.91999999999996"/>
      <point x="233.2" y="422.26" type="curve"/>
    </contour>
    <contour>
      <point x="153.82" y="69.06" type="curve" smooth="yes"/>
      <point x="153.96" y="17.2"/>
      <point x="187.06" y="-8.6"/>
      <point x="270.88" y="-8.6" type="curve" smooth="yes"/>
      <point x="360.12" y="-8.6"/>
      <point x="420.72" y="22.5"/>
      <point x="420.3" y="115.29999999999998" type="curve" smooth="yes"/>
      <point x="420.16" y="167.16"/>
      <point x="386.91999999999996" y="192.95999999999998"/>
      <point x="304.1" y="192.95999999999998" type="curve" smooth="yes"/>
      <point x="210.7" y="192.95999999999998"/>
      <point x="153.4" y="157.84"/>
    </contour>
  </outline>
</glyph>
<glyph name="at" format="2">
  <advance width="1030.7600000000002"/>
  <unicode hex="0040"/>
  <outline>
    <contour>
      <point x="426.72" y="-121.72" type="curve" smooth="yes"/>
      <point x="504.63999999999993" y="-121.72"/>
      <point x="573.28" y="-110.76"/>
      <point x="652.96" y="-86.24000000000001" type="curve"/>
      <point x="642.24" y="3.9199999999999986" type="line"/>
      <point x="566.0" y="-15.88"/>
      <point x="494.68000000000006" y="-24.279999999999994"/>
      <point x="436.88" y="-24.279999999999994" type="curve" smooth="yes"/>
      <point x="248.8" y="-24.279999999999994"/>
      <point x="140.15999999999997" y="71.35999999999999"/>
      <point x="140.15999999999997" y="224.83999999999997" type="curve" smooth="yes"/>
      <point x="140.15999999999997" y="447.16"/>
      <point x="329.52" y="617.64"/>
      <point x="575.6800000000001" y="617.64" type="curve" smooth="yes"/>
      <point x="788.36" y="617.64"/>
      <point x="900.44" y="528.4399999999999"/>
      <point x="900.44" y="358.03999999999996" type="curve" smooth="yes"/>
      <point x="900.44" y="244.56000000000003"/>
      <point x="862.7600000000002" y="163.99999999999997"/>
      <point x="786.5199999999999" y="163.99999999999997" type="curve" smooth="yes"/>
      <point x="751.8799999999999" y="163.99999999999997"/>
      <point x="737.88" y="190.64"/>
      <point x="749.0" y="242.24" type="curve" smooth="yes"/>
      <point x="801.28" y="477.88" type="line"/>
      <point x="734.72" y="502.6"/>
      <point x="638.4000000000001" y="520.04"/>
      <point x="573.52" y="520.04" type="curve" smooth="yes"/>
      <point x="377.72" y="520.04"/>
      <point x="239.36" y="396.36"/>
      <point x="239.36" y="238.00000000000003" type="curve" smooth="yes"/>
      <point x="239.36" y="125.44"/>
      <point x="302.92" y="69.32000000000001"/>
      <point x="409.1600000000001" y="69.32000000000001" type="curve" smooth="yes"/>
      <point x="490.23999999999995" y="69.32000000000001"/>
      <point x="563.72" y="110.83999999999997"/>
      <point x="603.4" y="163.36" type="curve"/>
      <point x="616.44" y="91.71999999999998"/>
      <point x="678.5999999999999" y="59.15999999999999"/>
      <point x="751.3199999999999" y="59.15999999999999" type="curve" smooth="yes"/>
      <point x="920.9599999999998" y="59.15999999999999"/>
      <point x="1008.7600000000002" y="188.48000000000002"/>
      <point x="1008.7600000000002" y="364.2" type="curve" smooth="yes"/>
      <point x="1008.7600000000002" y="581.0799999999999"/>
      <point x="853.4800000000001" y="713.36"/>
      <point x="598.4399999999999" y="713.36" type="curve" smooth="yes"/>
      <point x="268.55999999999995" y="713.36"/>
      <point x="29.4" y="504.52000000000004"/>
      <point x="29.4" y="217.11999999999995" type="curve" smooth="yes"/>
      <point x="29.4" y="10.280000000000001"/>
      <point x="184.56000000000003" y="-121.72"/>
    </contour>
    <contour>
      <point x="488.84000000000003" y="194.04000000000002" type="curve" smooth="yes"/>
      <point x="438.24" y="194.04000000000002"/>
      <point x="413.15999999999997" y="220.56000000000003"/>
      <point x="413.15999999999997" y="268.03999999999996" type="curve" smooth="yes"/>
      <point x="413.15999999999997" y="344.16"/>
      <point x="468.56000000000006" y="399.32000000000005"/>
      <point x="543.64" y="399.32000000000005" type="curve" smooth="yes"/>
      <point x="579.88" y="399.32000000000005"/>
      <point x="599.68" y="396.03999999999996"/>
      <point x="625.76" y="386.2" type="curve"/>
      <point x="596.5200000000001" y="263.44" type="line" smooth="yes"/>
      <point x="578.72" y="223.24"/>
      <point x="533.28" y="194.04000000000002"/>
    </contour>
  </outline>
</glyph>
<glyph name="A" format="2">
  <advance width="1021.18"/>
  <unicode hex="0041"/>
  <anchor x="467.10400000000004" y="0.0" name="bottom"/>
  <anchor x="973.5" y="0.0" name="ogonek"/>
  <anchor x="583.8199999999999" y="700.0" name="top"/>
  <outline>
    <contour>
      <point x="-40.32000000000001" y="0.0" type="line"/>
      <point x="252.0" y="0.0" type="line"/>
      <point x="319.24" y="117.94" type="line"/>
      <point x="651.68" y="117.94" type="line"/>
      <point x="684.76" y="0.0" type="line"/>
      <point x="973.5" y="0.0" type="line"/>
      <point x="714.38" y="710.0" type="line"/>
      <point x="447.24" y="710.0" type="line"/>
    </contour>
    <contour>
      <point x="415.79999999999995" y="284.0" type="line"/>
      <point x="550.86" y="503.26" type="line"/>
      <point x="612.72" y="284.0" type="line"/>
    </contour>
  </outline>
</glyph>
<glyph name="B" format="2">
  <advance width="1005.92"/>
  <unicode hex="0042"/>
  <outline>
    <contour>
      <point x="38.239999999999995" y="5.0" type="line"/>
      <point x="222.72000000000003" y="-4.56"/>
      <point x="346.32" y="-10.0"/>
      <point x="490.47999999999996" y="-10.0" type="curve" smooth="yes"/>
      <point x="695.72" y="-10.0"/>
      <point x="979.1199999999999" y="-8.159999999999993"/>
      <point x="979.1199999999999" y="234.92" type="curve" smooth="yes"/>
      <point x="979.1199999999999" y="314.59999999999997"/>
      <point x="920.04" y="375.47999999999996"/>
      <point x="804.96" y="388.64" type="curve"/>
      <point x="896.76" y="417.96"/>
      <point x="975.4" y="462.0"/>
      <point x="975.4" y="571.16" type="curve" smooth="yes"/>
      <point x="975.4" y="670.52"/>
      <point x="871.8399999999999" y="710.0"/>
      <point x="584.6" y="710.0" type="curve" smooth="yes"/>
      <point x="483.4" y="710.0"/>
      <point x="351.12" y="706.0"/>
      <point x="151.67999999999998" y="695.0" type="curve"/>
    </contour>
    <contour>
      <point x="368.35999999999996" y="426.16" type="line"/>
      <point x="383.4" y="523.92" type="line"/>
      <point x="455.96" y="527.48"/>
      <point x="478.0799999999999" y="529.6"/>
      <point x="540.76" y="529.6" type="curve" smooth="yes"/>
      <point x="670.8" y="529.6"/>
      <point x="705.9999999999999" y="517.8399999999999"/>
      <point x="705.9999999999999" y="482.8" type="curve" smooth="yes"/>
      <point x="705.9999999999999" y="433.48"/>
      <point x="637.2800000000001" y="426.16"/>
      <point x="602.76" y="426.16" type="curve" smooth="yes"/>
    </contour>
    <contour>
      <point x="342.0" y="274.56" type="line"/>
      <point x="572.2400000000001" y="274.56" type="line" smooth="yes"/>
      <point x="666.5200000000001" y="274.56"/>
      <point x="703.8399999999999" y="263.04"/>
      <point x="703.8399999999999" y="229.48" type="curve" smooth="yes"/>
      <point x="703.8399999999999" y="166.04"/>
      <point x="629.76" y="163.07999999999998"/>
      <point x="475.76000000000005" y="163.07999999999998" type="curve" smooth="yes"/>
      <point x="435.84" y="163.07999999999998"/>
      <point x="373.35999999999996" y="165.92"/>
      <point x="325.12" y="168.48000000000002" type="curve"/>
    </contour>
  </outline>
</glyph>
<glyph name="C" format="2">
  <advance width="991.2399999999999"/>
  <unicode hex="0043"/>
  <anchor x="522.76" y="0.0" name="bottom"/>
  <anchor x="615.3199999999999" y="700.0" name="top"/>
  <outline>
    <contour>
      <point x="569.7199999999999" y="-10.0" type="curve" smooth="yes"/>
      <point x="686.08" y="-10.0"/>
      <point x="791.7599999999999" y="3.56"/>
      <point x="916.16" y="29.959999999999997" type="curve"/>
      <point x="894.6800000000001" y="212.79999999999998" type="line"/>
      <point x="795.36" y="195.55999999999995"/>
      <point x="709.6" y="179.28"/>
      <point x="603.68" y="179.28" type="curve" smooth="yes"/>
      <point x="423.59999999999997" y="179.28"/>
      <point x="326.28" y="214.32"/>
      <point x="326.28" y="331.64" type="curve" smooth="yes"/>
      <point x="326.28" y="460.71999999999997"/>
      <point x="423.24" y="520.72"/>
      <point x="598.44" y="520.72" type="curve" smooth="yes"/>
      <point x="707.68" y="520.72"/>
      <point x="835.0799999999999" y="495.68000000000006"/>
      <point x="918.12" y="474.0" type="curve"/>
      <point x="971.56" y="653.68" type="line"/>
      <point x="838.8000000000001" y="698.0"/>
      <point x="708.96" y="710.0"/>
      <point x="577.36" y="710.0" type="curve" smooth="yes"/>
      <point x="250.99999999999994" y="710.0"/>
      <point x="55.16000000000001" y="565.5999999999999"/>
      <point x="55.16000000000001" y="307.55999999999995" type="curve" smooth="yes"/>
      <point x="55.16000000000001" y="81.64"/>
      <point x="225.56" y="-10.0"/>
    </contour>
  </outline>
</glyph>
<glyph name="D" format="2">
  <advance width="1080.88"/>
  <unicode hex="0044"/>
  <anchor x="486.36" y="0.0" name="bottom"/>
  <anchor x="550.5928799999999" y="350.0" name="center"/>
  <anchor x="534.3199999999999" y="700.0" name="top"/>
  <outline>
    <contour>
      <point x="487.44" y="-10.0" type="curve" smooth="yes"/>
      <point x="843.5999999999999" y="-10.0"/>
      <point x="1047.72" y="117.64"/>
      <point x="1047.72" y="381.6" type="curve" smooth="yes"/>
      <point x="1047.72" y="604.36"/>
      <point x="887.64" y="710.0"/>
      <point x="542.24" y="710.0" type="curve" smooth="yes"/>
      <point x="428.96" y="710.0"/>
      <point x="302.28000000000003" y="707.0"/>
      <point x="151.67999999999998" y="700.0" type="curve"/>
      <point x="37.239999999999995" y="0.0" type="line"/>
      <point x="172.56" y="-6.5600000000000005"/>
      <point x="291.4" y="-10.0"/>
    </contour>
    <contour>
      <point x="510.68" y="159.64" type="curve" smooth="yes"/>
      <point x="428.96" y="159.64"/>
      <point x="391.28" y="162.35999999999999"/>
      <point x="324.84000000000003" y="165.2" type="curve"/>
      <point x="385.12" y="536.52" type="line"/>
      <point x="425.47999999999996" y="539.8"/>
      <point x="479.24" y="541.36"/>
      <point x="555.0" y="541.36" type="curve" smooth="yes"/>
      <point x="694.6" y="541.36"/>
      <point x="780.04" y="483.16"/>
      <point x="780.04" y="368.56" type="curve" smooth="yes"/>
      <point x="780.04" y="231.67999999999995"/>
      <point x="680.64" y="159.64"/>
    </contour>
  </outline>
</glyph>
<glyph name="E" format="2">
  <advance width="960.3599999999999"/>
  <unicode hex="0045"/>
  <anchor x="455.03999999999996" y="0.0" name="bottom"/>
  <anchor x="872.8399999999999" y="0.0" name="ogonek"/>
  <anchor x="549.6" y="700.0" name="top"/>
  <anchor x="91.42536000000001" y="700.0" name="topleft"/>
  <outline>
    <contour>
      <point x="37.239999999999995" y="0.0" type="line"/>
      <point x="872.8399999999999" y="0.0" type="line"/>
      <point x="903.1999999999999" y="182.59999999999997" type="line"/>
      <point x="321.67999999999995" y="182.59999999999997" type="line"/>
      <point x="336.0" y="272.76" type="line"/>
      <point x="860.24" y="272.76" type="line"/>
      <point x="887.4399999999999" y="436.23999999999995" type="line"/>
      <point x="362.9200000000001" y="436.23999999999995" type="line"/>
      <point x="376.12" y="517.4" type="line"/>
      <point x="929.92" y="517.4" type="line"/>
      <point x="960.28" y="700.0" type="line"/>
      <point x="151.68" y="700.0" type="line"/>
    </contour>
  </outline>
</glyph>
<glyph name="F" format="2">
  <advance width="910.7600000000001"/>
  <unicode hex="0046"/>
  <outline>
    <contour>
      <point x="37.24" y="0.0" type="line"/>
      <point x="297.76" y="0.0" type="line"/>
      <point x="328.84" y="192.52" type="line"/>
      <point x="801.32" y="192.52" type="line"/>
      <point x="831.84" y="378.72" type="line"/>
      <point x="359.64" y="378.72" type="line"/>
      <point x="379.68" y="506.59999999999997" type="line"/>
      <point x="920.16" y="506.59999999999997" type="line"/>
      <point x="952.68" y="700.0" type="line"/>
      <point x="151.68" y="700.0" type="line"/>
    </contour>
  </outline>
</glyph>
<glyph name="G" format="2">
  <advance width="1024.74"/>
  <unicode hex="0047"/>
  <anchor x="511.88" y="0.0" name="bottom"/>
  <anchor x="621.66" y="700.0" name="top"/>
  <outline>
    <contour>
      <point x="512.2" y="-10.0" type="curve" smooth="yes"/>
      <point x="709.8" y="-10.0"/>
      <point x="838.9599999999999" y="24.16"/>
      <point x="928.2800000000001" y="57.16" type="curve"/>
      <point x="987.34" y="411.34000000000003" type="line"/>
      <point x="578.6800000000001" y="411.34000000000003" type="line"/>
      <point x="552.46" y="250.44" type="line"/>
      <point x="733.14" y="250.44" type="line"/>
      <point x="722.9399999999999" y="186.26" type="line"/>
      <point x="688.6600000000001" y="172.9"/>
      <point x="637.3000000000001" y="162.07999999999998"/>
      <point x="567.8" y="162.07999999999998" type="curve" smooth="yes"/>
      <point x="407.04" y="162.07999999999998"/>
      <point x="320.7" y="212.5"/>
      <point x="320.7" y="322.04" type="curve" smooth="yes"/>
      <point x="320.7" y="462.28000000000003"/>
      <point x="429.96" y="523.3000000000001"/>
      <point x="625.98" y="523.3000000000001" type="curve" smooth="yes"/>
      <point x="738.8199999999999" y="523.3000000000001"/>
      <point x="826.98" y="510.3"/>
      <point x="920.1999999999999" y="490.2" type="curve"/>
      <point x="995.86" y="668.02" type="line"/>
      <point x="872.9" y="699.02"/>
      <point x="756.74" y="710.0"/>
      <point x="613.64" y="710.0" type="curve" smooth="yes"/>
      <point x="251.84" y="710.0"/>
      <point x="54.879999999999995" y="573.46"/>
      <point x="54.879999999999995" y="300.7" type="curve" smooth="yes"/>
      <point x="54.879999999999995" y="98.3"/>
      <point x="222.90000000000003" y="-10.0"/>
    </contour>
  </outline>
</glyph>
<glyph name="H" format="2">
  <advance width="1083.78"/>
  <unicode hex="0048"/>
  <anchor x="498.404" y="0.0" name="bottom"/>
  <anchor x="553.8389999999999" y="350.0" name="center"/>
  <anchor x="609.2729999999999" y="700.0" name="top"/>
  <anchor x="87.313" y="700.0" name="topleft"/>
  <outline>
    <contour>
      <point x="37.1" y="0.0" type="line"/>
      <point x="297.76" y="0.0" type="line"/>
      <point x="333.44" y="225.64" type="line"/>
      <point x="739.72" y="225.64" type="line"/>
      <point x="702.3199999999999" y="0.0" type="line"/>
      <point x="955.2399999999999" y="0.0" type="line"/>
      <point x="1069.6799999999998" y="700.0" type="line"/>
      <point x="817.6200000000001" y="700.0" type="line"/>
      <point x="771.96" y="426.96000000000004" type="line"/>
      <point x="365.67999999999995" y="426.96000000000004" type="line"/>
      <point x="412.20000000000005" y="700.0" type="line"/>
      <point x="151.54000000000002" y="700.0" type="line"/>
    </contour>
  </outline>
</glyph>
<glyph name="I" format="2">
  <advance width="426.3"/>
  <unicode hex="0049"/>
  <anchor x="169.28216" y="0.0" name="bottom"/>
  <anchor x="297.76" y="0.0" name="ogonek"/>
  <anchor x="280.26382" y="700.0" name="top"/>
  <anchor x="91.2" y="700.0" name="topleft"/>
  <outline>
    <contour>
      <point x="37.1" y="0.0" type="line"/>
      <point x="297.76" y="0.0" type="line"/>
      <point x="412.20000000000005" y="700.0" type="line"/>
      <point x="151.54000000000002" y="700.0" type="line"/>
    </contour>
  </outline>
</glyph>
<glyph name="J" format="2">
  <advance width="844.8"/>
  <unicode hex="004A"/>
  <anchor x="375.03999999999996" y="0.0" name="bottom"/>
  <anchor x="494.64" y="700.0" name="top"/>
  <outline>
    <contour>
      <point x="-16.18" y="38.42" type="line"/>
      <point x="109.47999999999999" y="5.239999999999998"/>
      <point x="239.38" y="-10.0"/>
      <point x="359.71999999999997" y="-10.0" type="curve" smooth="yes"/>
      <point x="617.74" y="-10.0"/>
      <point x="736.8000000000001" y="86.34"/>
      <point x="773.38" y="301.65999999999997" type="curve" smooth="yes"/>
      <point x="840.38" y="700.0" type="line"/>
      <point x="158.1" y="700.0" type="line"/>
      <point x="124.14" y="496.96000000000004" type="line"/>
      <point x="545.7600000000001" y="496.96000000000004" type="line"/>
      <point x="519.46" y="330.04" type="line" smooth="yes"/>
      <point x="503.21999999999997" y="225.9"/>
      <point x="442.90000000000003" y="185.3"/>
      <point x="336.06" y="185.3" type="curve" smooth="yes"/>
      <point x="256.7" y="185.3"/>
      <point x="168.94" y="203.26000000000002"/>
      <point x="51.599999999999994" y="231.28" type="curve"/>
    </contour>
  </outline>
</glyph>
<glyph name="K" format="2">
  <advance width="1006.5600000000001"/>
  <unicode hex="004B"/>
  <anchor x="477.96" y="0.0" name="bottom"/>
  <anchor x="577.28" y="700.0" name="top"/>
  <outline>
    <contour>
      <point x="37.24" y="0.0" type="line"/>
      <point x="297.76" y="0.0" type="line"/>
      <point x="412.20000000000005" y="700.0" type="line"/>
      <point x="153.40000000000003" y="700.0" type="line"/>
    </contour>
    <contour>
      <point x="878.6400000000001" y="-10.0" type="curve" smooth="yes"/>
      <point x="888.52" y="-10.0"/>
      <point x="923.76" y="-8.28"/>
      <point x="933.92" y="-5.5600000000000005" type="curve"/>
      <point x="965.8799999999999" y="198.2" type="line"/>
      <point x="954.9999999999999" y="197.48"/>
      <point x="945.12" y="197.48000000000002"/>
      <point x="935.96" y="197.48000000000002" type="curve" smooth="yes"/>
      <point x="877.0" y="197.48000000000002"/>
      <point x="825.12" y="212.84"/>
      <point x="739.7599999999999" y="256.59999999999997" type="curve" smooth="yes"/>
      <point x="330.64" y="466.0000000000001" type="line"/>
      <point x="301.28000000000003" y="259.59999999999997" type="line"/>
      <point x="615.56" y="71.52000000000001" type="line" smooth="yes"/>
      <point x="710.28" y="14.920000000000002"/>
      <point x="808.4" y="-10.0"/>
    </contour>
    <contour>
      <point x="552.24" y="308.91999999999996" type="line"/>
      <point x="738.56" y="358.8"/>
      <point x="910.12" y="461.44000000000005"/>
      <point x="1015.6800000000002" y="572.44" type="curve"/>
      <point x="854.7599999999999" y="717.8799999999999" type="line"/>
      <point x="710.0" y="574.1599999999999"/>
      <point x="532.36" y="466.52000000000004"/>
      <point x="381.32" y="400.48" type="curve"/>
    </contour>
  </outline>
</glyph>
<glyph name="L" format="2">
  <advance width="892.46"/>
  <unicode hex="004C"/>
  <anchor x="426.18" y="0.0" name="bottom"/>
  <anchor x="458.179" y="350.0" name="center"/>
  <anchor x="281.8" y="700.0" name="top"/>
  <anchor x="588.5" y="700.0" name="topright"/>
  <outline>
    <contour>
      <point x="37.099999999999994" y="0.0" type="line"/>
      <point x="815.1200000000001" y="0.0" type="line"/>
      <point x="849.94" y="196.16" type="line"/>
      <point x="330.86" y="196.16" type="line"/>
      <point x="412.2" y="700.0" type="line"/>
      <point x="151.54000000000002" y="700.0" type="line"/>
    </contour>
  </outline>
</glyph>
<glyph name="M" format="2">
  <advance width="1176.14"/>
  <unicode hex="004D"/>
  <outline>
    <contour>
      <point x="37.1" y="0.0" type="line"/>
      <point x="281.7" y="0.0" type="line"/>
      <point x="343.98" y="402.52000000000004" type="line"/>
      <point x="504.44000000000005" y="118.41999999999999" type="line"/>
      <point x="617.3599999999999" y="118.41999999999999" type="line"/>
      <point x="875.0200000000001" y="414.4200000000001" type="line"/>
      <point x="806.7199999999999" y="0.0" type="line"/>
      <point x="1047.6000000000001" y="0.0" type="line"/>
      <point x="1162.04" y="700.0" type="line"/>
      <point x="895.22" y="700.0" type="line"/>
      <point x="591.14" y="336.36" type="line"/>
      <point x="402.6" y="700.0" type="line"/>
      <point x="151.54000000000002" y="700.0" type="line"/>
    </contour>
  </outline>
</glyph>
<glyph name="N" format="2">
  <advance width="1019.5599999999998"/>
  <unicode hex="004E"/>
  <anchor x="465.1218400000001" y="0.0" name="bottom"/>
  <anchor x="577.82918" y="700.0" name="top"/>
  <outline>
    <contour>
      <point x="37.1" y="0.0" type="line"/>
      <point x="272.96000000000004" y="0.0" type="line"/>
      <point x="335.38" y="384.72" type="line"/>
      <point x="666.34" y="-1.4000000000000004" type="line"/>
      <point x="889.8800000000001" y="-1.4000000000000004" type="line"/>
      <point x="1005.4600000000002" y="700.0" type="line"/>
      <point x="769.6" y="700.0" type="line"/>
      <point x="703.74" y="297.94" type="line"/>
      <point x="376.22" y="701.4" type="line"/>
      <point x="152.68" y="701.4" type="line"/>
    </contour>
  </outline>
</glyph>
<glyph name="O" format="2">
  <advance width="1089.8"/>
  <unicode hex="004F"/>
  <note>
8
</note>
  <anchor x="500.75999999999993" y="0.0" name="bottom"/>
  <anchor x="556.76" y="350.0" name="center"/>
  <anchor x="632.5999999999999" y="-0.9999999999999998" name="ogonek"/>
  <anchor x="602.08" y="700.0" name="top"/>
  <anchor x="84.52000000000001" y="700.0" name="topleft"/>
  <anchor x="915.3599999999999" y="682.24" name="topright"/>
  <outline>
    <contour>
      <point x="534.72" y="-10.0" type="curve" smooth="yes"/>
      <point x="868.2000000000002" y="-10.0"/>
      <point x="1058.08" y="132.44"/>
      <point x="1058.08" y="395.80000000000007" type="curve" smooth="yes"/>
      <point x="1058.08" y="602.92"/>
      <point x="908.5200000000001" y="710.28"/>
      <point x="578.08" y="710.28" type="curve" smooth="yes"/>
      <point x="244.6" y="710.28"/>
      <point x="54.72" y="567.84"/>
      <point x="54.72" y="304.47999999999996" type="curve" smooth="yes"/>
      <point x="54.72" y="97.36000000000001"/>
      <point x="204.28000000000003" y="-10.0"/>
    </contour>
    <contour>
      <point x="546.7600000000001" y="161.35999999999999" type="curve" smooth="yes"/>
      <point x="387.28000000000003" y="161.35999999999999"/>
      <point x="318.68" y="214.72000000000003"/>
      <point x="318.68" y="324.71999999999997" type="curve" smooth="yes"/>
      <point x="318.68" y="458.48"/>
      <point x="411.56" y="538.9200000000001"/>
      <point x="566.0400000000001" y="538.9200000000001" type="curve" smooth="yes"/>
      <point x="725.52" y="538.9200000000001"/>
      <point x="794.1200000000001" y="485.56"/>
      <point x="794.1200000000001" y="375.56" type="curve" smooth="yes"/>
      <point x="794.1200000000001" y="241.79999999999995"/>
      <point x="701.2400000000001" y="161.35999999999999"/>
    </contour>
  </outline>
</glyph>
<glyph name="P" format="2">
  <advance width="1051.4199999999998"/>
  <unicode hex="0050"/>
  <outline>
    <contour>
      <point x="37.099999999999994" y="0.0" type="line"/>
      <point x="296.9" y="0.0" type="line"/>
      <point x="327.44" y="178.62" type="line"/>
      <point x="427.32" y="174.62"/>
      <point x="464.32" y="173.48000000000002"/>
      <point x="514.6399999999999" y="173.48000000000002" type="curve" smooth="yes"/>
      <point x="919.22" y="173.48000000000002"/>
      <point x="1051.96" y="247.88"/>
      <point x="1052.24" y="470.02" type="curve" smooth="yes"/>
      <point x="1052.38" y="653.9799999999999"/>
      <point x="918.6" y="710.0"/>
      <point x="574.24" y="710.0" type="curve" smooth="yes"/>
      <point x="515.8000000000001" y="710.0"/>
      <point x="387.86" y="707.14"/>
      <point x="152.4" y="700.0" type="curve"/>
    </contour>
    <contour>
      <point x="384.26" y="526.1999999999999" type="line"/>
      <point x="497.8" y="530.62"/>
      <point x="519.3000000000001" y="531.04"/>
      <point x="591.88" y="531.04" type="curve" smooth="yes"/>
      <point x="736.3" y="531.04"/>
      <point x="781.2600000000001" y="508.37999999999994"/>
      <point x="781.2600000000001" y="455.56000000000006" type="curve" smooth="yes"/>
      <point x="781.2600000000001" y="382.0"/>
      <point x="737.66" y="355.88"/>
      <point x="503.3" y="355.88" type="curve" smooth="yes"/>
      <point x="460.98" y="355.88"/>
      <point x="432.6" y="357.15999999999997"/>
      <point x="357.96000000000004" y="361.02" type="curve"/>
    </contour>
  </outline>
</glyph>
<glyph name="Q" format="2">
  <advance width="1088.6799999999998"/>
  <unicode hex="0051"/>
  <note>
14
</note>
  <outline>
    <contour>
      <point x="788.86" y="-213.12" type="curve" smooth="yes"/>
      <point x="836.52" y="-213.12"/>
      <point x="884.38" y="-204.86"/>
      <point x="936.7" y="-188.32000000000002" type="curve"/>
      <point x="935.5800000000002" y="-7.920000000000012" type="line"/>
      <point x="916.6800000000001" y="-16.14"/>
      <point x="895.76" y="-19.54"/>
      <point x="871.28" y="-19.54" type="curve" smooth="yes"/>
      <point x="826.1" y="-19.54"/>
      <point x="772.5200000000001" y="2.9600000000000044"/>
      <point x="746.84" y="42.3" type="curve"/>
      <point x="506.68" y="6.3199999999999985" type="line"/>
      <point x="557.8399999999999" y="-141.12"/>
      <point x="654.94" y="-213.12"/>
    </contour>
    <component base="O"/>
  </outline>
</glyph>
<glyph name="R" format="2">
  <advance width="1080.44"/>
  <unicode hex="0052"/>
  <anchor x="524.6800000000001" y="0.0" name="bottom"/>
  <anchor x="571.7600000000001" y="700.0" name="top"/>
  <outline>
    <contour>
      <point x="37.24" y="0.0" type="line"/>
      <point x="298.04" y="0.0" type="line"/>
      <point x="333.28000000000003" y="217.6" type="line"/>
      <point x="425.40000000000003" y="216.04"/>
      <point x="514.28" y="215.04"/>
      <point x="610.04" y="214.32" type="curve"/>
      <point x="707.08" y="259.52" type="line"/>
      <point x="911.48" y="259.8"/>
      <point x="1038.9599999999998" y="347.08000000000004"/>
      <point x="1038.9599999999998" y="500.24" type="curve" smooth="yes"/>
      <point x="1038.9599999999998" y="640.0000000000001"/>
      <point x="917.9200000000001" y="710.0"/>
      <point x="590.68" y="710.0" type="curve" smooth="yes"/>
      <point x="524.16" y="710.0"/>
      <point x="372.88" y="707.2800000000001"/>
      <point x="151.67999999999998" y="700.28" type="curve"/>
    </contour>
    <contour>
      <point x="948.8399999999999" y="-10.0" type="curve" smooth="yes"/>
      <point x="958.7200000000001" y="-10.0"/>
      <point x="990.52" y="-9.28"/>
      <point x="998.9599999999999" y="-8.280000000000001" type="curve"/>
      <point x="1031.36" y="194.04" type="line"/>
      <point x="1024.6399999999999" y="193.04000000000002"/>
      <point x="1009.0400000000001" y="193.04000000000002"/>
      <point x="1000.8799999999999" y="193.04000000000002" type="curve" smooth="yes"/>
      <point x="930.96" y="193.04"/>
      <point x="819.8399999999999" y="243.55999999999995"/>
      <point x="734.0" y="292.36" type="curve"/>
      <point x="449.55999999999995" y="232.88" type="line"/>
      <point x="633.8800000000001" y="118.16000000000001"/>
      <point x="772.76" y="-10.0"/>
    </contour>
    <contour>
      <point x="579.2" y="373.15999999999997" type="curve" smooth="yes"/>
      <point x="494.15999999999997" y="373.15999999999997"/>
      <point x="426.47999999999996" y="375.88000000000005"/>
      <point x="360.35999999999996" y="380.16" type="curve"/>
      <point x="384.4" y="536.8000000000001" type="line"/>
      <point x="486.91999999999996" y="541.0799999999999"/>
      <point x="502.24" y="541.3599999999999"/>
      <point x="580.0799999999999" y="541.3599999999999" type="curve" smooth="yes"/>
      <point x="723.8000000000001" y="541.3599999999999"/>
      <point x="763.6800000000001" y="516.6800000000001"/>
      <point x="763.6800000000001" y="466.80000000000007" type="curve" smooth="yes"/>
      <point x="763.6800000000001" y="401.08"/>
      <point x="696.6" y="373.15999999999997"/>
    </contour>
  </outline>
</glyph>
<glyph name="S" format="2">
  <advance width="970.2"/>
  <unicode hex="0053"/>
  <anchor x="483.79999999999995" y="0.0" name="bottom"/>
  <anchor x="547.92" y="700.0" name="top"/>
  <outline>
    <contour>
      <point x="943.0400000000001" y="659.5200000000001" type="line"/>
      <point x="820.64" y="693.4"/>
      <point x="701.32" y="710.0"/>
      <point x="571.6800000000001" y="710.0" type="curve" smooth="yes"/>
      <point x="211.28" y="710.0"/>
      <point x="70.92000000000002" y="620.32"/>
      <point x="70.92000000000002" y="459.76" type="curve" smooth="yes"/>
      <point x="70.92000000000002" y="172.60000000000002"/>
      <point x="642.3600000000001" y="291.12000000000006"/>
      <point x="642.3600000000001" y="205.64" type="curve" smooth="yes"/>
      <point x="642.3600000000001" y="178.6"/>
      <point x="604.6800000000001" y="159.04"/>
      <point x="504.64" y="159.04" type="curve" smooth="yes"/>
      <point x="340.0799999999999" y="159.04"/>
      <point x="187.83999999999997" y="186.44000000000003"/>
      <point x="48.31999999999999" y="229.6" type="curve"/>
      <point x="-20.279999999999998" y="56.28" type="line"/>
      <point x="109.84" y="19.16"/>
      <point x="267.56" y="-10.0"/>
      <point x="444.15999999999997" y="-10.0" type="curve" smooth="yes"/>
      <point x="809.36" y="-10.0"/>
      <point x="939.5199999999999" y="85.08"/>
      <point x="939.5199999999999" y="246.04" type="curve" smooth="yes"/>
      <point x="939.5199999999999" y="517.4"/>
      <point x="363.48" y="408.84"/>
      <point x="363.48" y="491.04" type="curve" smooth="yes"/>
      <point x="363.48" y="521.4399999999999"/>
      <point x="397.48" y="537.08"/>
      <point x="515.0" y="537.08" type="curve" smooth="yes"/>
      <point x="653.48" y="537.08"/>
      <point x="776.4399999999999" y="522.52"/>
      <point x="881.04" y="490.5200000000001" type="curve"/>
    </contour>
  </outline>
</glyph>
<glyph name="T" format="2">
  <advance width="971.8000000000001"/>
  <unicode hex="0054"/>
  <anchor x="441.90000000000003" y="0.0" name="bottom"/>
  <anchor x="497.88306" y="350.0" name="center"/>
  <anchor x="552.9438200000001" y="700.0" name="top"/>
  <outline>
    <contour>
      <point x="983.0799999999999" y="516.74" type="line"/>
      <point x="1017.0400000000001" y="700.0" type="line"/>
      <point x="94.78" y="700.0" type="line"/>
      <point x="59.959999999999994" y="516.74" type="line"/>
      <point x="392.12" y="516.74" type="line"/>
      <point x="310.78" y="0.0" type="line"/>
      <point x="571.4399999999999" y="0.0" type="line"/>
      <point x="651.9200000000001" y="516.74" type="line"/>
    </contour>
  </outline>
</glyph>
<glyph name="U" format="2">
  <advance width="1063.84"/>
  <unicode hex="0055"/>
  <anchor x="488.80183999999997" y="0.0" name="bottom"/>
  <anchor x="622.36" y="0.0" name="ogonek"/>
  <anchor x="599.12918" y="700.0" name="top"/>
  <anchor x="1057.6999999999998" y="700.0" name="topright"/>
  <outline>
    <contour>
      <point x="483.8399999999999" y="-10.0" type="curve" smooth="yes"/>
      <point x="794.66" y="-10.0"/>
      <point x="958.98" y="87.14"/>
      <point x="992.5600000000001" y="290.6" type="curve" smooth="yes"/>
      <point x="1059.42" y="700.0" type="line"/>
      <point x="804.78" y="700.0" type="line"/>
      <point x="742.08" y="318.12" type="line" smooth="yes"/>
      <point x="727.7" y="226.42000000000002"/>
      <point x="651.0799999999999" y="179.28"/>
      <point x="516.94" y="179.28" type="curve" smooth="yes"/>
      <point x="383.04" y="179.28"/>
      <point x="316.53999999999996" y="228.12"/>
      <point x="331.64" y="318.54" type="curve" smooth="yes"/>
      <point x="395.78" y="700.0" type="line"/>
      <point x="141.14" y="700.0" type="line"/>
      <point x="74.42" y="292.0" type="line" smooth="yes"/>
      <point x="70.42" y="263.0"/>
      <point x="69.42000000000002" y="247.27999999999997"/>
      <point x="69.42000000000002" y="232.56" type="curve" smooth="yes"/>
      <point x="69.42000000000002" y="69.26"/>
      <point x="205.14" y="-10.0"/>
    </contour>
  </outline>
</glyph>
<glyph name="V" format="2">
  <advance width="934.3199999999999"/>
  <unicode hex="0056"/>
  <outline>
    <contour>
      <point x="552.4" y="0.0" type="line"/>
      <point x="889.8" y="455.35999999999996"/>
      <point x="971.04" y="589.0"/>
      <point x="991.6799999999998" y="677.28" type="curve" smooth="yes"/>
      <point x="993.4" y="685.28"/>
      <point x="994.12" y="692.56"/>
      <point x="994.8399999999999" y="700.0" type="curve"/>
      <point x="702.76" y="700.0" type="line"/>
      <point x="703.04" y="696.16"/>
      <point x="704.04" y="691.5999999999999"/>
      <point x="704.04" y="679.72" type="curve" smooth="yes"/>
      <point x="704.04" y="560.32"/>
      <point x="586.28" y="377.71999999999997"/>
      <point x="462.28" y="206.68" type="curve"/>
      <point x="342.4" y="701.68" type="line"/>
      <point x="63.96000000000001" y="700.28" type="line"/>
      <point x="293.32" y="0.0" type="line"/>
    </contour>
  </outline>
</glyph>
<glyph name="W" format="2">
  <advance width="1191.9200000000003"/>
  <unicode hex="0057"/>
  <anchor x="541.16" y="0.0" name="bottom"/>
  <anchor x="668.36" y="700.0" name="top"/>
  <outline>
    <contour>
      <point x="945.6399999999999" y="0.0" type="line"/>
      <point x="1141.72" y="297.48"/>
      <point x="1239.5200000000002" y="583.96"/>
      <point x="1239.52" y="681.1199999999999" type="curve" smooth="yes"/>
      <point x="1239.52" y="688.2799999999999"/>
      <point x="1238.52" y="697.72"/>
      <point x="1238.24" y="700.0" type="curve"/>
      <point x="997.3599999999999" y="700.0" type="line"/>
      <point x="996.6400000000001" y="691.84"/>
      <point x="995.9200000000001" y="682.9599999999999"/>
      <point x="994.9200000000001" y="673.9599999999999" type="curve" smooth="yes"/>
      <point x="980.4399999999999" y="534.6399999999999"/>
      <point x="926.4400000000003" y="379.96"/>
      <point x="824.8399999999999" y="196.0" type="curve"/>
      <point x="813.6400000000001" y="660.88" type="line"/>
      <point x="512.56" y="660.88" type="line"/>
      <point x="467.87999999999994" y="507.64"/>
      <point x="415.32" y="369.88"/>
      <point x="342.84" y="196.72000000000003" type="curve"/>
      <point x="327.48" y="700.0" type="line"/>
      <point x="68.11999999999999" y="700.0" type="line"/>
      <point x="154.68" y="0.0" type="line"/>
      <point x="421.76" y="0.0" type="line"/>
      <point x="495.56" y="131.88"/>
      <point x="572.64" y="267.32"/>
      <point x="629.36" y="408.52" type="curve"/>
      <point x="651.88" y="0.0" type="line"/>
    </contour>
  </outline>
</glyph>
<glyph name="X" format="2">
  <advance width="928.6800000000002"/>
  <unicode hex="0058"/>
  <outline>
    <contour>
      <point x="561.8" y="-1.1199999999999997" type="line"/>
      <point x="877.7999999999998" y="0.8399999999999999" type="line"/>
      <point x="655.28" y="350.76000000000005" type="line"/>
      <point x="805.9200000000001" y="480.8400000000001"/>
      <point x="929.0" y="586.2"/>
      <point x="964.9200000000002" y="700.28" type="curve"/>
      <point x="654.0799999999999" y="701.4" type="line"/>
      <point x="640.68" y="612.68"/>
      <point x="586.0799999999999" y="552.8399999999999"/>
      <point x="491.80000000000007" y="455.68000000000006" type="curve"/>
      <point x="395.88" y="701.12" type="line"/>
      <point x="87.48" y="699.16" type="line"/>
      <point x="290.88" y="362.8399999999999" type="line"/>
      <point x="146.79999999999998" y="239.08"/>
      <point x="11.119999999999997" y="97.04"/>
      <point x="-14.840000000000002" y="0.0" type="curve"/>
      <point x="288.24" y="0.0" type="line"/>
      <point x="301.84000000000003" y="75.28000000000002"/>
      <point x="370.64000000000004" y="164.76000000000002"/>
      <point x="453.08" y="256.64" type="curve"/>
    </contour>
  </outline>
</glyph>
<glyph name="Y" format="2">
  <advance width="913.5999999999999"/>
  <unicode hex="0059"/>
  <anchor x="408.87999999999994" y="0.0" name="bottom"/>
  <anchor x="529.7199999999999" y="700.0" name="top"/>
  <anchor x="76.0" y="700.0" name="topleft"/>
  <outline>
    <contour>
      <point x="297.03999999999996" y="0.0" type="line"/>
      <point x="554.12" y="0.0" type="line"/>
      <point x="594.08" y="236.36" type="line"/>
      <point x="881.84" y="522.24"/>
      <point x="944.6399999999999" y="592.36"/>
      <point x="970.0" y="669.5999999999999" type="curve" smooth="yes"/>
      <point x="973.56" y="679.16"/>
      <point x="976.12" y="689.44"/>
      <point x="978.6800000000001" y="700.0" type="curve"/>
      <point x="698.52" y="701.4" type="line"/>
      <point x="696.68" y="690.56"/>
      <point x="694.12" y="681.72"/>
      <point x="691.28" y="672.6" type="curve" smooth="yes"/>
      <point x="661.7599999999999" y="573.96"/>
      <point x="624.32" y="534.7600000000001"/>
      <point x="489.24" y="387.88000000000005" type="curve"/>
      <point x="343.71999999999997" y="701.4" type="line"/>
      <point x="59.400000000000006" y="699.72" type="line"/>
      <point x="335.0" y="236.36" type="line"/>
    </contour>
  </outline>
</glyph>
<glyph name="Z" format="2">
  <advance width="955.6400000000001"/>
  <unicode hex="005A"/>
  <anchor x="435.44" y="0.0" name="bottom"/>
  <anchor x="489.48" y="350.0" name="center"/>
  <anchor x="535.88" y="700.0" name="top"/>
  <outline>
    <contour>
      <point x="-8.16" y="0.0" type="line"/>
      <point x="875.8800000000001" y="0.0" type="line"/>
      <point x="904.68" y="176.52" type="line"/>
      <point x="401.15999999999997" y="176.52" type="line"/>
      <point x="927.52" y="540.5200000000001" type="line"/>
      <point x="953.5999999999999" y="700.0" type="line"/>
      <point x="150.23999999999998" y="700.0" type="line"/>
      <point x="121.44" y="523.48" type="line"/>
      <point x="562.8" y="523.48" type="line"/>
      <point x="17.92" y="158.76000000000002" type="line"/>
    </contour>
  </outline>
</glyph>
<glyph name="bracketleft" format="2">
  <advance width="494.40000000000003"/>
  <unicode hex="005B"/>
  <outline>
    <contour>
      <point x="219.2" y="-71.60000000000001" type="line"/>
      <point x="326.36" y="601.74" type="line"/>
      <point x="511.30000000000007" y="601.74" type="line"/>
      <point x="533.22" y="740.0" type="line"/>
      <point x="167.6" y="740.0" type="line"/>
      <point x="17.46" y="-210.0" type="line"/>
      <point x="382.22" y="-210.0" type="line"/>
      <point x="404.14" y="-71.60000000000001" type="line"/>
    </contour>
  </outline>
</glyph>
<glyph name="backslash" format="2">
  <advance width="514.24"/>
  <unicode hex="005C"/>
  <outline>
    <contour>
      <point x="245.26" y="740.0" type="line"/>
      <point x="74.76" y="740.0" type="line"/>
      <point x="291.68" y="-210.0" type="line"/>
      <point x="462.18" y="-210.0" type="line"/>
    </contour>
  </outline>
</glyph>
<glyph name="bracketright" format="2">
  <advance width="494.40000000000003"/>
  <unicode hex="005D"/>
  <outline>
    <contour>
      <point x="-19.759999999999998" y="-71.60000000000001" type="line"/>
      <point x="-40.82" y="-210.0" type="line"/>
      <point x="323.8" y="-210.0" type="line"/>
      <point x="474.79999999999995" y="740.0" type="line"/>
      <point x="109.17999999999999" y="740.0" type="line"/>
      <point x="87.25999999999999" y="601.6" type="line"/>
      <point x="272.20000000000005" y="601.6" type="line"/>
      <point x="165.04000000000002" y="-71.60000000000001" type="line"/>
    </contour>
  </outline>
</glyph>
<glyph name="asciicircum" format="2">
  <advance width="706.22"/>
  <unicode hex="005E"/>
  <outline>
    <contour>
      <point x="34.059999999999995" y="212.36" type="line"/>
      <point x="225.34" y="212.36" type="line"/>
      <point x="382.91999999999996" y="490.64000000000004" type="line"/>
      <point x="460.52" y="212.36" type="line"/>
      <point x="651.52" y="212.36" type="line"/>
      <point x="519.62" y="701.4" type="line"/>
      <point x="324.46" y="701.4" type="line"/>
    </contour>
  </outline>
</glyph>
<glyph name="underscore" format="2">
  <advance width="967.5200000000001"/>
  <unicode hex="005F"/>
  <outline>
    <contour>
      <point x="-54.89999999999999" y="-199.64000000000001" type="line"/>
      <point x="871.78" y="-199.64000000000001" type="line"/>
      <point x="895.42" y="-52.64" type="line"/>
      <point x="-31.26" y="-52.64" type="line"/>
    </contour>
  </outline>
</glyph>
<glyph name="a" format="2">
  <advance width="882.02"/>
  <unicode hex="0061"/>
  <note>
15
</note>
  <anchor x="395.44184000000007" y="0.0" name="bottom"/>
  <anchor x="838.2" y="3.4399999999999995" name="ogonek"/>
  <anchor x="478.42" y="547.2" name="top"/>
  <outline>
    <contour>
      <point x="721.52" y="-10.0" type="curve" smooth="yes"/>
      <point x="761.46" y="-10.0"/>
      <point x="810.72" y="-3.6999999999999997"/>
      <point x="838.34" y="3.0199999999999996" type="curve"/>
      <point x="838.0600000000001" y="166.22" type="line"/>
      <point x="831.5" y="164.8"/>
      <point x="821.22" y="163.66"/>
      <point x="814.96" y="163.66" type="curve" smooth="yes"/>
      <point x="796.3199999999999" y="163.66"/>
      <point x="790.08" y="174.04000000000002"/>
      <point x="790.08" y="190.78" type="curve" smooth="yes"/>
      <point x="790.08" y="202.08"/>
      <point x="803.0" y="282.72"/>
      <point x="840.4599999999999" y="514.06" type="curve"/>
      <point x="767.56" y="536.9"/>
      <point x="599.4200000000001" y="557.2"/>
      <point x="456.64" y="557.2" type="curve" smooth="yes"/>
      <point x="192.46" y="557.2"/>
      <point x="30.78" y="457.88"/>
      <point x="30.78" y="224.18" type="curve" smooth="yes"/>
      <point x="30.78" y="59.099999999999994"/>
      <point x="145.98" y="-10.0"/>
      <point x="295.78" y="-10.0" type="curve" smooth="yes"/>
      <point x="389.76000000000005" y="-10.0"/>
      <point x="478.94000000000005" y="20.12"/>
      <point x="548.6199999999999" y="63.22" type="curve"/>
      <point x="581.3000000000001" y="20.56"/>
      <point x="657.32" y="-10.0"/>
    </contour>
    <contour>
      <point x="542.3199999999999" y="198.46" type="line"/>
      <point x="499.16" y="178.57999999999998"/>
      <point x="440.92" y="161.22"/>
      <point x="391.08" y="161.22" type="curve" smooth="yes"/>
      <point x="326.68" y="161.22"/>
      <point x="277.82" y="195.07999999999998"/>
      <point x="277.82" y="260.71999999999997" type="curve" smooth="yes"/>
      <point x="277.82" y="347.56"/>
      <point x="350.52" y="397.29999999999995"/>
      <point x="459.4" y="397.29999999999995" type="curve" smooth="yes"/>
      <point x="499.68" y="397.29999999999995"/>
      <point x="539.28" y="392.90000000000003"/>
      <point x="571.5" y="381.65999999999997" type="curve"/>
    </contour>
  </outline>
</glyph>
<glyph name="b" format="2">
  <advance width="867.84"/>
  <unicode hex="0062"/>
  <note>
12
</note>
  <outline>
    <contour>
      <point x="389.0" y="740.0" type="line"/>
      <point x="141.24" y="740.0" type="line"/>
      <point x="27.240000000000002" y="22.72" type="line"/>
      <point x="118.6" y="8.440000000000001"/>
      <point x="250.64" y="-10.0"/>
      <point x="388.8" y="-10.0" type="curve" smooth="yes"/>
      <point x="642.94" y="-10.0"/>
      <point x="838.5" y="74.9"/>
      <point x="838.5000000000001" y="334.59999999999997" type="curve" smooth="yes"/>
      <point x="838.5" y="463.46"/>
      <point x="766.24" y="557.2"/>
      <point x="612.8199999999999" y="557.2" type="curve" smooth="yes"/>
      <point x="520.64" y="557.2"/>
      <point x="438.42" y="530.58"/>
      <point x="345.6" y="478.22" type="curve"/>
    </contour>
    <contour>
      <point x="488.2800000000001" y="378.24" type="curve" smooth="yes"/>
      <point x="549.5600000000001" y="378.24"/>
      <point x="589.88" y="349.84"/>
      <point x="589.88" y="286.02" type="curve" smooth="yes"/>
      <point x="589.88" y="191.96"/>
      <point x="505.79999999999995" y="142.29999999999998"/>
      <point x="417.46" y="142.29999999999998" type="curve" smooth="yes"/>
      <point x="372.32" y="142.29999999999998"/>
      <point x="329.71999999999997" y="149.7"/>
      <point x="296.06" y="158.98000000000002" type="curve"/>
      <point x="323.68" y="335.54" type="line"/>
      <point x="377.0" y="359.74"/>
      <point x="435.15999999999997" y="378.24"/>
    </contour>
  </outline>
</glyph>
<glyph name="c" format="2">
  <advance width="781.0799999999999"/>
  <unicode hex="0063"/>
  <note>
10
</note>
  <anchor x="418.91999999999996" y="0.0" name="bottom"/>
  <anchor x="481.44" y="547.1999999999999" name="top"/>
  <outline>
    <contour>
      <point x="380.23999999999995" y="-10.0" type="curve" smooth="yes"/>
      <point x="485.03999999999996" y="-10.0"/>
      <point x="608.3199999999999" y="-3.040000000000001"/>
      <point x="711.56" y="26.839999999999996" type="curve"/>
      <point x="708.9999999999999" y="182.44" type="line"/>
      <point x="603.3199999999999" y="163.88000000000002"/>
      <point x="534.8000000000001" y="156.8"/>
      <point x="451.64" y="156.8" type="curve" smooth="yes"/>
      <point x="343.76000000000005" y="156.8"/>
      <point x="285.96" y="194.8"/>
      <point x="285.96" y="265.08" type="curve" smooth="yes"/>
      <point x="285.96" y="343.76"/>
      <point x="344.2" y="395.44"/>
      <point x="471.99999999999994" y="395.44" type="curve" smooth="yes"/>
      <point x="538.0799999999999" y="395.44"/>
      <point x="620.9199999999998" y="388.6"/>
      <point x="723.8399999999999" y="368.76" type="curve"/>
      <point x="778.0" y="526.36" type="line"/>
      <point x="696.44" y="546.2"/>
      <point x="579.76" y="557.1999999999999"/>
      <point x="479.44" y="557.1999999999999" type="curve" smooth="yes"/>
      <point x="178.39999999999998" y="557.1999999999999"/>
      <point x="33.04" y="445.48"/>
      <point x="33.04" y="240.56" type="curve" smooth="yes"/>
      <point x="33.04" y="78.84"/>
      <point x="135.96000000000004" y="-10.0"/>
    </contour>
  </outline>
</glyph>
<glyph name="d" format="2">
  <advance width="884.56"/>
  <unicode hex="0064"/>
  <note>
17
</note>
  <anchor x="411.84000000000003" y="0.0" name="bottom"/>
  <anchor x="441.44" y="275.0" name="center"/>
  <anchor x="500.64" y="740.0" name="top"/>
  <anchor x="916.48" y="740.0" name="topright"/>
  <outline>
    <contour>
      <point x="722.08" y="-10.0" type="curve" smooth="yes"/>
      <point x="761.32" y="-10.0"/>
      <point x="810.44" y="-3.84"/>
      <point x="838.2" y="3.1599999999999997" type="curve"/>
      <point x="837.64" y="166.35999999999999" type="line"/>
      <point x="831.0799999999999" y="164.8"/>
      <point x="821.52" y="163.79999999999998"/>
      <point x="814.4" y="163.79999999999998" type="curve" smooth="yes"/>
      <point x="797.76" y="163.79999999999998"/>
      <point x="789.52" y="172.32"/>
      <point x="789.52" y="188.79999999999998" type="curve" smooth="yes"/>
      <point x="789.52" y="204.12"/>
      <point x="873.88" y="740.0000000000001"/>
      <point x="873.88" y="740.0" type="curve"/>
      <point x="628.8399999999999" y="740.0" type="line"/>
      <point x="597.0" y="542.52" type="line"/>
      <point x="557.7599999999999" y="550.08"/>
      <point x="501.35999999999996" y="557.2"/>
      <point x="438.6" y="557.2" type="curve" smooth="yes"/>
      <point x="213.91999999999996" y="557.2"/>
      <point x="30.920000000000005" y="468.32"/>
      <point x="30.920000000000005" y="221.60000000000002" type="curve" smooth="yes"/>
      <point x="30.920000000000005" y="60.84"/>
      <point x="149.95999999999998" y="-10.0"/>
      <point x="294.8" y="-10.0" type="curve" smooth="yes"/>
      <point x="388.92" y="-10.0"/>
      <point x="479.64" y="20.120000000000005"/>
      <point x="547.9200000000001" y="61.68000000000001" type="curve"/>
      <point x="580.88" y="20.0"/>
      <point x="657.0400000000001" y="-10.0"/>
    </contour>
    <contour>
      <point x="389.96" y="161.36" type="curve" smooth="yes"/>
      <point x="328.08" y="161.36"/>
      <point x="277.96" y="194.52"/>
      <point x="277.96" y="261.0" type="curve" smooth="yes"/>
      <point x="277.96" y="348.12"/>
      <point x="351.92" y="397.43999999999994"/>
      <point x="458.56" y="397.43999999999994" type="curve" smooth="yes"/>
      <point x="500.79999999999995" y="397.43999999999994"/>
      <point x="539.56" y="392.48"/>
      <point x="571.64" y="383.20000000000005" type="curve"/>
      <point x="542.0400000000001" y="196.92" type="line"/>
      <point x="498.6" y="178.15999999999997"/>
      <point x="440.08" y="161.36"/>
    </contour>
  </outline>
</glyph>
<glyph name="e" format="2">
  <advance width="813.04"/>
  <unicode hex="0065"/>
  <note>
14 points
</note>
  <anchor x="368.12" y="0.0" name="bottom"/>
  <anchor x="676.7600000000001" y="14.0" name="ogonek"/>
  <anchor x="459.40000000000003" y="547.1999999999999" name="top"/>
  <outline>
    <contour>
      <point x="245.28" y="321.44000000000005" type="curve"/>
      <point x="260.2" y="216.76" type="line"/>
      <point x="306.68" y="209.32000000000002"/>
      <point x="364.84000000000003" y="203.87999999999997"/>
      <point x="445.24" y="204.88000000000002" type="curve" smooth="yes"/>
      <point x="670.4399999999999" y="208.32000000000002"/>
      <point x="789.4" y="272.23999999999995"/>
      <point x="789.4" y="381.23999999999995" type="curve" smooth="yes"/>
      <point x="789.4" y="493.15999999999997"/>
      <point x="665.04" y="557.2"/>
      <point x="471.64" y="557.2" type="curve" smooth="yes"/>
      <point x="177.6" y="557.2"/>
      <point x="33.2" y="438.88"/>
      <point x="33.2" y="246.35999999999999" type="curve" smooth="yes"/>
      <point x="33.2" y="81.56"/>
      <point x="172.84" y="-10.0"/>
      <point x="406.71999999999997" y="-10.0" type="curve" smooth="yes"/>
      <point x="520.3199999999999" y="-10.0"/>
      <point x="628.04" y="2.6800000000000015"/>
      <point x="729.92" y="25.479999999999997" type="curve"/>
      <point x="711.8800000000001" y="182.08" type="line"/>
      <point x="608.1600000000001" y="156.56"/>
      <point x="509.1599999999999" y="146.6"/>
      <point x="461.76" y="146.6" type="curve" smooth="yes"/>
      <point x="318.64" y="146.6"/>
      <point x="281.68" y="176.83999999999997"/>
      <point x="281.68" y="254.96" type="curve" smooth="yes"/>
      <point x="281.68" y="345.64"/>
      <point x="353.28" y="406.76"/>
      <point x="450.72" y="406.76" type="curve" smooth="yes"/>
      <point x="503.68" y="406.76"/>
      <point x="530.32" y="391.71999999999997"/>
      <point x="530.32" y="364.48" type="curve" smooth="yes"/>
      <point x="530.3199999999999" y="333.32"/>
      <point x="467.6799999999999" y="320.08"/>
      <point x="355.92" y="318.36" type="curve" smooth="yes"/>
      <point x="311.36" y="317.36000000000007"/>
      <point x="275.56" y="317.48"/>
    </contour>
  </outline>
</glyph>
<glyph name="f" format="2">
  <advance width="605.62"/>
  <unicode hex="0066"/>
  <outline>
    <contour>
      <point x="92.94" y="-220.0" type="curve" smooth="yes"/>
      <point x="215.06" y="-220.0"/>
      <point x="300.5" y="-138.08"/>
      <point x="323.47999999999996" y="3.780000000000001" type="curve" smooth="yes"/>
      <point x="374.28" y="327.40000000000003" type="line"/>
      <point x="580.26" y="327.40000000000003" type="line"/>
      <point x="605.6200000000001" y="484.00000000000006" type="line"/>
      <point x="398.78" y="484.00000000000006" type="line"/>
      <point x="408.29999999999995" y="540.92"/>
      <point x="450.91999999999996" y="569.32"/>
      <point x="521.7" y="569.32" type="curve" smooth="yes"/>
      <point x="569.58" y="569.32"/>
      <point x="628.9" y="559.62"/>
      <point x="663.2" y="548.8" type="curve"/>
      <point x="717.36" y="715.58" type="line"/>
      <point x="655.8399999999999" y="737.28"/>
      <point x="574.1999999999999" y="750.0"/>
      <point x="500.04" y="750.0" type="curve" smooth="yes"/>
      <point x="301.02000000000004" y="750.0"/>
      <point x="175.14000000000001" y="654.66"/>
      <point x="152.6" y="484.00000000000006" type="curve"/>
      <point x="50.54" y="466.1" type="line"/>
      <point x="27.9" y="327.40000000000003" type="line"/>
      <point x="127.24" y="327.40000000000003" type="line"/>
      <point x="81.32000000000001" y="36.49999999999999" type="line" smooth="yes"/>
      <point x="73.38" y="-15.560000000000002"/>
      <point x="54.42" y="-41.320000000000014"/>
      <point x="21.419999999999998" y="-41.320000000000014" type="curve" smooth="yes"/>
      <point x="9.000000000000002" y="-41.320000000000014"/>
      <point x="-5.14" y="-39.180000000000014"/>
      <point x="-16.4" y="-35.62000000000002" type="curve"/>
      <point x="-55.080000000000005" y="-195.38" type="line"/>
      <point x="-11.719999999999999" y="-212.7"/>
      <point x="32.07999999999999" y="-220.0"/>
    </contour>
  </outline>
</glyph>
<glyph name="g" format="2">
  <advance width="868.12"/>
  <unicode hex="0067"/>
  <note>
16
</note>
  <anchor x="346.48" y="-211.39999999999998" name="bottom"/>
  <anchor x="485.44" y="547.1999999999999" name="top"/>
  <outline>
    <contour>
      <point x="-3.2399999999999993" y="-163.12000000000003" type="line"/>
      <point x="84.2" y="-194.12"/>
      <point x="204.39999999999998" y="-220.0"/>
      <point x="364.36" y="-220.0" type="curve" smooth="yes"/>
      <point x="612.12" y="-220.0"/>
      <point x="740.3199999999999" y="-105.79999999999998"/>
      <point x="772.7600000000001" y="99.12" type="curve" smooth="yes"/>
      <point x="838.3199999999999" y="515.9200000000001" type="line"/>
      <point x="775.1600000000001" y="534.32"/>
      <point x="589.8000000000001" y="557.1999999999999"/>
      <point x="486.88" y="557.1999999999999" type="curve" smooth="yes"/>
      <point x="141.32000000000002" y="557.1999999999999"/>
      <point x="31.64" y="415.16"/>
      <point x="31.64" y="232.8" type="curve" smooth="yes"/>
      <point x="31.64" y="89.47999999999999"/>
      <point x="131.48" y="25.4"/>
      <point x="286.88" y="25.4" type="curve" smooth="yes"/>
      <point x="343.19999999999993" y="25.4"/>
      <point x="455.03999999999996" y="48.63999999999999"/>
      <point x="524.56" y="91.32" type="curve"/>
      <point x="520.8399999999999" y="72.15999999999998" type="line" smooth="yes"/>
      <point x="504.43999999999994" y="-29.879999999999985"/>
      <point x="445.32" y="-55.08"/>
      <point x="329.4" y="-55.08" type="curve" smooth="yes"/>
      <point x="231.64" y="-55.08"/>
      <point x="137.52" y="-34.080000000000005"/>
      <point x="49.76" y="-7.239999999999996" type="curve"/>
    </contour>
    <contour>
      <point x="571.36" y="390.4" type="curve"/>
      <point x="542.88" y="210.56" type="line"/>
      <point x="490.68" y="190.95999999999998"/>
      <point x="437.08000000000004" y="177.2"/>
      <point x="395.36000000000007" y="177.2" type="curve" smooth="yes"/>
      <point x="320.2" y="177.2"/>
      <point x="279.68" y="211.55999999999997"/>
      <point x="279.68" y="271.64000000000004" type="curve" smooth="yes"/>
      <point x="279.68" y="347.12"/>
      <point x="338.8" y="405.03999999999996"/>
      <point x="456.79999999999995" y="405.03999999999996" type="curve" smooth="yes"/>
      <point x="509.92" y="405.03999999999996"/>
      <point x="547.72" y="396.08000000000004"/>
    </contour>
  </outline>
</glyph>
<glyph name="h" format="2">
  <advance width="850.36"/>
  <unicode hex="0068"/>
  <note>
16
</note>
  <anchor x="397.88" y="0.0" name="bottom"/>
  <anchor x="448.48431999999997" y="391.64" name="center"/>
  <anchor x="487.56000000000006" y="740.0" name="top"/>
  <outline>
    <contour>
      <point x="767.1600000000001" y="189.4" type="curve" smooth="yes"/>
      <point x="767.1600000000001" y="228.35999999999999"/>
      <point x="795.12" y="347.0"/>
      <point x="795.12" y="394.03999999999996" type="curve" smooth="yes"/>
      <point x="795.12" y="482.0"/>
      <point x="735.12" y="557.2"/>
      <point x="589.2" y="557.2" type="curve" smooth="yes"/>
      <point x="505.08000000000004" y="557.2"/>
      <point x="444.52" y="536.44"/>
      <point x="349.32" y="490.76000000000005" type="curve"/>
      <point x="388.72" y="740.0" type="line"/>
      <point x="141.96000000000004" y="740.0" type="line"/>
      <point x="23.240000000000002" y="0.0" type="line"/>
      <point x="271.0" y="0.0" type="line"/>
      <point x="325.68" y="343.92" type="line"/>
      <point x="375.56000000000006" y="365.64"/>
      <point x="424.68" y="381.67999999999995"/>
      <point x="467.52000000000004" y="381.67999999999995" type="curve" smooth="yes"/>
      <point x="517.2800000000001" y="381.67999999999995"/>
      <point x="538.7600000000001" y="358.64"/>
      <point x="538.7600000000001" y="321.08" type="curve" smooth="yes"/>
      <point x="538.7600000000001" y="284.28000000000003"/>
      <point x="511.79999999999995" y="150.96"/>
      <point x="511.79999999999995" y="121.03999999999999" type="curve" smooth="yes"/>
      <point x="511.79999999999995" y="32.199999999999996"/>
      <point x="588.96" y="-10.0"/>
      <point x="688.2800000000001" y="-10.0" type="curve" smooth="yes"/>
      <point x="731.2400000000001" y="-10.0"/>
      <point x="784.2" y="-6.279999999999999"/>
      <point x="816.4000000000001" y="-0.2800000000000006" type="curve"/>
      <point x="815.8399999999999" y="166.64" type="line"/>
      <point x="809.0" y="165.07999999999998"/>
      <point x="797.88" y="163.79999999999998"/>
      <point x="790.4799999999999" y="163.79999999999998" type="curve" smooth="yes"/>
      <point x="774.6800000000001" y="163.79999999999998"/>
      <point x="767.1600000000001" y="174.48"/>
    </contour>
  </outline>
</glyph>
<glyph name="i" format="2">
  <advance width="383.09999999999997"/>
  <unicode hex="0069"/>
  <note>
Ajuster pts sur points
8
</note>
  <anchor x="147.86184" y="0.0" name="bottom"/>
  <anchor x="271.85999999999996" y="0.0" name="ogonek"/>
  <anchor x="234.67816000000002" y="547.2" name="top"/>
  <outline>
    <contour>
      <point x="24.1" y="0.0" type="line"/>
      <point x="271.85999999999996" y="0.0" type="line"/>
      <point x="357.58000000000004" y="547.2" type="line"/>
      <point x="111.53999999999999" y="547.2" type="line"/>
    </contour>
    <contour>
      <point x="269.08" y="778.8" type="curve" smooth="yes"/>
      <point x="158.04" y="778.8"/>
      <point x="104.02" y="743.54"/>
      <point x="103.88000000000001" y="665.9399999999999" type="curve" smooth="yes"/>
      <point x="103.88" y="615.08"/>
      <point x="143.42" y="584.84"/>
      <point x="236.14" y="584.84" type="curve" smooth="yes"/>
      <point x="323.8" y="584.84"/>
      <point x="400.48" y="608.06"/>
      <point x="400.76" y="698.7" type="curve" smooth="yes"/>
      <point x="400.76" y="748.56"/>
      <point x="361.64" y="778.8"/>
    </contour>
  </outline>
</glyph>
<glyph name="k" format="2">
  <advance width="814.32"/>
  <unicode hex="006B"/>
  <anchor x="373.16" y="0.0" name="bottom"/>
  <anchor x="264.76" y="740.0" name="top"/>
  <outline>
    <contour>
      <point x="23.520000000000003" y="0.0" type="line"/>
      <point x="269.56" y="0.0" type="line"/>
      <point x="388.28000000000003" y="740.0" type="line"/>
      <point x="141.24" y="740.0" type="line"/>
    </contour>
    <contour>
      <point x="703.44" y="-10.0" type="curve" smooth="yes"/>
      <point x="716.8799999999999" y="-10.0"/>
      <point x="731.3199999999999" y="-8.719999999999999"/>
      <point x="744.2" y="-6.4399999999999995" type="curve"/>
      <point x="777.88" y="203.88000000000002" type="line"/>
      <point x="768.44" y="202.60000000000002"/>
      <point x="759.44" y="202.60000000000002"/>
      <point x="749.0" y="202.60000000000002" type="curve" smooth="yes"/>
      <point x="688.2" y="202.59999999999997"/>
      <point x="621.88" y="226.0"/>
      <point x="502.9999999999999" y="293.76000000000005" type="curve" smooth="yes"/>
      <point x="306.92" y="406.08" type="line"/>
      <point x="275.56" y="208.79999999999998" type="line"/>
      <point x="436.52" y="94.80000000000001" type="line" smooth="yes"/>
      <point x="531.6" y="27.839999999999996"/>
      <point x="621.04" y="-10.0"/>
    </contour>
    <contour>
      <point x="504.28" y="276.64" type="line"/>
      <point x="647.84" y="353.52"/>
      <point x="771.76" y="460.68"/>
      <point x="821.5200000000001" y="546.9200000000001" type="curve"/>
      <point x="549.4000000000001" y="557.2" type="line"/>
      <point x="496.12" y="475.16"/>
      <point x="421.88" y="412.44000000000005"/>
      <point x="307.12" y="338.64" type="curve"/>
    </contour>
  </outline>
</glyph>
<glyph name="l" format="2">
  <advance width="480.62"/>
  <unicode hex="006C"/>
  <anchor x="227.36" y="0.0" name="bottom"/>
  <anchor x="256.50515999999993" y="391.5" name="center"/>
  <anchor x="264.76" y="740.0" name="top"/>
  <anchor x="430.88" y="740.0" name="topright"/>
  <outline>
    <contour>
      <point x="141.24" y="740.0" type="line"/>
      <point x="60.419999999999995" y="232.38" type="line" smooth="yes"/>
      <point x="55.839999999999996" y="201.32"/>
      <point x="51.839999999999996" y="171.74"/>
      <point x="51.839999999999996" y="145.16000000000003" type="curve" smooth="yes"/>
      <point x="51.839999999999996" y="34.84"/>
      <point x="107.64000000000001" y="-10.0"/>
      <point x="225.34" y="-10.0" type="curve" smooth="yes"/>
      <point x="302.76" y="-10.0"/>
      <point x="376.76" y="2.8799999999999994"/>
      <point x="445.04" y="21.919999999999998" type="curve"/>
      <point x="444.34000000000003" y="198.3" type="line"/>
      <point x="403.58" y="189.57999999999998"/>
      <point x="379.15999999999997" y="184.44"/>
      <point x="353.04" y="184.44" type="curve" smooth="yes"/>
      <point x="321.9" y="184.44"/>
      <point x="307.48" y="197.32"/>
      <point x="307.48" y="221.11999999999998" type="curve" smooth="yes"/>
      <point x="307.48" y="229.34000000000003"/>
      <point x="308.03999999999996" y="237.85999999999999"/>
      <point x="310.03999999999996" y="247.86" type="curve" smooth="yes"/>
      <point x="388.28" y="740.0" type="line"/>
    </contour>
  </outline>
</glyph>
<glyph name="m" format="2">
  <advance width="1239.8000000000002"/>
  <unicode hex="006D"/>
  <note>
24&gt;23 points
un point de trop dans la jointure avec 2e jambage
</note>
  <outline>
    <contour>
      <point x="1077.58" y="-10.0" type="curve" smooth="yes"/>
      <point x="1120.68" y="-10.0"/>
      <point x="1173.5000000000002" y="-6.279999999999999"/>
      <point x="1205.84" y="-0.14000000000000057" type="curve"/>
      <point x="1205.2799999999997" y="166.64" type="line"/>
      <point x="1198.3000000000002" y="165.07999999999998"/>
      <point x="1187.18" y="163.79999999999998"/>
      <point x="1179.7800000000002" y="163.79999999999998" type="curve" smooth="yes"/>
      <point x="1164.12" y="163.79999999999998"/>
      <point x="1156.74" y="174.20000000000002"/>
      <point x="1156.74" y="189.26000000000002" type="curve" smooth="yes"/>
      <point x="1156.74" y="228.22"/>
      <point x="1184.7" y="347.0"/>
      <point x="1184.7" y="393.9" type="curve" smooth="yes"/>
      <point x="1184.7" y="482.0"/>
      <point x="1120.12" y="557.2"/>
      <point x="974.3400000000001" y="557.2" type="curve" smooth="yes"/>
      <point x="875.12" y="557.2"/>
      <point x="820.9799999999999" y="524.98"/>
      <point x="730.5799999999999" y="468.97999999999996" type="curve"/>
      <point x="710.0" y="519.36"/>
      <point x="665.6" y="557.2"/>
      <point x="565.88" y="557.2" type="curve" smooth="yes"/>
      <point x="492.28" y="557.2"/>
      <point x="418.78000000000003" y="530.12"/>
      <point x="322.22" y="479.0" type="curve"/>
      <point x="332.64" y="547.2" type="line"/>
      <point x="110.68" y="547.2" type="line"/>
      <point x="24.240000000000002" y="0.0" type="line"/>
      <point x="271.14" y="0.0" type="line"/>
      <point x="325.96" y="351.8" type="line"/>
      <point x="365.28000000000003" y="370.64"/>
      <point x="396.94" y="381.67999999999995"/>
      <point x="426.85999999999996" y="381.67999999999995" type="curve" smooth="yes"/>
      <point x="475.88" y="381.67999999999995"/>
      <point x="499.41999999999996" y="355.4"/>
      <point x="499.41999999999996" y="311.52" type="curve" smooth="yes"/>
      <point x="499.41999999999996" y="292.21999999999997"/>
      <point x="476.78" y="148.66000000000003"/>
      <point x="453.5799999999999" y="0.0" type="curve"/>
      <point x="697.0400000000001" y="0.0" type="line"/>
      <point x="717.66" y="131.90000000000003"/>
      <point x="731.7" y="221.12"/>
      <point x="745.46" y="308.5" type="curve" smooth="yes"/>
      <point x="746.32" y="314.62000000000006"/>
      <point x="749.6199999999999" y="340.52"/>
      <point x="750.1999999999999" y="344.92" type="curve"/>
      <point x="790.56" y="368.22"/>
      <point x="821.64" y="379.09999999999997"/>
      <point x="855.3800000000001" y="379.09999999999997" type="curve" smooth="yes"/>
      <point x="907.0" y="379.09999999999997"/>
      <point x="927.1999999999999" y="354.92"/>
      <point x="927.1999999999999" y="315.8" type="curve" smooth="yes"/>
      <point x="927.1999999999999" y="280.7"/>
      <point x="901.2399999999999" y="152.68"/>
      <point x="901.2399999999999" y="121.03999999999999" type="curve" smooth="yes"/>
      <point x="901.2399999999999" y="32.2"/>
      <point x="978.4000000000001" y="-10.0"/>
    </contour>
  </outline>
</glyph>
<glyph name="n" format="2">
  <advance width="850.6400000000001"/>
  <unicode hex="006E"/>
  <note>
16
</note>
  <anchor x="395.58" y="0.0" name="bottom"/>
  <anchor x="460.92" y="547.2" name="top"/>
  <outline>
    <contour>
      <point x="110.68" y="547.2" type="line"/>
      <point x="24.240000000000002" y="0.0" type="line"/>
      <point x="270.28" y="0.0" type="line"/>
      <point x="325.82" y="343.92" type="line"/>
      <point x="368.08" y="363.34"/>
      <point x="423.1" y="381.68"/>
      <point x="466.94000000000005" y="381.68" type="curve" smooth="yes"/>
      <point x="515.5600000000001" y="381.68"/>
      <point x="538.76" y="360.94"/>
      <point x="538.76" y="320.1" type="curve" smooth="yes"/>
      <point x="538.76" y="280.7"/>
      <point x="511.93999999999994" y="161.28"/>
      <point x="511.93999999999994" y="121.04" type="curve" smooth="yes"/>
      <point x="511.93999999999994" y="32.199999999999996"/>
      <point x="589.24" y="-10.0"/>
      <point x="688.42" y="-10.0" type="curve" smooth="yes"/>
      <point x="731.52" y="-10.0"/>
      <point x="784.34" y="-6.279999999999999"/>
      <point x="816.6800000000001" y="-0.14000000000000057" type="curve"/>
      <point x="816.12" y="166.64" type="line"/>
      <point x="809.14" y="165.07999999999998"/>
      <point x="798.02" y="163.79999999999998"/>
      <point x="790.62" y="163.79999999999998" type="curve" smooth="yes"/>
      <point x="774.96" y="163.79999999999998"/>
      <point x="767.44" y="174.34"/>
      <point x="767.44" y="189.4" type="curve" smooth="yes"/>
      <point x="767.44" y="228.35999999999999"/>
      <point x="795.4" y="347.0"/>
      <point x="795.4" y="393.9" type="curve" smooth="yes"/>
      <point x="795.4" y="494.04"/>
      <point x="715.48" y="557.2"/>
      <point x="585.18" y="557.2" type="curve" smooth="yes"/>
      <point x="493.18" y="557.2"/>
      <point x="402.92" y="527.68"/>
      <point x="327.1" y="478.58" type="curve"/>
      <point x="337.8" y="547.2" type="line"/>
    </contour>
  </outline>
</glyph>
<glyph name="o" format="2">
  <advance width="839.72"/>
  <unicode hex="006F"/>
  <note>
8
</note>
  <anchor x="379.91999999999996" y="0.0" name="bottom"/>
  <anchor x="420.00000000000006" y="275.0" name="center"/>
  <anchor x="516.5200000000001" y="0.0" name="ogonek"/>
  <anchor x="450.32" y="547.1999999999999" name="top"/>
  <anchor x="691.88" y="538.5999999999999" name="topright"/>
  <outline>
    <contour>
      <point x="413.0" y="-9.28" type="curve" smooth="yes"/>
      <point x="645.48" y="-9.28"/>
      <point x="800.3599999999999" y="77.4"/>
      <point x="804.8399999999999" y="290.56000000000006" type="curve" smooth="yes"/>
      <point x="807.8799999999999" y="479.48"/>
      <point x="661.1600000000001" y="558.48"/>
      <point x="426.1600000000001" y="558.48" type="curve" smooth="yes"/>
      <point x="193.68000000000004" y="558.48"/>
      <point x="38.8" y="471.79999999999995"/>
      <point x="34.32" y="258.64" type="curve" smooth="yes"/>
      <point x="31.28" y="69.72000000000001"/>
      <point x="178.0" y="-9.28"/>
    </contour>
    <contour>
      <point x="414.0" y="139.0" type="curve" smooth="yes"/>
      <point x="327.56" y="139.0"/>
      <point x="282.08" y="178.15999999999997"/>
      <point x="282.08" y="260.12" type="curve" smooth="yes"/>
      <point x="282.08" y="355.75999999999993"/>
      <point x="330.88" y="410.2"/>
      <point x="425.15999999999997" y="410.2" type="curve" smooth="yes"/>
      <point x="510.87999999999994" y="410.2"/>
      <point x="557.08" y="370.59999999999997"/>
      <point x="557.08" y="288.64" type="curve" smooth="yes"/>
      <point x="557.08" y="192.99999999999997"/>
      <point x="508.2800000000001" y="139.0"/>
    </contour>
  </outline>
</glyph>
<glyph name="p" format="2">
  <advance width="868.84"/>
  <unicode hex="0070"/>
  <note>
14 point
</note>
  <outline>
    <contour>
      <point x="-8.759999999999998" y="-210.0" type="line"/>
      <point x="236.41999999999996" y="-210.0" type="line"/>
      <point x="271.55999999999995" y="3.0999999999999996" type="line"/>
      <point x="305.78" y="-3.74"/>
      <point x="356.71999999999997" y="-10.0"/>
      <point x="408.46" y="-10.0" type="curve" smooth="yes"/>
      <point x="699.76" y="-10.0"/>
      <point x="838.5000000000001" y="106.52"/>
      <point x="838.5000000000001" y="335.90000000000003" type="curve" smooth="yes"/>
      <point x="838.5000000000001" y="465.44"/>
      <point x="765.26" y="557.2"/>
      <point x="612.2399999999999" y="557.2" type="curve" smooth="yes"/>
      <point x="504.3" y="557.2"/>
      <point x="422.5" y="529.86"/>
      <point x="322.38" y="474.91999999999996" type="curve"/>
      <point x="335.21999999999997" y="547.2" type="line"/>
      <point x="110.67999999999998" y="547.2" type="line"/>
    </contour>
    <contour>
      <point x="416.34" y="142.29999999999998" type="curve" smooth="yes"/>
      <point x="371.20000000000005" y="142.29999999999998"/>
      <point x="329.71999999999997" y="149.83999999999997"/>
      <point x="296.05999999999995" y="159.12" type="curve"/>
      <point x="323.54" y="335.40000000000003" type="line"/>
      <point x="375.74" y="359.04"/>
      <point x="434.74" y="378.24"/>
      <point x="488.2800000000001" y="378.24" type="curve" smooth="yes"/>
      <point x="548.58" y="378.24"/>
      <point x="589.88" y="351.1"/>
      <point x="589.88" y="285.46" type="curve" smooth="yes"/>
      <point x="589.88" y="193.92000000000002"/>
      <point x="508.73999999999995" y="142.29999999999998"/>
    </contour>
  </outline>
</glyph>
<glyph name="q" format="2">
  <advance width="869.7"/>
  <unicode hex="0071"/>
  <note>
12
</note>
  <outline>
    <contour>
      <point x="840.3199999999999" y="516.74" type="line"/>
      <point x="746.3799999999999" y="539.62"/>
      <point x="597.0" y="557.2"/>
      <point x="458.84000000000003" y="557.2" type="curve" smooth="yes"/>
      <point x="169.14000000000004" y="557.2"/>
      <point x="30.78" y="442.09999999999997"/>
      <point x="30.78" y="224.64" type="curve" smooth="yes"/>
      <point x="30.78" y="85.72"/>
      <point x="118.89999999999999" y="-10.0"/>
      <point x="292.26" y="-10.0" type="curve" smooth="yes"/>
      <point x="370.85999999999996" y="-10.0"/>
      <point x="435.74000000000007" y="14.38"/>
      <point x="521.8199999999999" y="67.44" type="curve"/>
      <point x="477.7" y="-210.0" type="line"/>
      <point x="723.7399999999999" y="-210.0" type="line"/>
    </contour>
    <contour>
      <point x="571.64" y="382.92" type="curve"/>
      <point x="542.88" y="202.1" type="line"/>
      <point x="493.8399999999999" y="177.6"/>
      <point x="438.53999999999996" y="161.22"/>
      <point x="388.0" y="161.22" type="curve" smooth="yes"/>
      <point x="327.1" y="161.22"/>
      <point x="277.82" y="195.07999999999998"/>
      <point x="277.82" y="259.74" type="curve" smooth="yes"/>
      <point x="277.82" y="348.4"/>
      <point x="348.98" y="397.15999999999997"/>
      <point x="458.42" y="397.15999999999997" type="curve" smooth="yes"/>
      <point x="499.26" y="397.15999999999997"/>
      <point x="539.56" y="392.20000000000005"/>
    </contour>
  </outline>
</glyph>
<glyph name="r" format="2">
  <advance width="614.98"/>
  <unicode hex="0072"/>
  <anchor x="141.6" y="0.0" name="bottom"/>
  <anchor x="371.29999999999995" y="547.2" name="top"/>
  <outline>
    <contour>
      <point x="330.78000000000003" y="547.2" type="line"/>
      <point x="112.4" y="547.2" type="line"/>
      <point x="23.380000000000003" y="0.0" type="line"/>
      <point x="271.0" y="0.0" type="line"/>
      <point x="322.40000000000003" y="317.08000000000004" type="line"/>
      <point x="387.22" y="350.42"/>
      <point x="436.03999999999996" y="361.03999999999996"/>
      <point x="480.32" y="361.03999999999996" type="curve" smooth="yes"/>
      <point x="515.88" y="361.03999999999996"/>
      <point x="548.26" y="354.9"/>
      <point x="587.28" y="345.76" type="curve"/>
      <point x="651.76" y="543.5" type="line"/>
      <point x="620.6" y="551.64"/>
      <point x="585.5" y="557.2"/>
      <point x="552.4200000000001" y="557.2" type="curve" smooth="yes"/>
      <point x="474.32" y="557.2"/>
      <point x="419.29999999999995" y="530.8"/>
      <point x="316.94" y="457.02" type="curve"/>
    </contour>
  </outline>
</glyph>
<glyph name="s" format="2">
  <advance width="666.1200000000001"/>
  <unicode hex="0073"/>
  <anchor x="328.71999999999997" y="0.0" name="bottom"/>
  <anchor x="377.92" y="547.1999999999999" name="top"/>
  <outline>
    <contour>
      <point x="-13.240000000000002" y="30.96" type="line"/>
      <point x="80.4" y="6.68"/>
      <point x="176.64" y="-10.0"/>
      <point x="289.15999999999997" y="-10.0" type="curve" smooth="yes"/>
      <point x="442.28" y="-10.0"/>
      <point x="630.12" y="12.160000000000005"/>
      <point x="630.12" y="193.60000000000002" type="curve" smooth="yes"/>
      <point x="630.12" y="385.0"/>
      <point x="283.56" y="328.08"/>
      <point x="283.56" y="379.80000000000007" type="curve" smooth="yes"/>
      <point x="283.56" y="399.64"/>
      <point x="310.04" y="412.8"/>
      <point x="363.32" y="412.8" type="curve" smooth="yes"/>
      <point x="428.36" y="412.8"/>
      <point x="529.0" y="401.96000000000004"/>
      <point x="591.1199999999999" y="381.68" type="curve"/>
      <point x="638.4000000000001" y="522.9200000000001" type="line"/>
      <point x="565.52" y="543.2"/>
      <point x="492.59999999999997" y="557.1999999999999"/>
      <point x="391.67999999999995" y="557.1999999999999" type="curve" smooth="yes"/>
      <point x="203.44" y="557.1999999999999"/>
      <point x="49.839999999999996" y="510.52000000000004"/>
      <point x="49.839999999999996" y="353.44" type="curve" smooth="yes"/>
      <point x="49.839999999999996" y="150.44"/>
      <point x="391.36" y="224.84"/>
      <point x="391.36" y="159.35999999999999" type="curve" smooth="yes"/>
      <point x="391.36" y="140.0"/>
      <point x="357.2" y="130.36"/>
      <point x="307.48" y="130.36" type="curve" smooth="yes"/>
      <point x="228.08" y="130.36"/>
      <point x="103.88000000000001" y="147.59999999999997"/>
      <point x="31.72" y="170.44" type="curve"/>
    </contour>
  </outline>
</glyph>
<glyph name="t" format="2">
  <advance width="595.5600000000001"/>
  <unicode hex="0074"/>
  <anchor x="286.96" y="0.0" name="bottom"/>
  <anchor x="295.36" y="275.0" name="center"/>
  <anchor x="310.26000000000005" y="665.0" name="top"/>
  <anchor x="513.62" y="790.7" name="topright"/>
  <outline>
    <contour>
      <point x="536.58" y="197.78000000000003" type="line"/>
      <point x="478.88" y="185.96"/>
      <point x="442.55999999999995" y="177.56"/>
      <point x="409.24" y="177.56" type="curve" smooth="yes"/>
      <point x="367.15999999999997" y="177.56"/>
      <point x="348.78" y="193.01999999999998"/>
      <point x="348.78" y="224.32" type="curve" smooth="yes"/>
      <point x="348.78" y="230.71999999999997"/>
      <point x="348.92" y="237.26"/>
      <point x="350.2" y="244.66" type="curve" smooth="yes"/>
      <point x="374.82" y="390.88" type="line"/>
      <point x="566.78" y="390.88" type="line"/>
      <point x="593.86" y="547.2" type="line"/>
      <point x="399.32" y="547.2" type="line"/>
      <point x="418.73999999999995" y="665.0" type="line"/>
      <point x="201.34000000000003" y="665.0" type="line"/>
      <point x="156.72" y="547.2" type="line"/>
      <point x="41.3" y="529.1600000000001" type="line"/>
      <point x="16.8" y="390.88" type="line"/>
      <point x="127.06" y="390.88" type="line"/>
      <point x="103.30000000000001" y="236.92" type="line" smooth="yes"/>
      <point x="98.58000000000001" y="208.6"/>
      <point x="96.58000000000001" y="183.16"/>
      <point x="96.58000000000001" y="160.98" type="curve" smooth="yes"/>
      <point x="96.58000000000001" y="31.439999999999998"/>
      <point x="174.36" y="-10.0"/>
      <point x="295.6" y="-10.0" type="curve" smooth="yes"/>
      <point x="377.12" y="-10.0"/>
      <point x="445.52000000000004" y="2.72"/>
      <point x="531.4000000000001" y="23.260000000000005" type="curve"/>
    </contour>
  </outline>
</glyph>
<glyph name="u" format="2">
  <advance width="850.44"/>
  <unicode hex="0075"/>
  <note>
15
</note>
  <anchor x="379.82000000000005" y="0.0" name="bottom"/>
  <anchor x="808.3599999999999" y="22.36" name="ogonek"/>
  <anchor x="456.96000000000004" y="547.2" name="top"/>
  <anchor x="812.92" y="547.2" name="topright"/>
  <outline>
    <contour>
      <point x="259.5" y="-10.0" type="curve" smooth="yes"/>
      <point x="340.78" y="-10.0"/>
      <point x="435.64" y="19.119999999999997"/>
      <point x="519.0799999999999" y="70.94" type="curve"/>
      <point x="540.5799999999999" y="24.74"/>
      <point x="593.38" y="-10.0"/>
      <point x="664.02" y="-10.0" type="curve" smooth="yes"/>
      <point x="713.3" y="-10.0"/>
      <point x="767.6999999999999" y="4.18"/>
      <point x="808.3599999999999" y="31.82" type="curve"/>
      <point x="806.22" y="166.64000000000001" type="line"/>
      <point x="793.0799999999999" y="162.5"/>
      <point x="785.54" y="162.07999999999998"/>
      <point x="781.98" y="162.07999999999998" type="curve" smooth="yes"/>
      <point x="768.06" y="162.07999999999998"/>
      <point x="756.52" y="169.9"/>
      <point x="756.52" y="192.64000000000001" type="curve" smooth="yes"/>
      <point x="756.52" y="198.03999999999996"/>
      <point x="757.5200000000001" y="209.12"/>
      <point x="812.9200000000001" y="547.2" type="curve"/>
      <point x="565.02" y="547.2" type="line"/>
      <point x="511.48" y="199.16000000000003" type="line"/>
      <point x="471.62" y="180.02"/>
      <point x="418.59999999999997" y="163.8"/>
      <point x="374.44" y="163.8" type="curve" smooth="yes"/>
      <point x="328.36" y="163.8"/>
      <point x="303.02" y="181.26"/>
      <point x="303.02" y="225.14" type="curve" smooth="yes"/>
      <point x="303.02" y="251.18"/>
      <point x="308.31999999999994" y="273.15999999999997"/>
      <point x="355.58" y="547.2" type="curve"/>
      <point x="107.82" y="547.2" type="line"/>
      <point x="48.519999999999996" y="183.76"/>
      <point x="47.519999999999996" y="171.64"/>
      <point x="47.519999999999996" y="151.04000000000002" type="curve" smooth="yes"/>
      <point x="47.519999999999996" y="50.0"/>
      <point x="121.58000000000001" y="-10.0"/>
    </contour>
  </outline>
</glyph>
<glyph name="v" format="2">
  <advance width="759.46"/>
  <unicode hex="0076"/>
  <outline>
    <contour>
      <point x="432.44" y="0.0" type="line"/>
      <point x="634.74" y="205.98000000000002"/>
      <point x="755.12" y="362.58"/>
      <point x="787.5" y="547.2" type="curve"/>
      <point x="525.26" y="547.2" type="line"/>
      <point x="513.96" y="446.29999999999995"/>
      <point x="452.94000000000005" y="319.8"/>
      <point x="344.59999999999997" y="180.68" type="curve"/>
      <point x="286.9" y="548.6" type="line"/>
      <point x="25.659999999999997" y="547.62" type="line"/>
      <point x="161.60000000000002" y="0.0" type="line"/>
    </contour>
  </outline>
</glyph>
<glyph name="w" format="2">
  <advance width="1026.0"/>
  <unicode hex="0077"/>
  <note>
15
</note>
  <anchor x="464.88" y="0.0" name="bottom"/>
  <anchor x="540.4000000000001" y="547.2" name="top"/>
  <outline>
    <contour>
      <point x="818.96" y="0.0" type="line"/>
      <point x="937.9599999999999" y="203.91999999999996"/>
      <point x="1036.84" y="399.72"/>
      <point x="1036.84" y="547.2" type="curve"/>
      <point x="820.32" y="547.2" type="line"/>
      <point x="816.88" y="441.12"/>
      <point x="779.12" y="319.87999999999994"/>
      <point x="707.76" y="156.60000000000002" type="curve"/>
      <point x="680.76" y="547.2" type="line"/>
      <point x="410.64" y="547.2" type="line"/>
      <point x="374.44" y="383.79999999999995"/>
      <point x="332.04" y="284.44"/>
      <point x="286.24" y="157.87999999999997" type="curve"/>
      <point x="259.0799999999999" y="548.6" type="line"/>
      <point x="38.84" y="547.76" type="line"/>
      <point x="105.24000000000001" y="0.0" type="line"/>
      <point x="393.28000000000003" y="0.0" type="line"/>
      <point x="436.24" y="88.00000000000001"/>
      <point x="493.23999999999995" y="232.08"/>
      <point x="514.12" y="303.6" type="curve"/>
      <point x="555.72" y="0.0" type="line"/>
    </contour>
  </outline>
</glyph>
<glyph name="x" format="2">
  <advance width="775.04"/>
  <unicode hex="0078"/>
  <outline>
    <contour>
      <point x="538.84" y="547.2" type="line"/>
      <point x="509.91999999999996" y="468.32"/>
      <point x="483.40000000000003" y="425.36"/>
      <point x="412.03999999999996" y="356.68" type="curve"/>
      <point x="334.91999999999996" y="550.5600000000001" type="line"/>
      <point x="73.44000000000001" y="546.9200000000001" type="line"/>
      <point x="206.87999999999997" y="282.47999999999996" type="line"/>
      <point x="93.36" y="172.72"/>
      <point x="32.92" y="92.67999999999999"/>
      <point x="-13.240000000000002" y="0.0" type="curve"/>
      <point x="252.72" y="0.0" type="line"/>
      <point x="283.0" y="73.2"/>
      <point x="313.76" y="133.36"/>
      <point x="374.4" y="197.32" type="curve"/>
      <point x="458.96" y="-1.1199999999999994" type="line"/>
      <point x="724.64" y="1.12" type="line"/>
      <point x="579.16" y="271.52" type="line"/>
      <point x="681.56" y="360.52000000000004"/>
      <point x="743.0" y="427.28000000000003"/>
      <point x="799.36" y="547.2" type="curve"/>
    </contour>
  </outline>
</glyph>
<glyph name="y" format="2">
  <advance width="753.2400000000001"/>
  <unicode hex="0079"/>
  <anchor x="565.96" y="-58.80000000000001" name="bottom"/>
  <anchor x="407.67999999999995" y="547.1999999999999" name="top"/>
  <outline>
    <contour>
      <point x="528.8" y="547.2" type="line"/>
      <point x="500.40000000000003" y="422.1200000000001"/>
      <point x="439.51999999999987" y="274.76"/>
      <point x="356.4" y="147.64000000000001" type="curve"/>
      <point x="279.0" y="548.6" type="line"/>
      <point x="28.240000000000002" y="547.76" type="line"/>
      <point x="152.76000000000005" y="-1.4000000000000004" type="line"/>
      <point x="255.95999999999998" y="-1.4000000000000004" type="line"/>
      <point x="199.15999999999997" y="-73.64000000000001"/>
      <point x="130.15999999999997" y="-143.92000000000002"/>
      <point x="59.239999999999995" y="-209.44" type="curve"/>
      <point x="327.92" y="-211.68" type="line"/>
      <point x="531.8399999999999" y="-4.31999999999999"/>
      <point x="750.12" y="353.24"/>
      <point x="777.28" y="547.2000000000002" type="curve"/>
    </contour>
  </outline>
</glyph>
<glyph name="z" format="2">
  <advance width="779.6"/>
  <unicode hex="007A"/>
  <anchor x="355.34" y="0.0" name="bottom"/>
  <anchor x="395.98" y="275.0" name="center"/>
  <anchor x="438.15999999999997" y="547.2" name="top"/>
  <outline>
    <contour>
      <point x="10.799999999999999" y="0.0" type="line"/>
      <point x="697.1600000000001" y="0.0" type="line"/>
      <point x="723.38" y="158.32" type="line"/>
      <point x="381.34000000000003" y="158.32" type="line"/>
      <point x="738.0" y="406.22" type="line"/>
      <point x="760.78" y="547.2" type="line"/>
      <point x="118.58000000000001" y="547.2" type="line"/>
      <point x="91.5" y="388.88" type="line"/>
      <point x="397.98" y="388.88" type="line"/>
      <point x="31.720000000000002" y="135.82" type="line"/>
    </contour>
  </outline>
</glyph>
<glyph name="braceleft" format="2">
  <advance width="494.4"/>
  <unicode hex="007B"/>
  <outline>
    <contour>
      <point x="64.03999999999999" y="-71.61999999999999" type="curve" smooth="yes"/>
      <point x="64.03999999999999" y="-169.32"/>
      <point x="142.48" y="-210.0"/>
      <point x="249.46" y="-210.0" type="curve" smooth="yes"/>
      <point x="380.12" y="-210.0" type="line"/>
      <point x="402.03999999999996" y="-71.32000000000001" type="line"/>
      <point x="335.88" y="-71.32000000000001" type="line" smooth="yes"/>
      <point x="294.5" y="-71.32000000000001"/>
      <point x="277.54" y="-53.980000000000004"/>
      <point x="277.54" y="-25.479999999999997" type="curve" smooth="yes"/>
      <point x="277.54" y="41.44"/>
      <point x="342.66" y="91.9"/>
      <point x="342.66" y="171.08" type="curve" smooth="yes"/>
      <point x="342.66" y="206.79999999999998"/>
      <point x="326.8" y="238.24"/>
      <point x="270.0" y="264.86" type="curve"/>
      <point x="341.74" y="294.64"/>
      <point x="381.38" y="339.26"/>
      <point x="381.38" y="412.06" type="curve" smooth="yes"/>
      <point x="381.38" y="451.34"/>
      <point x="364.48" y="472.41999999999996"/>
      <point x="364.48" y="523.1999999999999" type="curve" smooth="yes"/>
      <point x="364.48" y="566.4"/>
      <point x="389.36" y="601.3199999999999"/>
      <point x="443.03999999999996" y="601.3199999999999" type="curve" smooth="yes"/>
      <point x="509.19999999999993" y="601.3199999999999" type="line"/>
      <point x="531.12" y="740.0" type="line"/>
      <point x="400.46" y="740.0" type="line" smooth="yes"/>
      <point x="253.52" y="740.0"/>
      <point x="160.3" y="658.24"/>
      <point x="160.3" y="525.78" type="curve" smooth="yes"/>
      <point x="160.3" y="475.28000000000003"/>
      <point x="176.34" y="438.74"/>
      <point x="176.34" y="405.64" type="curve" smooth="yes"/>
      <point x="176.34" y="358.92"/>
      <point x="153.89999999999998" y="333.34"/>
      <point x="114.44000000000001" y="333.34" type="curve" smooth="yes"/>
      <point x="98.16" y="333.34" type="line"/>
      <point x="76.24000000000001" y="196.51999999999998" type="line"/>
      <point x="92.66000000000001" y="196.51999999999998" type="line" smooth="yes"/>
      <point x="125.91999999999999" y="196.51999999999998"/>
      <point x="137.9" y="183.0"/>
      <point x="137.9" y="159.32" type="curve" smooth="yes"/>
      <point x="137.9" y="97.36"/>
      <point x="64.03999999999999" y="25.520000000000003"/>
    </contour>
  </outline>
</glyph>
<glyph name="bar" format="2">
  <advance width="338.11999999999995"/>
  <unicode hex="007C"/>
  <outline>
    <contour>
      <point x="344.34" y="790.0" type="line"/>
      <point x="160.35999999999999" y="790.0" type="line"/>
      <point x="-1.2199999999999918" y="-210.0" type="line"/>
      <point x="181.9" y="-210.0" type="line"/>
    </contour>
  </outline>
</glyph>
<glyph name="braceright" format="2">
  <advance width="494.4"/>
  <unicode hex="007D"/>
  <outline>
    <contour>
      <point x="427.22" y="601.62" type="curve" smooth="yes"/>
      <point x="427.22" y="699.32"/>
      <point x="348.78" y="740.0"/>
      <point x="241.8" y="740.0" type="curve" smooth="yes"/>
      <point x="111.13999999999999" y="740.0" type="line"/>
      <point x="89.22" y="601.3199999999999" type="line"/>
      <point x="155.38" y="601.3199999999999" type="line" smooth="yes"/>
      <point x="196.76000000000002" y="601.3199999999999"/>
      <point x="213.72000000000003" y="583.98"/>
      <point x="213.72000000000003" y="555.48" type="curve" smooth="yes"/>
      <point x="213.72000000000003" y="488.56"/>
      <point x="148.6" y="438.1"/>
      <point x="148.6" y="358.92" type="curve" smooth="yes"/>
      <point x="148.6" y="323.20000000000005"/>
      <point x="164.46" y="291.76"/>
      <point x="221.26000000000002" y="265.14" type="curve"/>
      <point x="149.51999999999998" y="235.36"/>
      <point x="109.88000000000001" y="190.74"/>
      <point x="109.88000000000001" y="117.94" type="curve" smooth="yes"/>
      <point x="109.88000000000001" y="78.66"/>
      <point x="126.78" y="57.58"/>
      <point x="126.78" y="6.800000000000001" type="curve" smooth="yes"/>
      <point x="126.78" y="-36.4"/>
      <point x="101.9" y="-71.32000000000001"/>
      <point x="48.22" y="-71.32000000000001" type="curve" smooth="yes"/>
      <point x="-17.94" y="-71.32000000000001" type="line"/>
      <point x="-39.86" y="-210.0" type="line"/>
      <point x="90.8" y="-210.0" type="line" smooth="yes"/>
      <point x="237.74" y="-210.0"/>
      <point x="330.96000000000004" y="-128.24"/>
      <point x="330.96000000000004" y="4.219999999999999" type="curve" smooth="yes"/>
      <point x="330.96000000000004" y="54.72"/>
      <point x="314.92" y="91.25999999999999"/>
      <point x="314.92" y="124.36" type="curve" smooth="yes"/>
      <point x="314.92" y="171.08"/>
      <point x="337.35999999999996" y="196.66"/>
      <point x="376.82" y="196.66" type="curve" smooth="yes"/>
      <point x="393.1" y="196.66" type="line"/>
      <point x="415.02" y="333.48" type="line"/>
      <point x="398.6" y="333.48" type="line" smooth="yes"/>
      <point x="365.34000000000003" y="333.48"/>
      <point x="353.36" y="347.0"/>
      <point x="353.36" y="370.68" type="curve" smooth="yes"/>
      <point x="353.36" y="432.64"/>
      <point x="427.22" y="504.48"/>
    </contour>
  </outline>
</glyph>
<glyph name="asciitilde" format="2">
  <advance width="713.6599999999999"/>
  <unicode hex="007E"/>
  <outline>
    <contour>
      <point x="643.68" y="223.70000000000002" type="curve"/>
      <point x="670.04" y="404.21999999999997" type="line"/>
      <point x="635.4399999999999" y="376.48"/>
      <point x="591.8199999999999" y="363.24"/>
      <point x="538.3399999999999" y="363.24" type="curve" smooth="yes"/>
      <point x="392.24" y="363.24"/>
      <point x="302.46" y="448.04"/>
      <point x="208.56" y="448.04" type="curve" smooth="yes"/>
      <point x="139.86" y="448.04"/>
      <point x="101.56" y="420.02"/>
      <point x="86.88" y="411.34000000000003" type="curve"/>
      <point x="56.21999999999999" y="230.68" type="line"/>
      <point x="95.56" y="252.84000000000003"/>
      <point x="121.39999999999999" y="264.64"/>
      <point x="178.32" y="264.64" type="curve" smooth="yes"/>
      <point x="307.36" y="264.64"/>
      <point x="391.84" y="179.84"/>
      <point x="523.5799999999999" y="179.84" type="curve" smooth="yes"/>
      <point x="561.72" y="179.84"/>
      <point x="615.38" y="199.4"/>
    </contour>
  </outline>
</glyph>
<glyph name="cent" format="2">
  <advance width="1047.76"/>
  <unicode hex="00A2"/>
  <outline>
    <contour>
      <point x="390.82000000000005" y="-104.14" type="line"/>
      <point x="554.16" y="-104.14" type="line"/>
      <point x="570.0200000000001" y="-9.0" type="line"/>
      <point x="661.74" y="-6.58"/>
      <point x="746.8199999999999" y="2.66"/>
      <point x="825.36" y="22.400000000000006" type="curve"/>
      <point x="824.66" y="179.85999999999999" type="line"/>
      <point x="719.48" y="162.56"/>
      <point x="661.0" y="157.78"/>
      <point x="602.42" y="157.78" type="curve" smooth="yes"/>
      <point x="489.67999999999995" y="157.78"/>
      <point x="431.4" y="188.2"/>
      <point x="431.4" y="248.62" type="curve" smooth="yes"/>
      <point x="431.4" y="351.12"/>
      <point x="527.5600000000001" y="385.12"/>
      <point x="623.62" y="385.12" type="curve" smooth="yes"/>
      <point x="694.0600000000001" y="385.12"/>
      <point x="739.36" y="377.16"/>
      <point x="840.36" y="355.72" type="curve"/>
      <point x="894.52" y="523.64" type="line"/>
      <point x="817.0799999999999" y="542.1999999999999"/>
      <point x="756.58" y="555.48"/>
      <point x="661.3199999999999" y="557.2" type="curve"/>
      <point x="678.04" y="652.2" type="line"/>
      <point x="514.6999999999999" y="652.2" type="line"/>
      <point x="495.4000000000001" y="540.72" type="line"/>
      <point x="306.62" y="505.2"/>
      <point x="178.48000000000002" y="393.1"/>
      <point x="178.48000000000002" y="205.89999999999998" type="curve" smooth="yes"/>
      <point x="178.48000000000002" y="85.36"/>
      <point x="256.18" y="18.52"/>
      <point x="408.26000000000005" y="-1.2599999999999998" type="curve"/>
    </contour>
  </outline>
</glyph>
<glyph name="sterling" format="2">
  <advance width="1047.7600000000002"/>
  <unicode hex="00A3"/>
  <outline>
    <contour>
      <point x="115.28" y="0.0" type="line"/>
      <point x="854.32" y="0.0" type="line"/>
      <point x="880.6800000000001" y="166.2" type="line"/>
      <point x="425.48" y="166.2" type="line"/>
      <point x="472.32" y="194.56"/>
      <point x="504.40000000000003" y="230.20000000000002"/>
      <point x="504.40000000000003" y="283.52" type="curve" smooth="yes"/>
      <point x="504.40000000000003" y="322.11999999999995"/>
      <point x="464.32000000000005" y="390.0"/>
      <point x="464.32000000000005" y="444.52" type="curve" smooth="yes"/>
      <point x="464.32000000000005" y="504.64000000000004"/>
      <point x="531.88" y="536.4799999999999"/>
      <point x="642.44" y="536.4799999999999" type="curve" smooth="yes"/>
      <point x="738.16" y="536.4799999999999"/>
      <point x="808.4799999999999" y="526.48"/>
      <point x="892.96" y="498.91999999999996" type="curve"/>
      <point x="949.84" y="663.8399999999999" type="line"/>
      <point x="849.1600000000001" y="695.1200000000001"/>
      <point x="779.1999999999999" y="710.0"/>
      <point x="647.5999999999999" y="710.0" type="curve" smooth="yes"/>
      <point x="481.76" y="710.0"/>
      <point x="230.31999999999996" y="668.0"/>
      <point x="230.31999999999996" y="483.52" type="curve" smooth="yes"/>
      <point x="230.31999999999996" y="405.08000000000004"/>
      <point x="275.56" y="340.76"/>
      <point x="275.56" y="284.23999999999995" type="curve" smooth="yes"/>
      <point x="275.56" y="224.92"/>
      <point x="231.12" y="188.0"/>
      <point x="137.2" y="138.68" type="curve"/>
    </contour>
    <contour>
      <point x="147.64000000000001" y="301.08" type="line"/>
      <point x="754.04" y="301.36" type="line"/>
      <point x="771.48" y="408.16" type="line"/>
      <point x="164.08" y="408.16" type="line"/>
    </contour>
  </outline>
</glyph>
<glyph name="currency" format="2">
  <advance width="557.9000000000001"/>
  <unicode hex="00A4"/>
  <outline>
    <contour>
      <point x="130.16" y="83.75999999999999" type="line"/>
      <point x="215.04" y="162.2" type="line"/>
      <point x="227.02" y="157.68"/>
      <point x="241.56" y="155.28"/>
      <point x="256.94" y="155.28" type="curve" smooth="yes"/>
      <point x="273.9" y="155.28"/>
      <point x="290.0" y="157.82000000000002"/>
      <point x="305.4" y="163.06" type="curve"/>
      <point x="366.56" y="83.75999999999999" type="line"/>
      <point x="476.02" y="185.48000000000002" type="line"/>
      <point x="426.17999999999995" y="251.01999999999998" type="line"/>
      <point x="441.86" y="279.16"/>
      <point x="451.26" y="311.28000000000003"/>
      <point x="451.26" y="347.54" type="curve" smooth="yes"/>
      <point x="451.26" y="358.5"/>
      <point x="449.56" y="369.32000000000005"/>
      <point x="447.16" y="378.58000000000004" type="curve"/>
      <point x="516.7" y="444.12" type="line"/>
      <point x="441.34" y="545.8399999999999" type="line"/>
      <point x="354.59999999999997" y="466.54" type="line"/>
      <point x="341.04" y="471.92"/>
      <point x="325.36" y="474.46"/>
      <point x="307.53999999999996" y="474.46" type="curve" smooth="yes"/>
      <point x="292.15999999999997" y="474.46"/>
      <point x="277.06" y="471.92"/>
      <point x="263.38" y="467.4" type="curve"/>
      <point x="204.08" y="545.8399999999999" type="line"/>
      <point x="94.62" y="444.12" type="line"/>
      <point x="140.02" y="382.88" type="line"/>
      <point x="122.48" y="354.88"/>
      <point x="113.22" y="321.03999999999996"/>
      <point x="113.22" y="284.92" type="curve" smooth="yes"/>
      <point x="113.22" y="271.09999999999997"/>
      <point x="114.92" y="257.7"/>
      <point x="118.18" y="246.58" type="curve"/>
      <point x="53.08" y="185.48000000000002" type="line"/>
    </contour>
    <contour>
      <point x="274.7" y="269.88" type="curve" smooth="yes"/>
      <point x="253.94" y="269.88"/>
      <point x="239.72000000000003" y="284.93999999999994"/>
      <point x="239.72" y="306.26" type="curve" smooth="yes"/>
      <point x="239.71999999999997" y="335.98"/>
      <point x="263.46" y="359.86"/>
      <point x="289.06" y="359.86" type="curve" smooth="yes"/>
      <point x="310.68" y="359.86"/>
      <point x="324.9" y="343.22"/>
      <point x="324.9" y="322.9" type="curve" smooth="yes"/>
      <point x="324.9" y="290.6"/>
      <point x="298.86" y="269.88"/>
    </contour>
  </outline>
</glyph>
<glyph name="yen" format="2">
  <advance width="1047.7600000000002"/>
  <unicode hex="00A5"/>
  <outline>
    <contour>
      <point x="162.84" y="310.23999999999995" type="line"/>
      <point x="391.28000000000003" y="310.23999999999995" type="line"/>
      <point x="382.72" y="257.16" type="line"/>
      <point x="154.28" y="257.16" type="line"/>
      <point x="140.84" y="170.08" type="line"/>
      <point x="369.28" y="170.08" type="line"/>
      <point x="342.0" y="0.0" type="line"/>
      <point x="612.1200000000001" y="0.0" type="line"/>
      <point x="639.4000000000001" y="170.08" type="line"/>
      <point x="878.16" y="170.08" type="line"/>
      <point x="891.6" y="257.16" type="line"/>
      <point x="652.84" y="257.16" type="line"/>
      <point x="661.4" y="310.23999999999995" type="line"/>
      <point x="900.16" y="310.23999999999995" type="line"/>
      <point x="913.6" y="397.32" type="line"/>
      <point x="674.84" y="397.32" type="line"/>
      <point x="1014.16" y="698.88" type="line"/>
      <point x="742.1199999999999" y="701.12" type="line"/>
      <point x="560.32" y="523.2" type="line"/>
      <point x="427.52" y="701.1199999999999" type="line"/>
      <point x="160.11999999999998" y="698.88" type="line"/>
      <point x="404.72" y="397.32" type="line"/>
      <point x="177.28" y="397.32" type="line"/>
    </contour>
  </outline>
</glyph>
<glyph name="brokenbar" format="2">
  <advance width="338.12"/>
  <unicode hex="00A6"/>
  <outline>
    <contour>
      <point x="279.48" y="391.0" type="line"/>
      <point x="344.34" y="790.0" type="line"/>
      <point x="160.36" y="790.0" type="line"/>
      <point x="95.49999999999999" y="391.0" type="line"/>
    </contour>
    <contour>
      <point x="63.64000000000001" y="190.0" type="line"/>
      <point x="-1.2199999999999918" y="-210.0" type="line"/>
      <point x="181.9" y="-210.0" type="line"/>
      <point x="246.76" y="190.0" type="line"/>
    </contour>
  </outline>
</glyph>
<glyph name="section" format="2">
  <advance width="705.9000000000001"/>
  <unicode hex="00A7"/>
  <outline>
    <contour>
      <point x="36.8" y="-2.3600000000000065" type="curve"/>
      <point x="-36.54" y="-184.34" type="line"/>
      <point x="40.22" y="-205.06"/>
      <point x="116.4" y="-220.0"/>
      <point x="193.76" y="-220.0" type="curve" smooth="yes"/>
      <point x="440.18" y="-220.0"/>
      <point x="652.9000000000001" y="-89.84"/>
      <point x="652.9000000000001" y="161.28" type="curve" smooth="yes"/>
      <point x="652.9000000000001" y="337.68"/>
      <point x="517.4200000000001" y="414.82"/>
      <point x="517.4200000000001" y="487.93999999999994" type="curve" smooth="yes"/>
      <point x="517.4200000000001" y="537.72"/>
      <point x="551.2599999999999" y="551.14"/>
      <point x="589.36" y="551.14" type="curve" smooth="yes"/>
      <point x="606.4000000000001" y="551.14"/>
      <point x="623.2" y="546.5999999999999"/>
      <point x="640.5799999999999" y="540.76" type="curve"/>
      <point x="695.88" y="735.34" type="line"/>
      <point x="637.72" y="744.1600000000001"/>
      <point x="575.3" y="750.0"/>
      <point x="513.46" y="750.0" type="curve" smooth="yes"/>
      <point x="256.6" y="750.0"/>
      <point x="58.52" y="613.62"/>
      <point x="58.52" y="397.4" type="curve" smooth="yes"/>
      <point x="58.52" y="202.07999999999998"/>
      <point x="199.9" y="122.05999999999999"/>
      <point x="199.9" y="30.439999999999998" type="curve" smooth="yes"/>
      <point x="199.9" y="-3.400000000000002"/>
      <point x="181.20000000000002" y="-25.900000000000016"/>
      <point x="142.12" y="-25.900000000000016" type="curve" smooth="yes"/>
      <point x="112.78" y="-25.900000000000016"/>
      <point x="77.67999999999999" y="-16.139999999999997"/>
    </contour>
    <contour>
      <point x="429.7" y="619.9" type="curve"/>
      <point x="355.26" y="587.28"/>
      <point x="332.58000000000004" y="529.1400000000001"/>
      <point x="332.58000000000004" y="464.29999999999995" type="curve" smooth="yes"/>
      <point x="332.58000000000004" y="353.62"/>
      <point x="456.02" y="213.74"/>
      <point x="456.02" y="102.38000000000001" type="curve" smooth="yes"/>
      <point x="456.02" y="-18.480000000000004"/>
      <point x="362.36" y="-106.46"/>
      <point x="236.36" y="-107.97999999999999" type="curve"/>
      <point x="325.56" y="-85.8"/>
      <point x="385.74" y="-16.34"/>
      <point x="385.74" y="65.41999999999999" type="curve" smooth="yes"/>
      <point x="385.74" y="171.44"/>
      <point x="263.56" y="305.3"/>
      <point x="263.56" y="425.06" type="curve" smooth="yes"/>
      <point x="263.56" y="529.6"/>
      <point x="316.0" y="603.72"/>
    </contour>
  </outline>
</glyph>
<glyph name="copyright" format="2">
  <advance width="921.6399999999999"/>
  <unicode hex="00A9"/>
  <outline>
    <contour>
      <point x="445.32" y="-10.0" type="curve" smooth="yes"/>
      <point x="705.72" y="-12.719999999999999"/>
      <point x="879.56" y="136.6"/>
      <point x="879.56" y="385.4" type="curve" smooth="yes"/>
      <point x="879.56" y="581.88"/>
      <point x="735.56" y="707.28"/>
      <point x="499.48" y="710.0" type="curve" smooth="yes"/>
      <point x="241.60000000000002" y="712.7199999999999"/>
      <point x="66.08000000000001" y="565.3599999999999"/>
      <point x="66.08000000000001" y="314.6" type="curve" smooth="yes"/>
      <point x="66.08000000000001" y="118.67999999999999"/>
      <point x="208.95999999999998" y="-7.28"/>
    </contour>
    <contour>
      <point x="456.56" y="174.6" type="curve" smooth="yes"/>
      <point x="534.5600000000001" y="174.6"/>
      <point x="603.0" y="190.32"/>
      <point x="655.28" y="209.32" type="curve"/>
      <point x="643.5600000000001" y="299.44" type="line"/>
      <point x="588.84" y="285.44"/>
      <point x="533.4000000000001" y="276.16"/>
      <point x="487.0400000000001" y="276.16" type="curve" smooth="yes"/>
      <point x="414.84000000000003" y="276.16"/>
      <point x="380.52000000000004" y="299.68000000000006"/>
      <point x="380.52000000000004" y="347.47999999999996" type="curve" smooth="yes"/>
      <point x="380.52000000000004" y="403.35999999999996"/>
      <point x="419.96000000000004" y="426.84000000000003"/>
      <point x="504.8399999999999" y="426.84000000000003" type="curve" smooth="yes"/>
      <point x="555.52" y="426.84000000000003"/>
      <point x="599.0799999999999" y="422.28"/>
      <point x="650.6400000000001" y="412.71999999999997" type="curve"/>
      <point x="674.52" y="509.28000000000003" type="line"/>
      <point x="626.9599999999999" y="521.56"/>
      <point x="570.4000000000001" y="529.1199999999999"/>
      <point x="508.84000000000003" y="529.1199999999999" type="curve" smooth="yes"/>
      <point x="350.4400000000001" y="529.1199999999999"/>
      <point x="247.32" y="470.87999999999994"/>
      <point x="247.32" y="337.59999999999997" type="curve" smooth="yes"/>
      <point x="247.32" y="233.88"/>
      <point x="328.15999999999997" y="174.6"/>
    </contour>
    <contour>
      <point x="457.20000000000005" y="72.55999999999999" type="curve" smooth="yes"/>
      <point x="262.47999999999996" y="72.55999999999999"/>
      <point x="161.96" y="161.16"/>
      <point x="161.96" y="325.04" type="curve" smooth="yes"/>
      <point x="161.96" y="517.76"/>
      <point x="283.71999999999997" y="627.7199999999999"/>
      <point x="487.8799999999999" y="627.7199999999999" type="curve" smooth="yes"/>
      <point x="674.0" y="627.7199999999999"/>
      <point x="783.68" y="538.84"/>
      <point x="783.68" y="374.68" type="curve" smooth="yes"/>
      <point x="783.68" y="181.96"/>
      <point x="661.36" y="72.55999999999999"/>
    </contour>
  </outline>
</glyph>
<glyph name="ordfeminine" format="2">
  <advance width="590.04"/>
  <unicode hex="00AA"/>
  <outline>
    <contour>
      <point x="29.9" y="184.7" type="line"/>
      <point x="523.1" y="184.7" type="line"/>
      <point x="541.58" y="303.32" type="line"/>
      <point x="48.38" y="303.32" type="line"/>
    </contour>
    <component base="a.superior" xOffset="9.400000000000002"/>
  </outline>
</glyph>
<glyph name="logicalnot" format="2">
  <advance width="709.0799999999999"/>
  <unicode hex="00AC"/>
  <outline>
    <contour>
      <point x="63.66" y="295.42" type="line"/>
      <point x="482.4" y="295.42" type="line"/>
      <point x="460.71999999999997" y="155.5" type="line"/>
      <point x="629.22" y="155.5" type="line"/>
      <point x="680.56" y="474.24" type="line"/>
      <point x="93.32" y="474.24" type="line"/>
    </contour>
  </outline>
</glyph>
<glyph name="registered" format="2">
  <advance width="851.5200000000001"/>
  <unicode hex="00AE"/>
  <outline>
    <contour>
      <point x="437.36" y="209.28" type="curve" smooth="yes"/>
      <point x="690.3200000000002" y="209.28"/>
      <point x="841.16" y="357.59999999999997"/>
      <point x="841.16" y="581.72" type="curve" smooth="yes"/>
      <point x="841.16" y="768.68"/>
      <point x="717.2000000000002" y="892.7199999999999"/>
      <point x="501.88000000000005" y="892.7199999999999" type="curve" smooth="yes"/>
      <point x="248.91999999999996" y="892.7199999999999"/>
      <point x="98.36" y="744.4000000000001"/>
      <point x="98.36" y="520.28" type="curve" smooth="yes"/>
      <point x="98.36" y="333.6"/>
      <point x="221.76" y="209.28"/>
    </contour>
    <contour>
      <point x="447.5199999999999" y="290.84000000000003" type="curve" smooth="yes"/>
      <point x="275.56" y="290.84000000000003"/>
      <point x="184.35999999999999" y="386.12"/>
      <point x="184.35999999999999" y="521.28" type="curve" smooth="yes"/>
      <point x="184.35999999999999" y="713.36"/>
      <point x="302.16" y="811.4399999999999"/>
      <point x="491.99999999999994" y="811.4399999999999" type="curve" smooth="yes"/>
      <point x="663.96" y="811.4399999999999"/>
      <point x="755.1599999999999" y="715.8799999999999"/>
      <point x="755.1599999999999" y="580.72" type="curve" smooth="yes"/>
      <point x="755.1599999999999" y="388.64"/>
      <point x="637.0799999999999" y="290.84000000000003"/>
    </contour>
    <contour>
      <point x="266.56" y="406.76" type="line"/>
      <point x="377.15999999999997" y="406.76" type="line"/>
      <point x="392.28" y="498.2" type="line"/>
      <point x="409.08" y="498.20000000000005"/>
      <point x="426.71999999999997" y="497.91999999999996"/>
      <point x="446.32" y="498.20000000000005" type="curve"/>
      <point x="557.8" y="530.12" type="line"/>
      <point x="617.56" y="528.6800000000001"/>
      <point x="673.9999999999999" y="546.52"/>
      <point x="673.9999999999999" y="627.96" type="curve" smooth="yes"/>
      <point x="673.9999999999999" y="682.08"/>
      <point x="627.88" y="706.0799999999999"/>
      <point x="493.32" y="706.0799999999999" type="curve" smooth="yes"/>
      <point x="465.79999999999995" y="706.0799999999999"/>
      <point x="404.32" y="705.36"/>
      <point x="313.40000000000003" y="700.6400000000001" type="curve"/>
    </contour>
    <contour>
      <point x="453.68" y="565.7199999999999" type="curve" smooth="yes"/>
      <point x="441.32" y="565.7199999999999"/>
      <point x="432.24" y="566.7199999999999"/>
      <point x="403.44" y="566.7199999999999" type="curve"/>
      <point x="412.56000000000006" y="626.8399999999999" type="line"/>
      <point x="452.52" y="627.4"/>
      <point x="458.0800000000001" y="627.4"/>
      <point x="487.88" y="627.4" type="curve" smooth="yes"/>
      <point x="541.88" y="627.4"/>
      <point x="557.6800000000001" y="622.28"/>
      <point x="557.6800000000001" y="604.64" type="curve" smooth="yes"/>
      <point x="557.6800000000001" y="572.84"/>
      <point x="546.1600000000001" y="565.7199999999999"/>
    </contour>
    <contour>
      <point x="638.1600000000001" y="402.31999999999994" type="curve" smooth="yes"/>
      <point x="640.88" y="402.31999999999994"/>
      <point x="643.88" y="402.32"/>
      <point x="646.16" y="402.32" type="curve"/>
      <point x="661.04" y="500.04" type="line"/>
      <point x="658.7600000000001" y="500.03999999999996"/>
      <point x="656.04" y="500.03999999999996"/>
      <point x="653.3199999999999" y="500.03999999999996" type="curve" smooth="yes"/>
      <point x="638.96" y="500.03999999999996"/>
      <point x="590.16" y="516.52"/>
      <point x="556.36" y="537.84" type="curve"/>
      <point x="419.44" y="505.63999999999993" type="line"/>
      <point x="489.44000000000005" y="461.44000000000005"/>
      <point x="558.4000000000001" y="402.31999999999994"/>
    </contour>
  </outline>
</glyph>
<glyph name="degree" format="2">
  <advance width="447.23999999999995"/>
  <unicode hex="00B0"/>
  <outline>
    <contour>
      <point x="241.11999999999998" y="339.40000000000003" type="curve" smooth="yes"/>
      <point x="357.6" y="339.40000000000003"/>
      <point x="446.71999999999997" y="428.68000000000006"/>
      <point x="446.71999999999997" y="559.16" type="curve" smooth="yes"/>
      <point x="446.71999999999997" y="636.6800000000001"/>
      <point x="403.4" y="710.8"/>
      <point x="285.16" y="710.8" type="curve" smooth="yes"/>
      <point x="168.95999999999998" y="710.8"/>
      <point x="79.84" y="620.96"/>
      <point x="79.84" y="490.76" type="curve" smooth="yes"/>
      <point x="79.84" y="413.52"/>
      <point x="122.88000000000001" y="339.40000000000003"/>
    </contour>
    <contour>
      <point x="255.72" y="472.59999999999997" type="curve" smooth="yes"/>
      <point x="230.32" y="472.59999999999997"/>
      <point x="216.20000000000002" y="489.28000000000003"/>
      <point x="216.20000000000002" y="512.96" type="curve" smooth="yes"/>
      <point x="216.20000000000002" y="550.92"/>
      <point x="239.44" y="577.6"/>
      <point x="270.84" y="577.6" type="curve" smooth="yes"/>
      <point x="296.52000000000004" y="577.6"/>
      <point x="310.36" y="560.9200000000001"/>
      <point x="310.36" y="536.96" type="curve" smooth="yes"/>
      <point x="310.36" y="499.56"/>
      <point x="286.84" y="472.59999999999997"/>
    </contour>
  </outline>
</glyph>
<glyph name="plusminus" format="2">
  <advance width="710.8"/>
  <unicode hex="00B1"/>
  <outline>
    <contour>
      <point x="605.48" y="9.5" type="line"/>
      <point x="635.14" y="188.32" type="line"/>
      <point x="440.82" y="188.32" type="line"/>
      <point x="459.92" y="307.6" type="line"/>
      <point x="654.24" y="307.6" type="line"/>
      <point x="683.9" y="486.41999999999996" type="line"/>
      <point x="489.58" y="486.41999999999996" type="line"/>
      <point x="511.4" y="625.6199999999999" type="line"/>
      <point x="311.94" y="625.6199999999999" type="line"/>
      <point x="288.40000000000003" y="486.41999999999996" type="line"/>
      <point x="96.66" y="486.41999999999996" type="line"/>
      <point x="67.0" y="307.6" type="line"/>
      <point x="260.46000000000004" y="307.6" type="line"/>
      <point x="239.64" y="188.32" type="line"/>
      <point x="47.9" y="188.32" type="line"/>
      <point x="18.24" y="9.5" type="line"/>
    </contour>
  </outline>
</glyph>
<glyph name="uni00B2" format="2">
  <advance width="621.5799999999999"/>
  <unicode hex="00B2"/>
  <outline>
    <contour>
      <point x="70.32" y="370.0" type="line"/>
      <point x="587.4200000000001" y="370.0" type="line"/>
      <point x="605.48" y="471.14" type="line"/>
      <point x="382.36" y="471.14" type="line"/>
      <point x="480.5" y="507.79999999999995"/>
      <point x="568.22" y="561.8"/>
      <point x="568.22" y="648.08" type="curve" smooth="yes"/>
      <point x="568.22" y="740.16"/>
      <point x="461.46" y="772.58"/>
      <point x="362.0" y="772.58" type="curve" smooth="yes"/>
      <point x="290.09999999999997" y="772.58"/>
      <point x="181.82" y="751.28"/>
      <point x="121.64000000000001" y="722.68" type="curve"/>
      <point x="153.29999999999998" y="621.4" type="line"/>
      <point x="207.18" y="646.84"/>
      <point x="258.42" y="659.4"/>
      <point x="299.93999999999994" y="659.4" type="curve" smooth="yes"/>
      <point x="340.38000000000005" y="659.4"/>
      <point x="371.48" y="644.74"/>
      <point x="371.48" y="615.98" type="curve" smooth="yes"/>
      <point x="371.48" y="547.68"/>
      <point x="284.12" y="507.6"/>
      <point x="81.5" y="449.36" type="curve"/>
    </contour>
  </outline>
</glyph>
<glyph name="uni00B3" format="2">
  <advance width="604.0"/>
  <unicode hex="00B3"/>
  <outline>
    <contour>
      <point x="49.58" y="395.92" type="line"/>
      <point x="117.02" y="369.82"/>
      <point x="212.51999999999998" y="362.28000000000003"/>
      <point x="300.42" y="362.28000000000003" type="curve" smooth="yes"/>
      <point x="453.24" y="362.28000000000003"/>
      <point x="603.3399999999999" y="393.26"/>
      <point x="603.3399999999999" y="503.2" type="curve" smooth="yes"/>
      <point x="603.3399999999999" y="537.0"/>
      <point x="576.54" y="568.56"/>
      <point x="520.32" y="582.0" type="curve"/>
      <point x="574.9999999999999" y="592.56"/>
      <point x="617.0" y="624.98"/>
      <point x="617.0" y="674.14" type="curve" smooth="yes"/>
      <point x="617.0" y="737.58"/>
      <point x="523.9200000000001" y="772.58"/>
      <point x="354.78000000000003" y="772.58" type="curve" smooth="yes"/>
      <point x="269.37999999999994" y="772.58"/>
      <point x="168.6" y="760.86"/>
      <point x="124.52" y="747.72" type="curve"/>
      <point x="125.22000000000003" y="646.5799999999999" type="line"/>
      <point x="188.94" y="658.86"/>
      <point x="266.08" y="664.56"/>
      <point x="324.4" y="664.56" type="curve" smooth="yes"/>
      <point x="398.84000000000003" y="664.56"/>
      <point x="446.91999999999996" y="657.9200000000001"/>
      <point x="446.91999999999996" y="641.6" type="curve" smooth="yes"/>
      <point x="446.91999999999996" y="620.42"/>
      <point x="412.91999999999996" y="612.8"/>
      <point x="322.02" y="612.8" type="curve" smooth="yes"/>
      <point x="204.56" y="612.8" type="line"/>
      <point x="188.8" y="522.8399999999999" type="line"/>
      <point x="286.36" y="522.8399999999999" type="line" smooth="yes"/>
      <point x="408.38" y="522.8399999999999"/>
      <point x="434.84000000000003" y="510.9"/>
      <point x="434.84000000000003" y="494.18" type="curve" smooth="yes"/>
      <point x="434.84000000000003" y="472.20000000000005"/>
      <point x="383.20000000000005" y="464.28000000000003"/>
      <point x="294.26" y="464.28000000000003" type="curve" smooth="yes"/>
      <point x="215.94000000000003" y="464.28000000000003"/>
      <point x="137.2" y="476.98"/>
      <point x="90.68" y="491.76" type="curve"/>
    </contour>
  </outline>
</glyph>
<glyph name="uni00B5" format="2">
  <advance width="853.3"/>
  <unicode hex="00B5"/>
  <outline>
    <contour>
      <point x="-8.619999999999997" y="-210.0" type="line"/>
      <point x="237.42" y="-210.0" type="line"/>
      <point x="272.38" y="6.140000000000001" type="line"/>
      <point x="283.36" y="-3.6799999999999997"/>
      <point x="300.52" y="-10.0"/>
      <point x="323.42" y="-10.0" type="curve" smooth="yes"/>
      <point x="385.78000000000003" y="-10.0"/>
      <point x="457.4200000000001" y="19.12"/>
      <point x="521.9399999999999" y="70.94" type="curve"/>
      <point x="543.44" y="24.74"/>
      <point x="596.24" y="-10.0"/>
      <point x="666.8800000000001" y="-10.0" type="curve" smooth="yes"/>
      <point x="716.16" y="-10.0"/>
      <point x="770.5600000000001" y="4.18"/>
      <point x="811.22" y="31.82" type="curve"/>
      <point x="809.0799999999999" y="166.64000000000001" type="line"/>
      <point x="795.9399999999999" y="162.5"/>
      <point x="788.4000000000001" y="162.07999999999998"/>
      <point x="784.84" y="162.07999999999998" type="curve" smooth="yes"/>
      <point x="770.92" y="162.07999999999998"/>
      <point x="759.3800000000001" y="169.9"/>
      <point x="759.3800000000001" y="192.64000000000001" type="curve" smooth="yes"/>
      <point x="759.3800000000001" y="198.03999999999996"/>
      <point x="760.38" y="209.12"/>
      <point x="815.7800000000001" y="547.2" type="curve"/>
      <point x="567.8799999999999" y="547.2" type="line"/>
      <point x="514.34" y="199.16000000000003" type="line"/>
      <point x="474.47999999999996" y="180.02"/>
      <point x="421.46" y="163.8"/>
      <point x="377.3" y="163.8" type="curve" smooth="yes"/>
      <point x="331.22" y="163.8"/>
      <point x="305.88" y="181.26"/>
      <point x="305.88" y="225.14000000000001" type="curve" smooth="yes"/>
      <point x="305.88" y="251.18"/>
      <point x="311.18" y="273.16"/>
      <point x="358.44" y="547.2" type="curve"/>
      <point x="110.68" y="547.2" type="line"/>
    </contour>
  </outline>
</glyph>
<glyph name="paragraph" format="2">
  <advance width="832.64"/>
  <unicode hex="00B6"/>
  <outline>
    <contour>
      <point x="495.8399999999999" y="-210.0" type="line"/>
      <point x="676.38" y="-210.0" type="line"/>
      <point x="827.2399999999999" y="740.0" type="line"/>
      <point x="646.6999999999999" y="740.0" type="line"/>
    </contour>
    <contour>
      <point x="319.03999999999996" y="318.38" type="line"/>
      <point x="288.59999999999997" y="325.79999999999995"/>
      <point x="269.82" y="352.06000000000006"/>
      <point x="269.82" y="394.24" type="curve" smooth="yes"/>
      <point x="269.82" y="467.29999999999995"/>
      <point x="296.21999999999997" y="561.1800000000001"/>
      <point x="388.14" y="561.5999999999999" type="curve"/>
      <point x="266.08" y="-210.0" type="line"/>
      <point x="446.62" y="-210.0" type="line"/>
      <point x="597.4799999999999" y="740.0" type="line"/>
      <point x="464.36" y="740.0" type="line" smooth="yes"/>
      <point x="212.93999999999997" y="740.0"/>
      <point x="76.96000000000001" y="634.2"/>
      <point x="76.96000000000001" y="398.56" type="curve" smooth="yes"/>
      <point x="76.96000000000001" y="274.41999999999996"/>
      <point x="145.45999999999998" y="205.45999999999998"/>
      <point x="281.36" y="194.6" type="curve"/>
    </contour>
  </outline>
</glyph>
<glyph name="periodcentered" format="2">
  <advance width="360.47999999999996"/>
  <unicode hex="00B7"/>
  <outline>
    <contour>
      <point x="52.44" y="295.48" type="curve" smooth="yes"/>
      <point x="52.16" y="241.76000000000002"/>
      <point x="89.84" y="211.51999999999998"/>
      <point x="169.36" y="211.51999999999998" type="curve" smooth="yes"/>
      <point x="258.88" y="211.51999999999998"/>
      <point x="318.36" y="246.92000000000002"/>
      <point x="318.64" y="327.68" type="curve" smooth="yes"/>
      <point x="318.91999999999996" y="383.12"/>
      <point x="281.24" y="413.36"/>
      <point x="202.44000000000003" y="413.36" type="curve" smooth="yes"/>
      <point x="113.92" y="413.36"/>
      <point x="52.72" y="372.8"/>
    </contour>
  </outline>
</glyph>
<glyph name="uni00B9" format="2">
  <advance width="549.42"/>
  <unicode hex="00B9"/>
  <outline>
    <contour>
      <point x="71.68" y="370.0" type="line"/>
      <point x="535.0799999999999" y="370.0" type="line"/>
      <point x="552.5600000000001" y="471.14" type="line"/>
      <point x="422.52" y="471.14" type="line"/>
      <point x="469.04" y="764.56" type="line"/>
      <point x="366.16" y="764.56" type="line"/>
      <point x="98.2" y="669.78" type="line"/>
      <point x="117.4" y="556.6" type="line"/>
      <point x="259.12" y="607.4" type="line"/>
      <point x="236.09999999999997" y="471.14" type="line"/>
      <point x="89.02000000000001" y="471.14" type="line"/>
    </contour>
  </outline>
</glyph>
<glyph name="ordmasculine" format="2">
  <advance width="566.1"/>
  <unicode hex="00BA"/>
  <outline>
    <contour>
      <point x="29.939999999999998" y="184.7" type="line"/>
      <point x="506.8" y="184.7" type="line"/>
      <point x="525.28" y="303.32" type="line"/>
      <point x="48.42" y="303.32" type="line"/>
    </contour>
    <component base="o.superior" xOffset="8.0"/>
  </outline>
</glyph>
<glyph name="AE" format="2">
  <advance width="1511.24"/>
  <unicode hex="00C6"/>
  <anchor x="739.28" y="0.0" name="bottom"/>
  <anchor x="929.48" y="700.0" name="top"/>
  <outline>
    <contour>
      <point x="613.0" y="0.0" type="line"/>
      <point x="1423.7199999999998" y="0.0" type="line"/>
      <point x="1454.08" y="182.59999999999997" type="line"/>
      <point x="878.9999999999999" y="182.59999999999997" type="line"/>
      <point x="893.32" y="272.76" type="line"/>
      <point x="1411.1200000000001" y="272.76" type="line"/>
      <point x="1438.32" y="436.24" type="line"/>
      <point x="920.24" y="436.24" type="line"/>
      <point x="933.44" y="517.4" type="line"/>
      <point x="1480.8" y="517.4" type="line"/>
      <point x="1511.16" y="700.0" type="line"/>
      <point x="584.28" y="700.0" type="line"/>
      <point x="-43.440000000000005" y="0.0" type="line"/>
      <point x="247.92" y="0.0" type="line"/>
      <point x="398.2" y="177.32" type="line"/>
      <point x="641.2" y="177.32" type="line"/>
    </contour>
    <contour>
      <point x="522.0400000000001" y="336.76" type="line"/>
      <point x="700.8000000000001" y="552.32" type="line"/>
      <point x="665.12" y="336.76" type="line"/>
    </contour>
  </outline>
</glyph>
<glyph name="multiply" format="2">
  <advance width="612.76"/>
  <unicode hex="00D7"/>
  <outline>
    <contour>
      <point x="131.26" y="68.39999999999999" type="line"/>
      <point x="295.84000000000003" y="200.76" type="line"/>
      <point x="427.81999999999994" y="55.47999999999999" type="line"/>
      <point x="552.62" y="194.17999999999995" type="line"/>
      <point x="442.14" y="314.52" type="line"/>
      <point x="591.5200000000001" y="434.84" type="line"/>
      <point x="495.38000000000005" y="564.22" type="line"/>
      <point x="329.65999999999997" y="430.14000000000004" type="line"/>
      <point x="196.11999999999998" y="574.5400000000001" type="line"/>
      <point x="73.9" y="443.58" type="line"/>
      <point x="186.8" y="317.24" type="line"/>
      <point x="34.260000000000005" y="193.48" type="line"/>
    </contour>
  </outline>
</glyph>
<glyph name="Oslash" format="2">
  <advance width="1089.8"/>
  <unicode hex="00D8"/>
  <anchor x="598.9999999999999" y="700.0" name="top"/>
  <outline>
    <contour>
      <point x="1151.8" y="717.2" type="line"/>
      <point x="924.0400000000001" y="717.2" type="line"/>
      <point x="771.32" y="603.2" type="line"/>
      <point x="772.6" y="601.92" type="line"/>
      <point x="220.92" y="188.83999999999997" type="line"/>
      <point x="221.92" y="186.83999999999997" type="line"/>
      <point x="-44.879999999999995" y="-15.799999999999999" type="line"/>
      <point x="181.16" y="-15.799999999999999" type="line"/>
      <point x="328.15999999999997" y="93.47999999999999" type="line"/>
      <point x="326.88" y="94.75999999999999" type="line"/>
      <point x="912.7999999999998" y="532.9200000000001" type="line"/>
      <point x="911.8000000000002" y="534.92" type="line"/>
    </contour>
    <contour>
      <point x="531.6400000000001" y="-10.0" type="curve" smooth="yes"/>
      <point x="865.1200000000001" y="-10.0"/>
      <point x="1054.9999999999998" y="132.44"/>
      <point x="1054.9999999999998" y="395.80000000000007" type="curve" smooth="yes"/>
      <point x="1054.9999999999998" y="602.92"/>
      <point x="905.44" y="710.28"/>
      <point x="575.0" y="710.28" type="curve" smooth="yes"/>
      <point x="241.52" y="710.28"/>
      <point x="51.64" y="567.84"/>
      <point x="51.64" y="304.47999999999996" type="curve" smooth="yes"/>
      <point x="51.64" y="97.35999999999999"/>
      <point x="201.2" y="-10.0"/>
    </contour>
    <contour>
      <point x="543.6800000000001" y="154.16" type="curve" smooth="yes"/>
      <point x="381.32" y="154.16"/>
      <point x="308.4" y="209.68"/>
      <point x="308.4" y="324.71999999999997" type="curve" smooth="yes"/>
      <point x="308.4" y="462.8"/>
      <point x="405.59999999999997" y="546.1200000000001"/>
      <point x="562.9599999999999" y="546.1200000000001" type="curve" smooth="yes"/>
      <point x="725.3199999999999" y="546.1200000000001"/>
      <point x="798.2400000000001" y="490.60000000000014"/>
      <point x="798.2400000000001" y="375.56" type="curve" smooth="yes"/>
      <point x="798.2400000000001" y="237.48"/>
      <point x="701.04" y="154.16"/>
    </contour>
  </outline>
</glyph>
<glyph name="Thorn" format="2">
  <advance width="1052.28"/>
  <unicode hex="00DE"/>
  <outline>
    <contour>
      <point x="37.239999999999995" y="0.0" type="line"/>
      <point x="297.90000000000003" y="0.0" type="line"/>
      <point x="315.44" y="104.64" type="line"/>
      <point x="415.88" y="100.64000000000001"/>
      <point x="452.6" y="99.64000000000001"/>
      <point x="504.03999999999996" y="99.64000000000001" type="curve" smooth="yes"/>
      <point x="900.9200000000001" y="99.64000000000001"/>
      <point x="1040.96" y="177.06"/>
      <point x="1040.96" y="389.98" type="curve" smooth="yes"/>
      <point x="1040.96" y="562.96"/>
      <point x="932.4" y="636.0200000000001"/>
      <point x="588.04" y="636.0200000000001" type="curve" smooth="yes"/>
      <point x="554.26" y="636.0200000000001"/>
      <point x="495.32" y="634.8800000000001"/>
      <point x="401.78" y="632.9" type="curve"/>
      <point x="413.91999999999996" y="700.0" type="line"/>
      <point x="153.26" y="700.0" type="line"/>
    </contour>
    <contour>
      <point x="491.86" y="281.9" type="curve" smooth="yes"/>
      <point x="446.74" y="281.9"/>
      <point x="420.04" y="282.9"/>
      <point x="345.96" y="287.04" type="curve"/>
      <point x="372.26" y="452.22" type="line"/>
      <point x="489.15999999999997" y="456.78000000000003"/>
      <point x="508.55999999999995" y="457.06"/>
      <point x="579.8800000000001" y="457.06" type="curve" smooth="yes"/>
      <point x="724.44" y="457.06"/>
      <point x="769.12" y="433.41999999999996"/>
      <point x="769.12" y="383.4" type="curve" smooth="yes"/>
      <point x="769.12" y="307.59999999999997"/>
      <point x="725.8" y="281.9"/>
    </contour>
  </outline>
</glyph>
<glyph name="germandbls" format="2">
  <advance width="999.0400000000001"/>
  <unicode hex="00DF"/>
  <outline>
    <contour>
      <point x="79.92000000000002" y="25.159999999999997" type="line" smooth="yes"/>
      <point x="73.80000000000001" y="-16.400000000000006"/>
      <point x="55.120000000000005" y="-41.32000000000002"/>
      <point x="24.08" y="-41.32000000000002" type="curve" smooth="yes"/>
      <point x="11.8" y="-41.32000000000002"/>
      <point x="-3.5999999999999996" y="-39.320000000000014"/>
      <point x="-15.840000000000002" y="-35.20000000000002" type="curve"/>
      <point x="-54.24" y="-194.95999999999998" type="line"/>
      <point x="-11.159999999999998" y="-212.83999999999997"/>
      <point x="35.72" y="-220.0"/>
      <point x="95.6" y="-220.0" type="curve" smooth="yes"/>
      <point x="215.76" y="-220.0"/>
      <point x="292.76" y="-139.48"/>
      <point x="312.92" y="-10.079999999999998" type="curve" smooth="yes"/>
      <point x="387.44" y="466.8" type="line" smooth="yes"/>
      <point x="402.68" y="563.2399999999999"/>
      <point x="484.59999999999997" y="592.9599999999999"/>
      <point x="614.8" y="592.9599999999999" type="curve" smooth="yes"/>
      <point x="716.48" y="592.9599999999999"/>
      <point x="746.24" y="580.6"/>
      <point x="746.24" y="563.0400000000001" type="curve" smooth="yes"/>
      <point x="746.24" y="544.88"/>
      <point x="732.6800000000001" y="534.6400000000001"/>
      <point x="616.68" y="519.08" type="curve" smooth="yes"/>
      <point x="491.03999999999996" y="502.08"/>
      <point x="437.84" y="452.2"/>
      <point x="437.84" y="347.72" type="curve" smooth="yes"/>
      <point x="437.84" y="258.16"/>
      <point x="488.72" y="210.24"/>
      <point x="623.6800000000001" y="193.83999999999997" type="curve" smooth="yes"/>
      <point x="731.12" y="180.72"/>
      <point x="757.64" y="174.20000000000002"/>
      <point x="757.64" y="153.64000000000001" type="curve" smooth="yes"/>
      <point x="757.64" y="132.72"/>
      <point x="730.9200000000001" y="127.03999999999999"/>
      <point x="678.2" y="127.03999999999999" type="curve" smooth="yes"/>
      <point x="603.24" y="127.03999999999999"/>
      <point x="485.8" y="144.6"/>
      <point x="413.56" y="166.28" type="curve"/>
      <point x="373.32" y="29.240000000000002" type="line"/>
      <point x="461.31999999999994" y="4.12"/>
      <point x="557.6800000000001" y="-10.280000000000001"/>
      <point x="649.12" y="-10.280000000000001" type="curve" smooth="yes"/>
      <point x="889.0400000000001" y="-10.280000000000001"/>
      <point x="985.2399999999998" y="44.48"/>
      <point x="985.2399999999998" y="176.28" type="curve" smooth="yes"/>
      <point x="985.2399999999998" y="265.48"/>
      <point x="931.68" y="317.76"/>
      <point x="800.2" y="329.72" type="curve" smooth="yes"/>
      <point x="674.92" y="340.96000000000004"/>
      <point x="650.8" y="346.08"/>
      <point x="650.8" y="367.91999999999996" type="curve" smooth="yes"/>
      <point x="650.8" y="386.76"/>
      <point x="672.1599999999999" y="392.44000000000005"/>
      <point x="772.4399999999999" y="404.12" type="curve" smooth="yes"/>
      <point x="910.52" y="419.68"/>
      <point x="946.1600000000001" y="480.88"/>
      <point x="946.1600000000001" y="572.64" type="curve" smooth="yes"/>
      <point x="946.1600000000001" y="687.6400000000001"/>
      <point x="841.76" y="750.0"/>
      <point x="602.28" y="750.0" type="curve" smooth="yes"/>
      <point x="333.48" y="750.0"/>
      <point x="186.44" y="682.88"/>
      <point x="157.16" y="499.16" type="curve" smooth="yes"/>
      <point x="155.16000000000003" y="484.00000000000006" type="line"/>
      <point x="47.88" y="465.68" type="line"/>
      <point x="24.959999999999997" y="327.4" type="line"/>
      <point x="127.8" y="327.4" type="line"/>
    </contour>
  </outline>
</glyph>
<glyph name="ae" format="2">
  <advance width="1270.6000000000001"/>
  <unicode hex="00E6"/>
  <anchor x="590.88" y="0.0" name="bottom"/>
  <anchor x="677.08" y="547.1999999999999" name="top"/>
  <outline>
    <contour>
      <point x="267.4" y="-10.0" type="curve" smooth="yes"/>
      <point x="343.28" y="-10.0"/>
      <point x="420.44000000000005" y="16.799999999999997"/>
      <point x="493.6" y="58.8" type="curve"/>
      <point x="483.5999999999999" y="0.0" type="line"/>
      <point x="701.12" y="0.0" type="line"/>
      <point x="710.9599999999999" y="61.88" type="line"/>
      <point x="759.4399999999999" y="17.480000000000004"/>
      <point x="835.24" y="-10.0"/>
      <point x="937.4800000000001" y="-10.0" type="curve" smooth="yes"/>
      <point x="1023.56" y="-10.0"/>
      <point x="1109.9600000000003" y="3.240000000000002"/>
      <point x="1187.48" y="25.480000000000004" type="curve"/>
      <point x="1169.4399999999998" y="182.07999999999998" type="line"/>
      <point x="1067.96" y="156.84"/>
      <point x="966.72" y="146.6"/>
      <point x="921.0000000000001" y="146.6" type="curve" smooth="yes"/>
      <point x="786.0" y="146.6"/>
      <point x="738.12" y="178.24"/>
      <point x="738.12" y="252.72" type="curve" smooth="yes"/>
      <point x="738.12" y="342.84"/>
      <point x="810.84" y="406.76"/>
      <point x="910.8" y="406.76" type="curve" smooth="yes"/>
      <point x="963.1999999999999" y="406.76"/>
      <point x="988.1599999999999" y="392.28000000000003"/>
      <point x="988.1599999999999" y="365.88" type="curve" smooth="yes"/>
      <point x="988.1599999999999" y="331.64"/>
      <point x="925.52" y="315.76"/>
      <point x="813.48" y="313.32000000000005" type="curve" smooth="yes"/>
      <point x="768.36" y="312.32"/>
      <point x="732.28" y="313.0"/>
      <point x="702.0" y="317.24" type="curve"/>
      <point x="716.9200000000001" y="217.03999999999996" type="line"/>
      <point x="763.12" y="207.64"/>
      <point x="822.1199999999999" y="201.07999999999998"/>
      <point x="903.08" y="202.07999999999998" type="curve" smooth="yes"/>
      <point x="1128.0" y="204.51999999999998"/>
      <point x="1246.96" y="273.92"/>
      <point x="1246.96" y="382.63999999999993" type="curve" smooth="yes"/>
      <point x="1246.96" y="493.44000000000005"/>
      <point x="1151.0800000000002" y="557.1999999999999"/>
      <point x="1000.2400000000001" y="557.1999999999999" type="curve" smooth="yes"/>
      <point x="907.8" y="557.1999999999999"/>
      <point x="832.72" y="535.6400000000001"/>
      <point x="781.16" y="503.76" type="curve"/>
      <point x="787.84" y="547.1999999999999" type="line"/>
      <point x="570.04" y="547.1999999999999" type="line"/>
      <point x="562.3199999999999" y="497.88000000000005" type="line"/>
      <point x="523.84" y="537.04"/>
      <point x="465.15999999999997" y="557.1999999999999"/>
      <point x="390.88" y="557.1999999999999" type="curve" smooth="yes"/>
      <point x="160.83999999999997" y="557.1999999999999"/>
      <point x="29.919999999999995" y="406.92"/>
      <point x="29.919999999999995" y="220.88000000000002" type="curve" smooth="yes"/>
      <point x="29.919999999999995" y="62.67999999999999"/>
      <point x="122.04" y="-10.0"/>
    </contour>
    <contour>
      <point x="386.92" y="161.35999999999999" type="curve" smooth="yes"/>
      <point x="327.96" y="161.35999999999999"/>
      <point x="274.52" y="187.48000000000002"/>
      <point x="274.52" y="254.28" type="curve" smooth="yes"/>
      <point x="274.52" y="367.91999999999996"/>
      <point x="368.0" y="408.4800000000001"/>
      <point x="453.84000000000003" y="408.4800000000001" type="curve" smooth="yes"/>
      <point x="488.52" y="408.4800000000001"/>
      <point x="517.84" y="403.36"/>
      <point x="545.28" y="391.20000000000005" type="curve"/>
      <point x="513.36" y="189.56" type="line"/>
      <point x="473.36000000000007" y="173.55999999999997"/>
      <point x="429.88" y="161.35999999999999"/>
    </contour>
  </outline>
</glyph>
<glyph name="eth" format="2">
  <advance width="860.44"/>
  <unicode hex="00F0"/>
  <outline>
    <contour>
      <point x="624.1600000000001" y="344.56" type="curve"/>
      <point x="647.8" y="480.52" type="line"/>
      <point x="576.6800000000001" y="506.76000000000005"/>
      <point x="477.84" y="520.52"/>
      <point x="384.2" y="520.52" type="curve" smooth="yes"/>
      <point x="173.84" y="520.52"/>
      <point x="27.160000000000004" y="425.0799999999999"/>
      <point x="27.160000000000004" y="240.67999999999998" type="curve" smooth="yes"/>
      <point x="27.160000000000004" y="54.88"/>
      <point x="171.56000000000003" y="-7.5600000000000005"/>
      <point x="376.16" y="-7.5600000000000005" type="curve" smooth="yes"/>
      <point x="638.68" y="-7.5600000000000005"/>
      <point x="794.24" y="99.16000000000001"/>
      <point x="834.4000000000001" y="324.16" type="curve" smooth="yes"/>
      <point x="840.12" y="353.04"/>
      <point x="841.8399999999999" y="381.20000000000005"/>
      <point x="841.8399999999999" y="406.64" type="curve" smooth="yes"/>
      <point x="841.8399999999999" y="692.4799999999999"/>
      <point x="604.04" y="759.88"/>
      <point x="265.88" y="759.88" type="curve" smooth="yes"/>
      <point x="199.24" y="759.88"/>
      <point x="141.24" y="754.32"/>
      <point x="84.71999999999998" y="745.4799999999999" type="curve"/>
      <point x="65.35999999999999" y="616.4000000000001" type="line"/>
      <point x="114.16000000000001" y="621.5200000000001"/>
      <point x="139.47999999999996" y="625.64"/>
      <point x="242.51999999999995" y="625.64" type="curve" smooth="yes"/>
      <point x="502.88000000000005" y="625.64"/>
      <point x="597.52" y="580.9999999999999"/>
      <point x="597.52" y="447.63999999999993" type="curve" smooth="yes"/>
      <point x="597.52" y="419.76000000000005"/>
      <point x="596.52" y="387.71999999999997"/>
      <point x="589.8" y="349.23999999999995" type="curve" smooth="yes"/>
      <point x="566.12" y="205.32"/>
      <point x="506.96000000000004" y="146.6"/>
      <point x="401.8" y="146.6" type="curve" smooth="yes"/>
      <point x="314.56000000000006" y="146.6"/>
      <point x="269.03999999999996" y="180.68"/>
      <point x="269.03999999999996" y="254.72" type="curve" smooth="yes"/>
      <point x="269.03999999999996" y="338.28"/>
      <point x="341.64" y="378.40000000000003"/>
      <point x="431.35999999999996" y="378.40000000000003" type="curve" smooth="yes"/>
      <point x="518.1200000000001" y="378.40000000000003"/>
      <point x="571.12" y="362.9200000000001"/>
    </contour>
    <contour>
      <point x="293.68000000000006" y="534.52" type="line"/>
      <point x="575.0799999999999" y="642.0799999999999" type="line"/>
      <point x="571.44" y="647.24" type="line"/>
      <point x="873.6" y="763.36" type="line"/>
      <point x="650.0" y="763.36" type="line"/>
      <point x="469.56" y="694.5199999999999" type="line"/>
      <point x="464.23999999999995" y="685.6" type="line"/>
      <point x="69.07999999999998" y="534.52" type="line"/>
    </contour>
  </outline>
</glyph>
<glyph name="divide" format="2">
  <advance width="710.8"/>
  <unicode hex="00F7"/>
  <outline>
    <contour>
      <point x="219.56" y="70.48000000000002" type="curve" smooth="yes"/>
      <point x="219.28" y="30.520000000000003"/>
      <point x="247.64000000000001" y="9.880000000000003"/>
      <point x="311.68" y="9.880000000000003" type="curve" smooth="yes"/>
      <point x="378.84000000000003" y="9.880000000000003"/>
      <point x="428.72" y="33.96"/>
      <point x="429.28" y="106.12" type="curve" smooth="yes"/>
      <point x="429.56" y="146.08"/>
      <point x="402.19999999999993" y="166.0"/>
      <point x="337.88" y="166.0" type="curve" smooth="yes"/>
      <point x="273.44" y="166.0"/>
      <point x="220.12" y="140.92"/>
    </contour>
    <contour>
      <point x="295.24" y="524.48" type="curve" smooth="yes"/>
      <point x="294.96" y="485.52"/>
      <point x="321.59999999999997" y="464.6"/>
      <point x="386.64" y="464.6" type="curve" smooth="yes"/>
      <point x="454.52" y="464.6"/>
      <point x="502.68" y="490.68"/>
      <point x="503.24" y="561.84" type="curve" smooth="yes"/>
      <point x="503.52" y="601.8"/>
      <point x="476.88000000000005" y="620.7199999999999"/>
      <point x="411.84" y="620.7199999999999" type="curve" smooth="yes"/>
      <point x="345.67999999999995" y="620.7199999999999"/>
      <point x="295.8" y="595.64"/>
    </contour>
    <contour>
      <point x="52.96" y="224.96" type="line"/>
      <point x="640.2" y="224.96" type="line"/>
      <point x="670.72" y="403.91999999999996" type="line"/>
      <point x="83.47999999999999" y="403.91999999999996" type="line"/>
    </contour>
  </outline>
</glyph>
<glyph name="oslash" format="2">
  <advance width="839.72"/>
  <unicode hex="00F8"/>
  <anchor x="450.32000000000005" y="547.1999999999999" name="top"/>
  <outline>
    <contour>
      <point x="677.6400000000001" y="559.2" type="line"/>
      <point x="571.76" y="467.0" type="line"/>
      <point x="571.76" y="467.0" type="line"/>
      <point x="198.48" y="142.79999999999998" type="line"/>
      <point x="198.48" y="142.79999999999998" type="line"/>
      <point x="24.72" y="-9.28" type="line"/>
      <point x="168.60000000000002" y="-9.28" type="line"/>
      <point x="272.67999999999995" y="81.68" type="line"/>
      <point x="272.68" y="81.67999999999999" type="line"/>
      <point x="668.76" y="424.96000000000004" type="line"/>
      <point x="668.76" y="424.96" type="line"/>
      <point x="823.6800000000001" y="559.2" type="line"/>
    </contour>
    <contour>
      <point x="413.00000000000006" y="-9.28" type="curve" smooth="yes"/>
      <point x="648.36" y="-9.28"/>
      <point x="805.4" y="79.56"/>
      <point x="804.84" y="298.48" type="curve" smooth="yes"/>
      <point x="804.28" y="481.64000000000004"/>
      <point x="658.28" y="558.48"/>
      <point x="426.15999999999997" y="558.48" type="curve" smooth="yes"/>
      <point x="190.8" y="558.48"/>
      <point x="33.760000000000005" y="469.64000000000004"/>
      <point x="34.32" y="250.71999999999994" type="curve" smooth="yes"/>
      <point x="34.88" y="67.56"/>
      <point x="180.88" y="-9.28"/>
    </contour>
    <contour>
      <point x="414.0" y="134.67999999999998" type="curve" smooth="yes"/>
      <point x="323.24" y="134.67999999999998"/>
      <point x="274.88" y="174.56"/>
      <point x="274.88" y="260.12" type="curve" smooth="yes"/>
      <point x="274.88" y="360.08"/>
      <point x="327.28000000000003" y="414.52"/>
      <point x="425.15999999999997" y="414.52" type="curve" smooth="yes"/>
      <point x="515.2" y="414.52"/>
      <point x="564.28" y="374.20000000000005"/>
      <point x="564.28" y="288.64000000000004" type="curve" smooth="yes"/>
      <point x="564.28" y="188.68"/>
      <point x="511.8800000000001" y="134.67999999999998"/>
    </contour>
  </outline>
</glyph>
<glyph name="thorn" format="2">
  <advance width="866.26"/>
  <unicode hex="00FE"/>
  <outline>
    <contour>
      <point x="-9.619999999999997" y="-210.0" type="line"/>
      <point x="235.55999999999997" y="-210.0" type="line"/>
      <point x="270.7" y="3.0999999999999996" type="line"/>
      <point x="304.92" y="-3.74"/>
      <point x="355.85999999999996" y="-10.0"/>
      <point x="407.59999999999997" y="-10.0" type="curve" smooth="yes"/>
      <point x="698.9" y="-10.0"/>
      <point x="837.6400000000001" y="115.11999999999999"/>
      <point x="837.6400000000001" y="344.5" type="curve" smooth="yes"/>
      <point x="837.6400000000001" y="474.04"/>
      <point x="763.54" y="557.2"/>
      <point x="610.52" y="557.2" type="curve" smooth="yes"/>
      <point x="508.6" y="557.2"/>
      <point x="433.68" y="528.1400000000001"/>
      <point x="343.02" y="474.91999999999996" type="curve"/>
      <point x="384.7" y="740.0" type="line"/>
      <point x="141.24" y="740.0" type="line"/>
    </contour>
    <contour>
      <point x="418.06" y="148.32" type="curve" smooth="yes"/>
      <point x="373.78000000000003" y="148.32"/>
      <point x="331.44" y="155.85999999999999"/>
      <point x="296.05999999999995" y="165.14" type="curve"/>
      <point x="322.68" y="330.24" type="line"/>
      <point x="374.02000000000004" y="353.88"/>
      <point x="434.74" y="372.22"/>
      <point x="488.2800000000001" y="372.22" type="curve" smooth="yes"/>
      <point x="547.72" y="372.22"/>
      <point x="589.88" y="349.38"/>
      <point x="589.88" y="288.9" type="curve" smooth="yes"/>
      <point x="589.88" y="201.66"/>
      <point x="513.9" y="148.32"/>
    </contour>
  </outline>
</glyph>
<glyph name="Dcroat" format="2">
  <advance width="1089.48"/>
  <unicode hex="0110"/>
  <outline>
    <contour>
      <point x="20.84" y="275.59999999999997" type="line"/>
      <point x="540.7599999999999" y="275.59999999999997" type="line"/>
      <point x="569.56" y="437.08" type="line"/>
      <point x="47.199999999999996" y="437.08" type="line"/>
    </contour>
    <component base="D" xOffset="8.600000000000001"/>
  </outline>
</glyph>
<glyph name="dcroat" format="2">
  <advance width="897.9200000000001"/>
  <unicode hex="0111"/>
  <outline>
    <contour>
      <point x="414.12" y="595.64" type="line"/>
      <point x="923.36" y="595.64" type="line"/>
      <point x="938.8" y="692.1199999999999" type="line"/>
      <point x="429.56" y="692.1199999999999" type="line"/>
    </contour>
    <component base="d"/>
  </outline>
</glyph>
<glyph name="Hbar" format="2">
  <advance width="1083.92"/>
  <unicode hex="0126"/>
  <outline>
    <contour>
      <point x="65.4" y="488.82" type="line"/>
      <point x="1089.66" y="488.82" type="line"/>
      <point x="1113.3" y="638.68" type="line"/>
      <point x="89.04" y="638.68" type="line"/>
    </contour>
    <component base="H" xOffset="0.9999999999999996"/>
  </outline>
</glyph>
<glyph name="hbar" format="2">
  <advance width="845.2"/>
  <unicode hex="0127"/>
  <outline>
    <contour>
      <point x="28.64" y="595.64" type="line"/>
      <point x="533.3599999999999" y="595.64" type="line"/>
      <point x="548.8" y="692.1199999999999" type="line"/>
      <point x="44.07999999999999" y="692.1199999999999" type="line"/>
    </contour>
    <component base="h" xOffset="-5.159999999999999"/>
  </outline>
</glyph>
<glyph name="Idotaccent" format="2">
  <advance width="426.29999999999995"/>
  <unicode hex="0130"/>
  <outline>
    <contour>
      <point x="316.82" y="930.34" type="curve" smooth="yes"/>
      <point x="205.78" y="930.34"/>
      <point x="151.76" y="895.08"/>
      <point x="151.62" y="817.48" type="curve" smooth="yes"/>
      <point x="151.62" y="766.62"/>
      <point x="191.16" y="736.38"/>
      <point x="283.88" y="736.38" type="curve" smooth="yes"/>
      <point x="371.54" y="736.38"/>
      <point x="448.22" y="759.6"/>
      <point x="448.5" y="850.24" type="curve" smooth="yes"/>
      <point x="448.5" y="900.1"/>
      <point x="409.38" y="930.34"/>
    </contour>
    <component base="I"/>
  </outline>
</glyph>
<glyph name="dotlessi" format="2">
  <advance width="383.1"/>
  <unicode hex="0131"/>
  <anchor x="147.86184" y="0.0" name="bottom"/>
  <anchor x="271.86" y="0.0" name="ogonek"/>
  <anchor x="234.67816000000002" y="547.2" name="top"/>
  <outline>
    <contour>
      <point x="271.86" y="0.0" type="line"/>
      <point x="357.58000000000004" y="547.2" type="line"/>
      <point x="111.54000000000002" y="547.2" type="line"/>
      <point x="24.1" y="0.86" type="line"/>
    </contour>
  </outline>
</glyph>
<glyph name="Ldot" format="2">
  <advance width="892.46"/>
  <unicode hex="013F"/>
  <outline>
    <contour>
      <point x="551.6999999999999" y="429.94" type="curve" smooth="yes"/>
      <point x="551.56" y="376.21999999999997"/>
      <point x="589.0999999999999" y="345.98"/>
      <point x="668.7599999999999" y="345.98" type="curve" smooth="yes"/>
      <point x="758.14" y="345.98"/>
      <point x="817.62" y="381.38"/>
      <point x="818.04" y="462.0" type="curve" smooth="yes"/>
      <point x="818.1800000000001" y="517.44"/>
      <point x="780.64" y="547.68"/>
      <point x="701.84" y="547.68" type="curve" smooth="yes"/>
      <point x="613.3199999999999" y="547.68"/>
      <point x="552.1199999999999" y="507.12"/>
    </contour>
    <component base="L"/>
  </outline>
</glyph>
<glyph name="ldot" format="2">
  <advance width="527.92"/>
  <unicode hex="0140"/>
  <outline>
    <contour>
      <point x="402.97486" y="405.64544" type="curve" smooth="yes"/>
      <point x="402.83486" y="368.87775999999997"/>
      <point x="424.56118" y="348.36436000000003"/>
      <point x="470.75514" y="348.36436000000003" type="curve" smooth="yes"/>
      <point x="522.99088" y="348.36436000000003"/>
      <point x="557.09572" y="372.37021999999996"/>
      <point x="557.51572" y="427.97884" type="curve" smooth="yes"/>
      <point x="557.65572" y="465.91182000000003"/>
      <point x="535.9294" y="486.42521999999997"/>
      <point x="490.22822" y="486.42521999999997" type="curve" smooth="yes"/>
      <point x="438.4844" y="486.42521999999997"/>
      <point x="403.39486" y="458.92603999999994"/>
    </contour>
    <component base="l"/>
  </outline>
</glyph>
<glyph name="Lslash" format="2">
  <advance width="879.56"/>
  <unicode hex="0141"/>
  <outline>
    <contour>
      <point x="24.200000000000003" y="0.0" type="line"/>
      <point x="802.22" y="0.0" type="line"/>
      <point x="837.04" y="196.16" type="line"/>
      <point x="317.96" y="196.16" type="line"/>
      <point x="334.04" y="298.04" type="line"/>
      <point x="619.96" y="427.46000000000004" type="line"/>
      <point x="652.34" y="626.62" type="line"/>
      <point x="366.41999999999996" y="497.2" type="line"/>
      <point x="399.3" y="700.0" type="line"/>
      <point x="138.64000000000001" y="700.0" type="line"/>
      <point x="85.7" y="375.97999999999996" type="line"/>
      <point x="13.920000000000002" y="343.76" type="line"/>
      <point x="-16.740000000000002" y="148.9" type="line"/>
      <point x="53.31999999999999" y="180.26" type="line"/>
    </contour>
  </outline>
</glyph>
<glyph name="lslash" format="2">
  <advance width="484.92"/>
  <unicode hex="0142"/>
  <outline>
    <contour>
      <point x="-8.68" y="174.94" type="line"/>
      <point x="442.02000000000004" y="381.26" type="line"/>
      <point x="468.38" y="545.14" type="line"/>
      <point x="16.820000000000004" y="338.82000000000005" type="line"/>
    </contour>
    <component base="l"/>
  </outline>
</glyph>
<glyph name="Eng" format="2">
  <advance width="1019.5599999999998"/>
  <unicode hex="014A"/>
  <outline>
    <contour>
      <point x="37.1" y="0.0" type="line"/>
      <point x="272.96000000000004" y="0.0" type="line"/>
      <point x="335.38" y="383.86" type="line"/>
      <point x="663.1999999999999" y="6.899999999999999" type="line"/>
      <point x="656.32" y="-41.32000000000001"/>
      <point x="611.72" y="-54.80000000000001"/>
      <point x="552.5" y="-54.80000000000001" type="curve" smooth="yes"/>
      <point x="516.0" y="-54.80000000000001"/>
      <point x="485.96000000000004" y="-47.519999999999996"/>
      <point x="454.74" y="-34.08000000000001" type="curve"/>
      <point x="418.92" y="-199.42000000000002" type="line"/>
      <point x="478.52" y="-217.16000000000003"/>
      <point x="556.5799999999999" y="-220.0"/>
      <point x="582.18" y="-220.0" type="curve" smooth="yes"/>
      <point x="758.5" y="-220.00000000000003"/>
      <point x="861.0000000000001" y="-180.84"/>
      <point x="889.9999999999999" y="-2.6999999999999993" type="curve" smooth="yes"/>
      <point x="1005.4600000000002" y="700.0" type="line"/>
      <point x="769.6" y="700.0" type="line"/>
      <point x="703.74" y="297.8" type="line"/>
      <point x="374.5" y="701.4" type="line"/>
      <point x="152.68" y="701.4" type="line"/>
    </contour>
  </outline>
</glyph>
<glyph name="eng" format="2">
  <advance width="839.04"/>
  <unicode hex="014B"/>
  <outline>
    <contour>
      <point x="736.1600000000001" y="53.720000000000006" type="curve" smooth="yes"/>
      <point x="740.46" y="79.51999999999998"/>
      <point x="791.96" y="395.15999999999997"/>
      <point x="791.96" y="407.66" type="curve" smooth="yes"/>
      <point x="791.96" y="492.32000000000005"/>
      <point x="718.9200000000001" y="557.2"/>
      <point x="584.32" y="557.2" type="curve" smooth="yes"/>
      <point x="492.32000000000005" y="557.2"/>
      <point x="427.86" y="530.26"/>
      <point x="319.36" y="478.58" type="curve"/>
      <point x="330.06" y="547.2" type="line"/>
      <point x="110.68" y="547.2" type="line"/>
      <point x="24.240000000000002" y="0.0" type="line"/>
      <point x="265.98" y="0.0" type="line"/>
      <point x="323.24" y="348.22" type="line"/>
      <point x="375.82" y="368.5"/>
      <point x="418.79999999999995" y="382.54"/>
      <point x="461.78000000000003" y="382.54" type="curve" smooth="yes"/>
      <point x="511.26" y="382.54"/>
      <point x="541.3399999999999" y="360.94"/>
      <point x="534.4599999999999" y="308.91999999999996" type="curve" smooth="yes"/>
      <point x="524.14" y="241.67999999999998"/>
      <point x="504.02000000000004" y="122.35999999999996"/>
      <point x="493.70000000000005" y="60.44" type="curve" smooth="yes"/>
      <point x="481.41999999999996" y="-13.799999999999997"/>
      <point x="448.97999999999996" y="-37.000000000000014"/>
      <point x="387.97999999999996" y="-37.000000000000014" type="curve" smooth="yes"/>
      <point x="381.5799999999999" y="-37.000000000000014"/>
      <point x="374.20000000000005" y="-36.72"/>
      <point x="366.26" y="-35.18" type="curve"/>
      <point x="328.5799999999999" y="-214.72" type="line"/>
      <point x="355.32000000000005" y="-217.84"/>
      <point x="412.38" y="-220.84"/>
      <point x="454.3399999999999" y="-220.84" type="curve" smooth="yes"/>
      <point x="630.26" y="-220.84"/>
      <point x="707.4" y="-124.69999999999999"/>
    </contour>
  </outline>
</glyph>
<glyph name="OE" format="2">
  <advance width="1596.72"/>
  <unicode hex="0152"/>
  <outline>
    <contour>
      <point x="1508.4799999999998" y="0.0" type="line"/>
      <point x="1539.56" y="182.59999999999997" type="line"/>
      <point x="964.9200000000001" y="182.59999999999997" type="line"/>
      <point x="979.5199999999999" y="272.76" type="line"/>
      <point x="1496.4399999999998" y="272.76" type="line"/>
      <point x="1525.08" y="436.23999999999995" type="line"/>
      <point x="1006.88" y="436.23999999999995" type="line"/>
      <point x="1019.08" y="516.68" type="line"/>
      <point x="1566.56" y="516.68" type="line"/>
      <point x="1595.92" y="700.0" type="line"/>
      <point x="1049.84" y="700.0" type="line"/>
      <point x="913.96" y="701.12"/>
      <point x="813.28" y="710.0"/>
      <point x="582.08" y="710.0" type="curve" smooth="yes"/>
      <point x="308.88" y="710.0"/>
      <point x="55.16" y="602.4399999999999"/>
      <point x="55.16" y="307.00000000000006" type="curve" smooth="yes"/>
      <point x="55.16" y="107.76"/>
      <point x="186.24" y="-10.0"/>
      <point x="531.92" y="-10.0" type="curve" smooth="yes"/>
      <point x="701.84" y="-10.0"/>
      <point x="805.24" y="-1.1200000000000006"/>
      <point x="935.4" y="0.0" type="curve"/>
    </contour>
    <contour>
      <point x="715.04" y="163.76" type="line"/>
      <point x="669.12" y="160.92"/>
      <point x="611.64" y="158.64"/>
      <point x="538.04" y="158.64" type="curve" smooth="yes"/>
      <point x="401.76" y="158.64"/>
      <point x="311.52" y="224.67999999999998"/>
      <point x="311.52" y="323.75999999999993" type="curve" smooth="yes"/>
      <point x="311.52" y="480.36"/>
      <point x="435.24" y="540.64"/>
      <point x="569.8799999999999" y="540.64" type="curve" smooth="yes"/>
      <point x="648.28" y="540.64"/>
      <point x="711.1600000000001" y="537.3599999999999"/>
      <point x="776.0400000000001" y="535.0799999999999" type="curve"/>
    </contour>
  </outline>
</glyph>
<glyph name="oe" format="2">
  <advance width="1325.44"/>
  <unicode hex="0153"/>
  <outline>
    <contour>
      <point x="403.56" y="-9.28" type="curve" smooth="yes"/>
      <point x="507.20000000000005" y="-9.28"/>
      <point x="598.84" y="7.519999999999999"/>
      <point x="666.9200000000001" y="66.0" type="curve"/>
      <point x="730.88" y="10.799999999999999"/>
      <point x="827.32" y="-10.0"/>
      <point x="932.1199999999999" y="-10.0" type="curve" smooth="yes"/>
      <point x="1039.56" y="-10.0"/>
      <point x="1145.6000000000001" y="3.240000000000002"/>
      <point x="1242.32" y="25.480000000000004" type="curve"/>
      <point x="1224.28" y="182.08" type="line"/>
      <point x="1120.56" y="156.84"/>
      <point x="1017.3600000000001" y="146.59999999999997"/>
      <point x="969.9600000000002" y="146.59999999999997" type="curve" smooth="yes"/>
      <point x="830.2" y="146.59999999999997"/>
      <point x="792.96" y="174.6"/>
      <point x="792.96" y="252.72000000000003" type="curve" smooth="yes"/>
      <point x="792.96" y="342.84"/>
      <point x="865.4000000000001" y="406.76"/>
      <point x="965.36" y="406.76" type="curve" smooth="yes"/>
      <point x="1017.76" y="406.76"/>
      <point x="1042.72" y="392.28"/>
      <point x="1042.72" y="365.88000000000005" type="curve" smooth="yes"/>
      <point x="1042.72" y="331.64"/>
      <point x="980.08" y="320.0799999999999"/>
      <point x="868.3199999999999" y="318.0799999999999" type="curve" smooth="yes"/>
      <point x="823.76" y="317.08"/>
      <point x="786.56" y="317.76"/>
      <point x="756.28" y="321.71999999999997" type="curve"/>
      <point x="771.1999999999999" y="219.56" type="line"/>
      <point x="817.6799999999998" y="210.44"/>
      <point x="877.24" y="203.88"/>
      <point x="957.6400000000001" y="204.88" type="curve" smooth="yes"/>
      <point x="1182.84" y="208.32"/>
      <point x="1301.8" y="273.91999999999996"/>
      <point x="1301.8" y="382.63999999999993" type="curve" smooth="yes"/>
      <point x="1301.8" y="493.44"/>
      <point x="1179.1200000000001" y="557.1999999999999"/>
      <point x="986.2800000000001" y="557.1999999999999" type="curve" smooth="yes"/>
      <point x="860.96" y="557.1999999999999"/>
      <point x="763.68" y="532.2"/>
      <point x="693.76" y="476.6000000000001" type="curve"/>
      <point x="636.5200000000001" y="535.48"/>
      <point x="543.28" y="558.2"/>
      <point x="418.68" y="558.2" type="curve" smooth="yes"/>
      <point x="200.96" y="558.2"/>
      <point x="40.480000000000004" y="477.68"/>
      <point x="34.32000000000001" y="260.87999999999994" type="curve" smooth="yes"/>
      <point x="29.88" y="69.72000000000001"/>
      <point x="178.83999999999997" y="-9.28"/>
    </contour>
    <contour>
      <point x="413.15999999999997" y="139.0" type="curve" smooth="yes"/>
      <point x="327.0" y="139.0"/>
      <point x="282.36" y="180.39999999999998"/>
      <point x="282.36" y="258.71999999999997" type="curve" smooth="yes"/>
      <point x="282.36" y="356.6"/>
      <point x="331.72" y="410.2"/>
      <point x="426.28" y="410.2" type="curve" smooth="yes"/>
      <point x="512.28" y="410.2"/>
      <point x="557.3599999999999" y="368.64"/>
      <point x="557.3599999999999" y="289.47999999999996" type="curve" smooth="yes"/>
      <point x="557.3599999999999" y="189.63999999999996"/>
      <point x="505.4800000000001" y="139.0"/>
    </contour>
  </outline>
</glyph>
<glyph name="uni0162" format="2">
  <advance width="954.6"/>
  <unicode hex="0162"/>
  <anchor x="433.3" y="0.0" name="_bottom"/>
  <anchor x="336.68" y="-220.0" name="bottom"/>
  <outline>
    <contour>
      <point x="228.04" y="-204.07999999999998" type="line"/>
      <point x="268.46" y="-214.88"/>
      <point x="302.3" y="-220.0"/>
      <point x="337.94000000000005" y="-220.0" type="curve" smooth="yes"/>
      <point x="445.02" y="-220.0"/>
      <point x="544.76" y="-168.7"/>
      <point x="544.76" y="-54.980000000000004" type="curve" smooth="yes"/>
      <point x="544.76" y="-29.940000000000005"/>
      <point x="535.8599999999999" y="-7.42"/>
      <point x="522.58" y="9.299999999999999" type="curve"/>
      <point x="328.84" y="8.6" type="line"/>
      <point x="344.40000000000003" y="-2.219999999999999"/>
      <point x="351.9" y="-14.020000000000003"/>
      <point x="351.9" y="-29.46" type="curve" smooth="yes"/>
      <point x="351.9" y="-67.96000000000001"/>
      <point x="323.52" y="-78.16"/>
      <point x="290.21999999999997" y="-78.16" type="curve" smooth="yes"/>
      <point x="280.78000000000003" y="-78.16"/>
      <point x="263.56" y="-75.34"/>
      <point x="255.1" y="-70.98" type="curve"/>
    </contour>
    <component base="T"/>
  </outline>
</glyph>
<glyph name="Tbar" format="2">
  <advance width="971.8000000000001"/>
  <unicode hex="0166"/>
  <outline>
    <contour>
      <point x="983.0799999999999" y="516.74" type="line"/>
      <point x="1017.0400000000001" y="700.0" type="line"/>
      <point x="94.78" y="700.0" type="line"/>
      <point x="59.959999999999994" y="516.74" type="line"/>
      <point x="392.12000000000006" y="516.74" type="line"/>
      <point x="368.48" y="370.22" type="line"/>
      <point x="161.34" y="370.22" type="line"/>
      <point x="135.12" y="207.73999999999998" type="line"/>
      <point x="343.12" y="207.73999999999998" type="line"/>
      <point x="310.78" y="0.0" type="line"/>
      <point x="571.4399999999999" y="0.0" type="line"/>
      <point x="603.78" y="207.73999999999998" type="line"/>
      <point x="812.04" y="207.73999999999998" type="line"/>
      <point x="838.26" y="370.22" type="line"/>
      <point x="629.14" y="370.22" type="line"/>
      <point x="651.9200000000001" y="516.74" type="line"/>
    </contour>
  </outline>
</glyph>
